<svg width="382" height="382" viewBox="0 0 382 382" fill="none" xmlns="http://www.w3.org/2000/svg">
<rect width="401.776" height="333.027" transform="translate(0.660767 23.0029)" fill="rgba(0, 255, 255, 0)"/>
<path d="M285.268 178.438V314.233C285.268 324.17 277.235 332.203 267.297 332.203H161.76C151.822 332.203 143.79 324.17 143.79 314.233V44.8022C143.79 34.8644 151.822 26.8317 161.76 26.8317H267.297C277.235 26.8317 285.268 34.8644 285.268 44.8022V178.438Z" fill="white"/>
<path d="M259.296 337.886L235.96 305.565C235.96 305.565 222.816 287.404 214.561 287.086C214.497 291.849 214.815 326.012 216.275 337.855H259.296V337.886Z" fill="#56CAD8"/>
<path d="M184.239 19.7196H244.818C247.581 19.7196 249.803 21.9421 249.803 24.7044V32.3561C249.803 35.1184 247.581 37.3409 244.818 37.3409H184.239C181.477 37.3409 179.255 35.1184 179.255 32.3561V24.7044C179.255 21.9739 181.477 19.7196 184.239 19.7196Z" fill="#F3F3F3"/>
<path d="M280.95 332.711H285.268V280.133L248.882 274.101L214.529 287.118C216.148 290.801 224.689 315.249 243.009 336.648H280.918V332.711H280.95Z" fill="#74D5DE"/>
<path d="M204.401 203.743C201.448 203.679 201.448 208.219 201.448 208.219C200.019 203.965 168.841 126.4 168.841 126.4C168.841 126.4 162.395 129.13 169.825 143.799C167.412 145.227 160.712 150.593 163.475 159.229C165.57 165.706 170.142 167.992 173 167.992C172.524 172.85 182.906 222.475 184.271 224.856C187.446 230.476 193.574 236.604 197.193 236.763C202.972 237.048 217.196 229.46 220.72 225.491C224.244 221.523 209.957 203.838 204.401 203.743Z" fill="#DE8E68"/>
<path d="M247.327 176.374C233.261 163.833 198.94 193.868 199.606 199.075C200.273 204.282 218.752 223.11 224.181 221.523C229.61 219.935 258.407 186.217 247.327 176.374Z" fill="#FCC486"/>
<path d="M285.268 178.438C279.013 168.31 269.837 161.769 256.693 161.769C211.068 161.769 209.766 280.514 214.529 287.118C218.752 292.96 269.075 294.484 285.268 290.452" fill="#FED385"/>
<path d="M285.268 221.777L280.474 223.745C280.886 225.269 282.728 233.81 285.268 243.24" fill="#DE8E68"/>
<path d="M285.268 177.39C282.093 175.041 278.854 174.088 275.87 175.326C258.661 182.502 270.917 225.65 275.87 227.238C277.457 227.746 281.077 227.238 285.268 226.126" fill="#FED892"/>
<path d="M265.456 172.183C265.456 175.961 244.533 176.787 244.533 172.183V146.466H265.456V172.183Z" fill="#DE8E68"/>
<path d="M269.822 142.513C275.028 129.43 271.362 115.686 261.635 111.815C251.908 107.945 239.802 115.414 234.596 128.498C229.391 141.582 233.056 155.326 242.784 159.196C252.511 163.066 264.616 155.597 269.822 142.513Z" fill="#DE8E68"/>
<path d="M271.969 146.88C273.899 144.186 273.938 140.909 272.056 139.561C270.175 138.214 267.085 139.305 265.155 142C263.225 144.694 263.186 147.971 265.068 149.319C266.95 150.666 270.04 149.575 271.969 146.88Z" fill="#DE8E68"/>
<path d="M286.157 132.369C286.157 128.876 282.887 125.034 282.283 120.653C281.966 118.43 282.664 109.191 280.061 106.048C274.663 99.5709 271.488 100.904 267.361 99.3804C260.185 96.7451 257.423 92.3954 251.486 92.3954C244.755 92.3954 242.024 95.8879 237.198 95.8879C231.674 95.8879 227.165 93.3479 219.418 93.3479C215.291 93.3479 209.893 98.7454 209.893 103.508C209.893 114.779 220.371 113.16 220.371 115.89C220.371 117.795 219.736 119.319 219.736 121.923C219.736 125.352 224.181 127.32 226.721 127.32C234.468 127.32 235.484 126.368 235.484 126.368C237.008 123.288 238.976 120.462 241.326 117.954C241.643 117.637 246.66 121.161 254.851 121.447C261.582 121.669 266.313 122.971 266.313 126.114C266.313 128.336 265.488 134.909 265.551 136.75C265.615 138.592 266.25 139.798 266.662 139.798C267.075 139.798 267.297 139.195 269.901 139.195C272.663 139.195 272.885 142.592 273.362 142.592C276.156 142.592 286.157 140.338 286.157 132.369Z" fill="#FD8369"/>
<path d="M160.84 90.4269H176.683C181.382 90.4269 185.192 94.2369 185.192 98.9359V114.779C185.192 119.478 181.382 123.288 176.683 123.288H160.84C156.141 123.288 152.331 119.478 152.331 114.779V98.9359C152.331 94.2369 156.141 90.4269 160.84 90.4269Z" fill="#FED385"/>
<path d="M181.255 99.7932C184.972 99.7932 187.986 96.7796 187.986 93.0622C187.986 89.3447 184.972 86.3311 181.255 86.3311C177.537 86.3311 174.524 89.3447 174.524 93.0622C174.524 96.7796 177.537 99.7932 181.255 99.7932Z" fill="#FD8369"/>
<path d="M267.869 17.1479H161.221C146.87 17.1479 135.217 28.8001 135.217 43.1511V315.82C135.217 330.171 146.87 341.823 161.221 341.823H267.869C282.22 341.823 293.872 330.171 293.872 315.82V43.1511C293.872 28.8001 282.22 17.1479 267.869 17.1479ZM285.268 178.438V314.233C285.268 324.17 277.235 332.203 267.297 332.203H161.76C151.823 332.203 143.79 324.17 143.79 314.233V44.8021C143.79 34.8644 151.823 26.8316 161.76 26.8316H267.297C277.235 26.8316 285.268 34.8644 285.268 44.8021V178.438Z" fill="#F3F3F3"/>
<path d="M284.379 57.5021H322.892C329.845 57.5021 335.496 63.1536 335.496 70.1069C335.496 77.0601 329.845 82.7116 322.892 82.7116H284.379C277.426 82.7116 271.774 77.0601 271.774 70.1069C271.774 63.1219 277.426 57.5021 284.379 57.5021Z" fill="#74D5DE"/>
<path d="M286.76 76.8379L275.838 65.8842V87.7917L286.76 76.8379Z" fill="#74D5DE"/>
<path d="M290.634 73.6947C292.387 73.6947 293.809 72.2732 293.809 70.5197C293.809 68.7662 292.387 67.3447 290.634 67.3447C288.88 67.3447 287.459 68.7662 287.459 70.5197C287.459 72.2732 288.88 73.6947 290.634 73.6947Z" fill="#FED385"/>
<path d="M303.651 73.6947C305.405 73.6947 306.826 72.2732 306.826 70.5197C306.826 68.7662 305.405 67.3447 303.651 67.3447C301.898 67.3447 300.476 68.7662 300.476 70.5197C300.476 72.2732 301.898 73.6947 303.651 73.6947Z" fill="#FED385"/>
<path d="M316.637 73.6947C318.39 73.6947 319.812 72.2732 319.812 70.5197C319.812 68.7662 318.39 67.3447 316.637 67.3447C314.883 67.3447 313.462 68.7662 313.462 70.5197C313.462 72.2732 314.883 73.6947 316.637 73.6947Z" fill="#FED385"/>
<path d="M112.135 313.471C116.866 311.439 120.549 308.295 120.549 299.247C120.549 256.86 70.3838 268.29 70.3838 233.08" stroke="#74D5DE" stroke-width="9" stroke-miterlimit="10" stroke-linecap="round"/>
<path d="M79.2103 232.857C81.9408 236.413 72.8285 240.446 71.5268 238.763C70.225 237.08 76.321 229.079 79.2103 232.857Z" fill="#74D5DE"/>
<path d="M123.66 170.564C126.962 174.882 117.183 178.819 115.596 176.755C114.008 174.691 120.104 165.928 123.66 170.564Z" fill="#74D5DE"/>
<path d="M120.993 188.407C123.629 193.17 110.833 197.012 109.563 194.726C108.293 192.44 118.199 183.296 120.993 188.407Z" fill="#74D5DE"/>
<path d="M121.755 201.965C125.216 206.156 113.31 212.252 111.659 210.251C110.008 208.251 118.072 197.456 121.755 201.965Z" fill="#74D5DE"/>
<path d="M125.819 217.173C129.28 221.364 117.374 227.46 115.723 225.46C114.072 223.459 122.136 212.696 125.819 217.173Z" fill="#74D5DE"/>
<path d="M129.375 231.365C132.519 235.175 122.105 240.382 120.612 238.541C119.12 236.699 126.01 227.269 129.375 231.365Z" fill="#74D5DE"/>
<path d="M134.138 246.891C137.281 250.701 126.867 255.908 125.375 254.066C123.883 252.225 130.772 242.795 134.138 246.891Z" fill="#74D5DE"/>
<path d="M61.9383 230.063C63.0813 225.745 71.876 230.444 71.3363 232.54C70.7965 234.635 60.7318 234.699 61.9383 230.063Z" fill="#74D5DE"/>
<path d="M61.7795 245.272C61.208 240.858 71.1458 241.938 71.3998 244.065C71.6538 246.192 62.3828 250.034 61.7795 245.272Z" fill="#74D5DE"/>
<path d="M70.5425 259.083C67.6533 255.686 76.5433 251.145 77.9403 252.765C79.3373 254.384 73.654 262.702 70.5425 259.083Z" fill="#74D5DE"/>
<path d="M81.5597 266.544C79.8135 262.448 89.656 260.797 90.4815 262.766C91.307 264.734 83.4012 270.926 81.5597 266.544Z" fill="#74D5DE"/>
<path d="M96.3235 274.291C94.5773 270.195 104.42 268.544 105.245 270.513C106.071 272.481 98.1968 278.673 96.3235 274.291Z" fill="#74D5DE"/>
<path d="M107.404 285.531C107.023 281.086 116.898 282.578 117.088 284.705C117.279 286.832 107.817 290.293 107.404 285.531Z" fill="#74D5DE"/>
<path d="M84.0045 242.414C87.497 245.208 79.623 251.336 77.9403 250.002C76.2575 248.669 80.258 239.398 84.0045 242.414Z" fill="#74D5DE"/>
<path d="M91.9103 250.352C95.752 252.638 88.8305 259.781 86.989 258.702C85.1475 257.622 87.8145 247.939 91.9103 250.352Z" fill="#74D5DE"/>
<path d="M106.42 258.162C110.04 260.766 102.451 267.274 100.705 266.004C98.9588 264.734 102.547 255.368 106.42 258.162Z" fill="#74D5DE"/>
<path d="M113.024 315.122C113.024 313.312 128.423 296.421 128.423 275.434C128.423 241.208 109.309 224.063 109.309 199.615C109.309 194.98 109.722 180.438 117.088 174.533" stroke="#74D5DE" stroke-width="9" stroke-miterlimit="10" stroke-linecap="round"/>
<path d="M133.947 354.46H105.88C104.579 354.46 103.404 353.634 102.991 352.364L89.021 310.042C88.513 308.454 89.3703 306.74 90.9578 306.2C91.2753 306.105 91.5928 306.041 91.9103 306.041H148.044C149.727 306.041 151.092 307.406 151.092 309.089C151.092 309.407 151.029 309.724 150.934 310.042L136.837 352.364C136.392 353.634 135.249 354.46 133.947 354.46Z" fill="#FD8369"/>
<path d="M138.646 264.703C140.297 269.37 128.74 270.703 127.978 268.481C127.216 266.258 136.9 259.686 138.646 264.703Z" fill="#74D5DE"/>
<path d="M119.787 271.561C123.438 268.259 129.153 278.387 127.375 279.974C125.597 281.562 115.85 275.117 119.787 271.561Z" fill="#74D5DE"/>
<path d="M116.834 258.924C119.247 254.638 127.851 262.448 126.708 264.48C125.565 266.512 114.231 263.528 116.834 258.924Z" fill="#74D5DE"/>
<path d="M114.072 243.938C116.485 239.652 125.089 247.462 123.946 249.494C122.803 251.526 111.468 248.542 114.072 243.938Z" fill="#74D5DE"/>
<path d="M109.151 232.032C110.738 227.333 120.644 233.397 119.882 235.651C119.12 237.906 107.436 237.017 109.151 232.032Z" fill="#74D5DE"/>
<path d="M102.166 215.585C104.483 211.204 113.278 218.792 112.167 220.888C111.056 222.983 99.7208 220.284 102.166 215.585Z" fill="#74D5DE"/>
<path d="M98.8953 197.297C101.594 193.17 109.69 201.52 108.389 203.489C107.087 205.457 96.006 201.742 98.8953 197.297Z" fill="#74D5DE"/>
<path d="M100.515 181.549C103.213 177.422 111.31 185.772 110.008 187.741C108.706 189.709 97.6253 185.994 100.515 181.549Z" fill="#74D5DE"/>
<path d="M138.646 280.895C140.297 285.562 128.74 286.896 127.978 284.673C127.216 282.451 136.9 275.91 138.646 280.895Z" fill="#74D5DE"/>
</svg>
