<svg width="381" height="381" viewBox="0 0 381 381" fill="none" xmlns="http://www.w3.org/2000/svg">
<path d="M284.607 178.435V314.23C284.607 324.167 276.574 332.2 266.636 332.2H161.099C151.162 332.2 143.129 324.167 143.129 314.23V44.7992C143.129 34.8615 151.162 26.8288 161.099 26.8288H266.636C276.574 26.8288 284.607 34.8615 284.607 44.7992V178.435Z" fill="white"/>
<path d="M258.635 337.883L235.299 305.562C235.299 305.562 222.155 287.401 213.9 287.084C213.836 291.846 214.154 326.009 215.614 337.852H258.635V337.883Z" fill="#56CAD8"/>
<path d="M183.579 19.7168H244.157C246.92 19.7168 249.142 21.9393 249.142 24.7015V32.3532C249.142 35.1155 246.92 37.338 244.157 37.338H183.579C180.816 37.338 178.594 35.1155 178.594 32.3532V24.7015C178.594 21.971 180.816 19.7168 183.579 19.7168Z" fill="#F3F3F3"/>
<path d="M280.289 332.708H284.607V280.13L248.222 274.098L213.868 287.115C215.487 290.798 224.028 315.246 242.348 336.645H280.257V332.708H280.289Z" fill="#74D5DE"/>
<path d="M203.74 203.74C200.787 203.676 200.787 208.216 200.787 208.216C199.358 203.962 168.18 126.397 168.18 126.397C168.18 126.397 161.734 129.127 169.164 143.796C166.751 145.225 160.052 150.59 162.814 159.226C164.909 165.703 169.481 167.989 172.339 167.989C171.863 172.847 182.245 222.472 183.61 224.853C186.785 230.473 192.913 236.601 196.533 236.76C202.311 237.045 216.535 229.457 220.059 225.488C223.584 221.52 209.296 203.835 203.74 203.74Z" fill="#DE8E68"/>
<path d="M246.666 176.371C232.601 163.83 198.279 193.865 198.945 199.072C199.612 204.279 218.091 223.107 223.52 221.52C228.949 219.932 257.747 186.214 246.666 176.371Z" fill="#FCC486"/>
<path d="M284.607 178.435C278.352 168.307 269.177 161.766 256.032 161.766C210.407 161.766 209.106 280.511 213.868 287.115C218.091 292.957 268.415 294.481 284.607 290.449" fill="#FED385"/>
<path d="M284.607 221.774L279.813 223.742C280.225 225.266 282.067 233.807 284.607 243.237" fill="#DE8E68"/>
<path d="M284.607 177.387C281.432 175.038 278.194 174.085 275.209 175.324C258 182.499 270.256 225.647 275.209 227.235C276.796 227.743 280.416 227.235 284.607 226.124" fill="#FED892"/>
<path d="M264.795 172.18C264.795 175.958 243.872 176.784 243.872 172.18V146.463H264.795V172.18Z" fill="#DE8E68"/>
<path d="M269.161 142.51C274.367 129.427 270.701 115.683 260.974 111.813C251.247 107.942 239.141 115.411 233.936 128.495C228.73 141.579 232.396 155.323 242.123 159.193C251.85 163.063 263.956 155.594 269.161 142.51Z" fill="#DE8E68"/>
<path d="M271.309 146.877C273.238 144.183 273.277 140.906 271.396 139.558C269.514 138.211 266.424 139.302 264.494 141.997C262.564 144.691 262.525 147.968 264.407 149.316C266.289 150.663 269.379 149.572 271.309 146.877Z" fill="#DE8E68"/>
<path d="M285.496 132.366C285.496 128.873 282.226 125.031 281.623 120.65C281.305 118.427 282.004 109.188 279.4 106.045C274.003 99.568 270.828 100.901 266.7 99.3775C259.525 96.7422 256.762 92.3925 250.825 92.3925C244.094 92.3925 241.364 95.885 236.538 95.885C231.013 95.885 226.505 93.345 218.758 93.345C214.63 93.345 209.233 98.7425 209.233 103.505C209.233 114.776 219.71 113.157 219.71 115.887C219.71 117.792 219.075 119.316 219.075 121.92C219.075 125.349 223.52 127.317 226.06 127.317C233.807 127.317 234.823 126.365 234.823 126.365C236.347 123.285 238.316 120.459 240.665 117.951C240.983 117.634 245.999 121.158 254.191 121.444C260.922 121.666 265.652 122.968 265.652 126.111C265.652 128.333 264.827 134.906 264.89 136.747C264.954 138.589 265.589 139.795 266.002 139.795C266.414 139.795 266.637 139.192 269.24 139.192C272.002 139.192 272.225 142.589 272.701 142.589C275.495 142.589 285.496 140.335 285.496 132.366Z" fill="#FD8369"/>
<path d="M267.208 17.145H160.56C146.209 17.145 134.557 28.7972 134.557 43.1482V315.817C134.557 330.168 146.209 341.821 160.56 341.821H267.208C281.559 341.821 293.211 330.168 293.211 315.817V43.1482C293.211 28.7972 281.559 17.145 267.208 17.145ZM284.607 178.435V314.23C284.607 324.168 276.574 332.2 266.637 332.2H161.1C151.162 332.2 143.129 324.168 143.129 314.23V44.7992C143.129 34.8615 151.162 26.8287 161.1 26.8287H266.637C276.574 26.8287 284.607 34.8615 284.607 44.7992V178.435Z" fill="#F3F3F3"/>
<path d="M111.474 313.468C116.205 311.436 119.888 308.293 119.888 299.244C119.888 256.858 69.723 268.288 69.723 233.077" stroke="#74D5DE" stroke-width="9" stroke-miterlimit="10" stroke-linecap="round"/>
<path d="M78.5495 232.855C81.28 236.41 72.1678 240.443 70.866 238.76C69.5643 237.077 75.6603 229.076 78.5495 232.855Z" fill="#74D5DE"/>
<path d="M122.999 170.561C126.301 174.879 116.523 178.816 114.935 176.752C113.348 174.688 119.443 165.925 122.999 170.561Z" fill="#74D5DE"/>
<path d="M135.018 89.9971H171.66C182.528 89.9971 191.339 93.8232 191.339 98.542V114.452C191.339 119.171 182.528 122.997 171.66 122.997H135.018C124.151 122.997 115.339 119.171 115.339 114.452V98.542C115.339 93.8232 124.151 89.9971 135.018 89.9971Z" fill="#FED385"/>
<path d="M120.332 188.404C122.968 193.167 110.172 197.009 108.903 194.723C107.633 192.437 117.538 183.293 120.332 188.404Z" fill="#74D5DE"/>
<path d="M121.094 201.962C124.555 206.153 112.649 212.249 110.998 210.248C109.347 208.248 117.411 197.453 121.094 201.962Z" fill="#74D5DE"/>
<path d="M125.158 217.17C128.619 221.361 116.713 227.457 115.062 225.457C113.411 223.456 121.475 212.693 125.158 217.17Z" fill="#74D5DE"/>
<path d="M128.714 231.362C131.858 235.172 121.444 240.379 119.951 238.538C118.459 236.696 125.349 227.267 128.714 231.362Z" fill="#74D5DE"/>
<path d="M133.477 246.888C136.62 250.698 126.206 255.905 124.714 254.064C123.222 252.222 130.111 242.792 133.477 246.888Z" fill="#74D5DE"/>
<path d="M61.2775 230.061C62.4205 225.743 71.2152 230.442 70.6755 232.537C70.1357 234.633 60.071 234.696 61.2775 230.061Z" fill="#74D5DE"/>
<path d="M61.1188 245.269C60.5473 240.856 70.485 241.935 70.739 244.062C70.993 246.189 61.722 250.031 61.1188 245.269Z" fill="#74D5DE"/>
<path d="M69.8818 259.08C66.9925 255.683 75.8825 251.142 77.2795 252.762C78.6765 254.381 72.9932 262.7 69.8818 259.08Z" fill="#74D5DE"/>
<path d="M80.899 266.541C79.1527 262.445 88.9952 260.794 89.8207 262.763C90.6462 264.731 82.7405 270.923 80.899 266.541Z" fill="#74D5DE"/>
<path d="M95.6628 274.288C93.9165 270.193 103.759 268.542 104.585 270.51C105.41 272.479 97.536 278.67 95.6628 274.288Z" fill="#74D5DE"/>
<path d="M106.744 285.528C106.363 281.083 116.237 282.575 116.427 284.702C116.618 286.829 107.156 290.29 106.744 285.528Z" fill="#74D5DE"/>
<path d="M83.3438 242.411C86.8363 245.205 78.9623 251.333 77.2795 249.999C75.5968 248.666 79.5973 239.395 83.3438 242.411Z" fill="#74D5DE"/>
<path d="M91.2495 250.349C95.0912 252.635 88.1697 259.778 86.3282 258.699C84.4867 257.619 87.1537 247.936 91.2495 250.349Z" fill="#74D5DE"/>
<path d="M105.759 258.159C109.379 260.763 101.79 267.271 100.044 266.001C98.298 264.731 101.886 255.365 105.759 258.159Z" fill="#74D5DE"/>
<path d="M112.363 315.119C112.363 313.309 127.762 296.418 127.762 275.431C127.762 241.205 108.648 224.06 108.648 199.612C108.648 194.977 109.061 180.435 116.427 174.53" stroke="#74D5DE" stroke-width="9" stroke-miterlimit="10" stroke-linecap="round"/>
<path d="M133.287 354.457H105.22C103.918 354.457 102.743 353.632 102.33 352.362L88.3603 310.039C87.8523 308.451 88.7095 306.737 90.297 306.197C90.6145 306.102 90.932 306.038 91.2495 306.038H147.384C149.066 306.038 150.432 307.404 150.432 309.086C150.432 309.404 150.368 309.721 150.273 310.039L136.176 352.362C135.731 353.632 134.588 354.457 133.287 354.457Z" fill="#FD8369"/>
<path d="M137.985 264.7C139.636 269.367 128.079 270.701 127.317 268.478C126.555 266.256 136.239 259.683 137.985 264.7Z" fill="#74D5DE"/>
<path d="M119.126 271.558C122.777 268.256 128.492 278.384 126.714 279.971C124.936 281.559 115.189 275.114 119.126 271.558Z" fill="#74D5DE"/>
<path d="M116.173 258.921C118.586 254.635 127.191 262.445 126.048 264.477C124.905 266.509 113.57 263.525 116.173 258.921Z" fill="#74D5DE"/>
<path d="M113.411 243.935C115.824 239.649 124.428 247.459 123.285 249.491C122.142 251.523 110.807 248.539 113.411 243.935Z" fill="#74D5DE"/>
<path d="M108.49 232.029C110.077 227.33 119.983 233.394 119.221 235.649C118.459 237.903 106.775 237.014 108.49 232.029Z" fill="#74D5DE"/>
<path d="M101.505 215.582C103.823 211.201 112.617 218.789 111.506 220.885C110.395 222.98 99.06 220.281 101.505 215.582Z" fill="#74D5DE"/>
<path d="M98.2345 197.294C100.933 193.167 109.03 201.517 107.728 203.486C106.426 205.454 95.3453 201.739 98.2345 197.294Z" fill="#74D5DE"/>
<path d="M99.8538 181.547C102.553 177.419 110.649 185.769 109.347 187.738C108.045 189.706 96.9645 185.991 99.8538 181.547Z" fill="#74D5DE"/>
<path d="M137.985 280.892C139.636 285.56 128.079 286.893 127.317 284.671C126.555 282.448 136.239 275.907 137.985 280.892Z" fill="#74D5DE"/>
<path d="M286.099 76.835L275.177 65.8813V87.7888L286.099 76.835Z" fill="#74D5DE"/>
<path d="M288.691 47.9971H356.987C369.317 47.9971 379.339 55.6193 379.339 64.9971C379.339 74.3749 369.317 81.9971 356.987 81.9971H288.691C276.361 81.9971 266.339 74.3749 266.339 64.9971C266.339 55.5764 276.361 47.9971 288.691 47.9971Z" fill="#74D5DE"/>
<path d="M282.767 69.2971C282.319 69.5451 281.619 69.6691 280.667 69.6691C279.299 69.6691 278.207 69.2531 277.391 68.4211C276.583 67.5731 276.179 66.4571 276.179 65.0731C276.179 63.7051 276.591 62.5971 277.415 61.7491C278.239 60.9011 279.323 60.4771 280.667 60.4771C281.643 60.4771 282.343 60.5851 282.767 60.8011L282.671 62.0251C282.127 61.8091 281.459 61.7011 280.667 61.7011C279.699 61.7011 278.927 62.0131 278.351 62.6371C277.775 63.2611 277.487 64.0731 277.487 65.0731C277.487 66.1131 277.767 66.9291 278.327 67.5211C278.895 68.1371 279.675 68.4451 280.667 68.4451C281.507 68.4451 282.175 68.3131 282.671 68.0491L282.767 69.2971ZM286.29 69.5131H284.982V59.9611H286.29V69.5131ZM289.338 69.5611H288.054V62.8411H289.338V69.5611ZM289.338 61.6891H288.054V60.1891H289.338V61.6891ZM295.635 69.4531C295.187 69.5971 294.615 69.6691 293.919 69.6691C292.935 69.6691 292.159 69.3251 291.591 68.6371C291.079 68.0211 290.823 67.2331 290.823 66.2731C290.823 65.2891 291.119 64.4771 291.711 63.8371C292.311 63.2051 293.067 62.8891 293.979 62.8891C294.587 62.8891 295.139 62.9731 295.635 63.1411L295.539 64.3051C295.067 64.1131 294.575 64.0171 294.063 64.0171C293.439 64.0171 292.951 64.2251 292.599 64.6411C292.255 65.0491 292.083 65.5931 292.083 66.2731C292.083 66.9131 292.259 67.4531 292.611 67.8931C292.955 68.3251 293.411 68.5411 293.979 68.5411C294.499 68.5411 295.019 68.4451 295.539 68.2531L295.635 69.4531ZM302.588 69.5131H300.908L298.316 66.7411V69.5131H297.032V59.9611H298.316V65.0491L300.632 62.8651H302.288L299.12 65.8531L302.588 69.5131ZM312.424 69.5131H311.14V65.6731C311.14 65.0891 311.072 64.6691 310.936 64.4131C310.752 64.1091 310.432 63.9571 309.976 63.9571C309.472 63.9571 309.084 64.1651 308.812 64.5811C308.58 64.9571 308.464 65.4291 308.464 65.9971V69.5131H307.18V59.9611H308.464V63.5731C308.624 63.3091 308.856 63.1091 309.16 62.9731C309.456 62.8291 309.772 62.7571 310.108 62.7571C310.948 62.7571 311.552 63.0131 311.92 63.5251C312.256 63.9811 312.424 64.6811 312.424 65.6251V69.5131ZM319.413 66.7411H315.369C315.393 67.3171 315.549 67.7651 315.837 68.0851C316.133 68.4291 316.541 68.6011 317.061 68.6011C317.781 68.6011 318.417 68.4451 318.969 68.1331V69.3451C318.329 69.5851 317.681 69.7051 317.025 69.7051C315.993 69.7051 315.225 69.3771 314.721 68.7211C314.281 68.1371 314.061 67.3211 314.061 66.2731C314.061 65.2651 314.305 64.4451 314.793 63.8131C315.281 63.1811 315.937 62.8651 316.761 62.8651C317.681 62.8651 318.369 63.1931 318.825 63.8491C319.217 64.4091 319.413 65.1491 319.413 66.0691V66.7411ZM318.105 65.6011C318.105 65.1531 317.989 64.7771 317.757 64.4731C317.517 64.1531 317.201 63.9931 316.809 63.9931C316.409 63.9931 316.069 64.1571 315.789 64.4851C315.509 64.8131 315.369 65.1851 315.369 65.6011H318.105ZM324.093 64.1971C323.989 64.1811 323.893 64.1691 323.805 64.1611C323.717 64.1451 323.629 64.1371 323.541 64.1371C323.077 64.1371 322.733 64.3651 322.509 64.8211C322.301 65.2211 322.197 65.7171 322.197 66.3091V69.5611H320.913V64.6171C320.913 64.3131 320.905 64.0291 320.889 63.7651C320.881 63.4931 320.869 63.2411 320.853 63.0091H322.149V63.8131C322.517 63.1811 322.985 62.8651 323.553 62.8651C323.729 62.8651 323.909 62.8891 324.093 62.9371V64.1971ZM330.312 66.7411H326.268C326.292 67.3171 326.448 67.7651 326.736 68.0851C327.032 68.4291 327.44 68.6011 327.96 68.6011C328.68 68.6011 329.316 68.4451 329.868 68.1331V69.3451C329.228 69.5851 328.58 69.7051 327.924 69.7051C326.892 69.7051 326.124 69.3771 325.62 68.7211C325.18 68.1371 324.96 67.3211 324.96 66.2731C324.96 65.2651 325.204 64.4451 325.692 63.8131C326.18 63.1811 326.836 62.8651 327.66 62.8651C328.58 62.8651 329.268 63.1931 329.724 63.8491C330.116 64.4091 330.312 65.1491 330.312 66.0691V66.7411ZM329.004 65.6011C329.004 65.1531 328.888 64.7771 328.656 64.4731C328.416 64.1531 328.1 63.9931 327.708 63.9931C327.308 63.9931 326.968 64.1571 326.688 64.4851C326.408 64.8131 326.268 65.1851 326.268 65.6011H329.004ZM338.006 63.8731C337.502 63.8731 337.11 64.1211 336.83 64.6171C336.598 65.0411 336.482 65.5691 336.482 66.2011C336.482 66.8171 336.602 67.3411 336.842 67.7731C337.114 68.2611 337.502 68.5051 338.006 68.5051C339.038 68.5051 339.554 67.7451 339.554 66.2251C339.554 64.6571 339.038 63.8731 338.006 63.8731ZM336.482 59.9611V63.4891C336.97 62.9771 337.522 62.7211 338.138 62.7211C339.058 62.7211 339.75 63.0611 340.214 63.7411C340.63 64.3331 340.838 65.1611 340.838 66.2251C340.838 67.2571 340.614 68.0811 340.166 68.6971C339.67 69.3451 338.994 69.6691 338.138 69.6691C337.41 69.6691 336.858 69.4331 336.482 68.9611V69.5131H335.27V59.9611H336.482ZM346.58 69.5731V68.9131C346.148 69.4411 345.58 69.7051 344.876 69.7051C344.092 69.7051 343.496 69.4691 343.088 68.9971C342.728 68.5571 342.548 67.9651 342.548 67.2211V63.0211H343.832V66.9811C343.832 68.0451 344.22 68.5771 344.996 68.5771C345.516 68.5771 345.912 68.3811 346.184 67.9891C346.4 67.6691 346.508 67.2331 346.508 66.6811V63.0211H347.78V67.9171C347.78 68.5091 347.804 69.0611 347.852 69.5731H346.58ZM352.333 63.8971C351.789 63.8971 351.385 64.1411 351.121 64.6291C350.897 65.0291 350.785 65.5731 350.785 66.2611C350.785 67.7891 351.301 68.5531 352.333 68.5531C352.829 68.5531 353.221 68.3051 353.509 67.8091C353.741 67.3851 353.857 66.8571 353.857 66.2251C353.857 65.5931 353.741 65.0651 353.509 64.6411C353.229 64.1451 352.837 63.8971 352.333 63.8971ZM355.069 69.5731H353.857V68.9731C353.457 69.4691 352.909 69.7171 352.213 69.7171C351.341 69.7171 350.665 69.3931 350.185 68.7451C349.737 68.1131 349.513 67.2851 349.513 66.2611C349.513 65.2051 349.721 64.3731 350.137 63.7651C350.593 63.0851 351.285 62.7451 352.213 62.7451C352.853 62.7451 353.401 63.0091 353.857 63.5371V59.9371H355.069V69.5731ZM359.61 63.8971C359.066 63.8971 358.662 64.1411 358.398 64.6291C358.174 65.0291 358.062 65.5731 358.062 66.2611C358.062 67.7891 358.578 68.5531 359.61 68.5531C360.106 68.5531 360.498 68.3051 360.786 67.8091C361.018 67.3851 361.134 66.8571 361.134 66.2251C361.134 65.5931 361.018 65.0651 360.786 64.6411C360.506 64.1451 360.114 63.8971 359.61 63.8971ZM362.346 69.5731H361.134V68.9731C360.734 69.4691 360.186 69.7171 359.49 69.7171C358.618 69.7171 357.942 69.3931 357.462 68.7451C357.014 68.1131 356.79 67.2851 356.79 66.2611C356.79 65.2051 356.998 64.3731 357.414 63.7651C357.87 63.0851 358.562 62.7451 359.49 62.7451C360.13 62.7451 360.678 63.0091 361.134 63.5371V59.9371H362.346V69.5731ZM369.132 63.0211L366.756 69.6571C366.556 70.2171 366.348 70.6051 366.132 70.8211C365.868 71.1171 365.516 71.2691 365.076 71.2771H364.956C364.652 71.2771 364.34 71.2371 364.02 71.1571L364.152 69.9571C364.432 70.0611 364.66 70.1131 364.836 70.1131C364.852 70.1131 364.884 70.1091 364.932 70.1011C364.988 70.1011 365.06 70.0971 365.148 70.0891C365.332 70.0731 365.5 69.8051 365.652 69.2851L365.748 68.9731L363.576 63.0211H364.896L366.348 67.4011L367.86 63.0211H369.132ZM372.542 69.5491H371.174V68.2291H372.542V69.5491ZM372.53 60.4891L372.386 67.4611H371.33L371.162 60.4891H372.53Z" fill="#FED385"/>
</svg>
