<svg width="400" height="381" viewBox="0 0 400 381" fill="none" xmlns="http://www.w3.org/2000/svg">
<g clip-path="url(#clip0_64_0)">
<path d="M298.8 178.435V314.23C298.8 324.167 290.367 332.2 279.933 332.2H169.133C158.7 332.2 150.267 324.167 150.267 314.23V44.7992C150.267 34.8615 158.7 26.8288 169.133 26.8288H279.933C290.367 26.8288 298.8 34.8615 298.8 44.7992V178.435Z" fill="white"/>
<path d="M271.533 337.883L247.033 305.562C247.033 305.562 233.233 287.401 224.567 287.084C224.5 291.846 224.833 326.009 226.367 337.852H271.533V337.883Z" fill="#56CAD8"/>
<path d="M192.733 19.7168H256.333C259.233 19.7168 261.567 21.9393 261.567 24.7015V32.3532C261.567 35.1155 259.233 37.338 256.333 37.338H192.733C189.833 37.338 187.5 35.1155 187.5 32.3532V24.7015C187.5 21.971 189.833 19.7168 192.733 19.7168Z" fill="#F3F3F3"/>
<path d="M294.267 332.708H298.8V280.13L260.6 274.098L224.533 287.115C226.233 290.798 235.2 315.246 254.433 336.645H294.233V332.708H294.267Z" fill="#74D5DE"/>
<path d="M213.9 203.74C210.8 203.676 210.8 208.216 210.8 208.216C209.3 203.962 176.567 126.397 176.567 126.397C176.567 126.397 169.8 129.127 177.6 143.796C175.067 145.225 168.033 150.59 170.933 159.226C173.133 165.703 177.933 167.989 180.933 167.989C180.433 172.847 191.333 222.472 192.767 224.853C196.1 230.473 202.533 236.601 206.333 236.76C212.4 237.045 227.333 229.457 231.033 225.488C234.733 221.52 219.733 203.835 213.9 203.74Z" fill="#DE8E68"/>
<path d="M258.967 176.371C244.2 163.83 208.167 193.865 208.867 199.072C209.567 204.279 228.967 223.107 234.667 221.52C240.367 219.932 270.6 186.214 258.967 176.371Z" fill="#FCC486"/>
<path d="M298.8 178.435C292.233 168.307 282.6 161.766 268.8 161.766C220.9 161.766 219.533 280.511 224.533 287.115C228.967 292.957 281.8 294.481 298.8 290.449" fill="#FED385"/>
<path d="M298.8 221.774L293.767 223.742C294.2 225.266 296.133 233.807 298.8 243.237" fill="#DE8E68"/>
<path d="M298.8 177.387C295.467 175.038 292.067 174.085 288.933 175.324C270.867 182.499 283.733 225.647 288.933 227.235C290.6 227.743 294.4 227.235 298.8 226.124" fill="#FED892"/>
<path d="M278 172.18C278 175.958 256.033 176.784 256.033 172.18V146.463H278V172.18Z" fill="#DE8E68"/>
<path d="M282.584 142.51C288.049 129.427 284.201 115.683 273.988 111.813C263.776 107.942 251.067 115.411 245.602 128.495C240.137 141.579 243.985 155.323 254.197 159.193C264.41 163.063 277.119 155.594 282.584 142.51Z" fill="#DE8E68"/>
<path d="M284.838 146.877C286.864 144.183 286.905 140.906 284.93 139.558C282.954 138.211 279.71 139.302 277.684 141.997C275.658 144.691 275.617 147.968 277.593 149.316C279.568 150.663 282.812 149.572 284.838 146.877Z" fill="#DE8E68"/>
<path d="M299.733 132.366C299.733 128.873 296.3 125.031 295.667 120.65C295.333 118.427 296.067 109.188 293.333 106.045C287.667 99.568 284.333 100.901 280 99.3775C272.467 96.7422 269.567 92.3925 263.333 92.3925C256.267 92.3925 253.4 95.885 248.333 95.885C242.533 95.885 237.8 93.345 229.667 93.345C225.333 93.345 219.667 98.7425 219.667 103.505C219.667 114.776 230.667 113.157 230.667 115.887C230.667 117.792 230 119.316 230 121.92C230 125.349 234.667 127.317 237.333 127.317C245.467 127.317 246.533 126.365 246.533 126.365C248.133 123.285 250.2 120.459 252.667 117.951C253 117.634 258.267 121.158 266.867 121.444C273.933 121.666 278.9 122.968 278.9 126.111C278.9 128.333 278.033 134.906 278.1 136.747C278.167 138.589 278.833 139.795 279.267 139.795C279.7 139.795 279.933 139.192 282.667 139.192C285.567 139.192 285.8 142.589 286.3 142.589C289.233 142.589 299.733 140.335 299.733 132.366Z" fill="#FD8369"/>
<path d="M280.533 17.145H168.567C153.5 17.145 141.267 28.7972 141.267 43.1482V315.817C141.267 330.168 153.5 341.821 168.567 341.821H280.533C295.6 341.821 307.833 330.168 307.833 315.817V43.1482C307.833 28.7972 295.6 17.145 280.533 17.145ZM298.8 178.435V314.23C298.8 324.168 290.367 332.2 279.933 332.2H169.133C158.7 332.2 150.267 324.168 150.267 314.23V44.7992C150.267 34.8615 158.7 26.8287 169.133 26.8287H279.933C290.367 26.8287 298.8 34.8615 298.8 44.7992V178.435Z" fill="#F3F3F3"/>
<path d="M117.033 313.468C122 311.436 125.867 308.293 125.867 299.244C125.867 256.858 73.2 268.288 73.2 233.077" stroke="#74D5DE" stroke-width="9" stroke-miterlimit="10" stroke-linecap="round"/>
<path d="M82.4667 232.855C85.3333 236.41 75.7667 240.443 74.4 238.76C73.0333 237.077 79.4333 229.076 82.4667 232.855Z" fill="#74D5DE"/>
<path d="M129.133 170.561C132.6 174.879 122.333 178.816 120.667 176.752C119 174.688 125.4 165.925 129.133 170.561Z" fill="#74D5DE"/>
<path d="M126.333 188.404C129.1 193.167 115.667 197.009 114.333 194.723C113 192.437 123.4 183.293 126.333 188.404Z" fill="#74D5DE"/>
<path d="M127.133 201.962C130.767 206.153 118.267 212.249 116.533 210.248C114.8 208.248 123.267 197.453 127.133 201.962Z" fill="#74D5DE"/>
<path d="M131.4 217.17C135.033 221.361 122.533 227.457 120.8 225.457C119.067 223.456 127.533 212.693 131.4 217.17Z" fill="#74D5DE"/>
<path d="M135.133 231.362C138.433 235.172 127.5 240.379 125.933 238.538C124.367 236.696 131.6 227.267 135.133 231.362Z" fill="#74D5DE"/>
<path d="M140.133 246.888C143.433 250.698 132.5 255.905 130.933 254.064C129.367 252.222 136.6 242.792 140.133 246.888Z" fill="#74D5DE"/>
<path d="M64.3333 230.061C65.5333 225.743 74.7667 230.442 74.2 232.537C73.6333 234.633 63.0667 234.696 64.3333 230.061Z" fill="#74D5DE"/>
<path d="M64.1666 245.269C63.5666 240.856 74 241.935 74.2667 244.062C74.5333 246.189 64.8 250.031 64.1666 245.269Z" fill="#74D5DE"/>
<path d="M73.3667 259.08C70.3333 255.683 79.6667 251.142 81.1333 252.762C82.6 254.381 76.6333 262.7 73.3667 259.08Z" fill="#74D5DE"/>
<path d="M84.9333 266.541C83.1 262.445 93.4333 260.794 94.3 262.763C95.1667 264.731 86.8667 270.923 84.9333 266.541Z" fill="#74D5DE"/>
<path d="M100.433 274.288C98.6 270.193 108.933 268.542 109.8 270.51C110.667 272.479 102.4 278.67 100.433 274.288Z" fill="#74D5DE"/>
<path d="M112.067 285.528C111.667 281.083 122.033 282.575 122.233 284.702C122.433 286.829 112.5 290.29 112.067 285.528Z" fill="#74D5DE"/>
<path d="M87.5 242.411C91.1667 245.205 82.9 251.333 81.1334 249.999C79.3667 248.666 83.5667 239.395 87.5 242.411Z" fill="#74D5DE"/>
<path d="M95.8 250.349C99.8334 252.635 92.5667 259.778 90.6334 258.699C88.7 257.619 91.5 247.936 95.8 250.349Z" fill="#74D5DE"/>
<path d="M111.033 258.159C114.833 260.763 106.867 267.271 105.033 266.001C103.2 264.731 106.967 255.365 111.033 258.159Z" fill="#74D5DE"/>
<path d="M117.967 315.119C117.967 313.309 134.133 296.418 134.133 275.431C134.133 241.205 114.067 224.06 114.067 199.612C114.067 194.977 114.5 180.435 122.233 174.53" stroke="#74D5DE" stroke-width="9" stroke-miterlimit="10" stroke-linecap="round"/>
<path d="M139.933 354.457H110.467C109.1 354.457 107.867 353.632 107.433 352.362L92.7667 310.039C92.2333 308.451 93.1333 306.737 94.8 306.197C95.1333 306.102 95.4667 306.038 95.8 306.038H154.733C156.5 306.038 157.933 307.404 157.933 309.086C157.933 309.404 157.867 309.721 157.767 310.039L142.967 352.362C142.5 353.632 141.3 354.457 139.933 354.457Z" fill="#FD8369"/>
<path d="M144.867 264.7C146.6 269.367 134.467 270.701 133.667 268.478C132.867 266.256 143.033 259.683 144.867 264.7Z" fill="#74D5DE"/>
<path d="M125.067 271.558C128.9 268.256 134.9 278.384 133.033 279.971C131.167 281.559 120.933 275.114 125.067 271.558Z" fill="#74D5DE"/>
<path d="M121.967 258.921C124.5 254.635 133.533 262.445 132.333 264.477C131.133 266.509 119.233 263.525 121.967 258.921Z" fill="#74D5DE"/>
<path d="M119.067 243.935C121.6 239.649 130.633 247.459 129.433 249.491C128.233 251.523 116.333 248.539 119.067 243.935Z" fill="#74D5DE"/>
<path d="M113.9 232.029C115.567 227.33 125.967 233.394 125.167 235.649C124.367 237.903 112.1 237.014 113.9 232.029Z" fill="#74D5DE"/>
<path d="M106.567 215.582C109 211.201 118.233 218.789 117.067 220.885C115.9 222.98 104 220.281 106.567 215.582Z" fill="#74D5DE"/>
<path d="M103.133 197.294C105.967 193.167 114.467 201.517 113.1 203.486C111.733 205.454 100.1 201.739 103.133 197.294Z" fill="#74D5DE"/>
<path d="M104.833 181.547C107.667 177.419 116.167 185.769 114.8 187.738C113.433 189.706 101.8 185.991 104.833 181.547Z" fill="#74D5DE"/>
<path d="M144.867 280.892C146.6 285.56 134.467 286.893 133.667 284.671C132.867 282.448 143.033 275.907 144.867 280.892Z" fill="#74D5DE"/>
<path d="M275.467 77.9538L264 67V88.9075L275.467 77.9538Z" fill="#74D5DE"/>
<path d="M279.88 40H368.12C384.051 40 397 49.1914 397 60.5C397 71.8086 384.051 81 368.12 81H279.88C263.949 81 251 71.8086 251 60.5C251 49.1398 263.949 40 279.88 40Z" fill="#74D5DE"/>
<path d="M269.222 66.4C268.624 66.7307 267.691 66.896 266.422 66.896C264.598 66.896 263.142 66.3413 262.054 65.232C260.976 64.1013 260.438 62.6133 260.438 60.768C260.438 58.944 260.987 57.4667 262.086 56.336C263.184 55.2053 264.63 54.64 266.422 54.64C267.723 54.64 268.656 54.784 269.222 55.072L269.094 56.704C268.368 56.416 267.478 56.272 266.422 56.272C265.131 56.272 264.102 56.688 263.334 57.52C262.566 58.352 262.182 59.4347 262.182 60.768C262.182 62.1547 262.555 63.2427 263.302 64.032C264.059 64.8533 265.099 65.264 266.422 65.264C267.542 65.264 268.432 65.088 269.094 64.736L269.222 66.4ZM273.919 66.688H272.175V53.952H273.919V66.688ZM277.983 66.752H276.271V57.792H277.983V66.752ZM277.983 56.256H276.271V54.256H277.983V56.256ZM286.379 66.608C285.782 66.8 285.019 66.896 284.091 66.896C282.779 66.896 281.744 66.4373 280.987 65.52C280.304 64.6987 279.963 63.648 279.963 62.368C279.963 61.056 280.358 59.9733 281.147 59.12C281.947 58.2773 282.955 57.856 284.171 57.856C284.982 57.856 285.718 57.968 286.379 58.192L286.251 59.744C285.622 59.488 284.966 59.36 284.283 59.36C283.451 59.36 282.8 59.6373 282.331 60.192C281.872 60.736 281.643 61.4613 281.643 62.368C281.643 63.2213 281.878 63.9413 282.347 64.528C282.806 65.104 283.414 65.392 284.171 65.392C284.864 65.392 285.558 65.264 286.251 65.008L286.379 66.608ZM295.649 66.688H293.409L289.953 62.992V66.688H288.241V53.952H289.953V60.736L293.041 57.824H295.249L291.025 61.808L295.649 66.688ZM310.428 66.752H308.7V61.424H303.788V66.752H302.044V54.816H303.788V59.792H308.7V54.816H310.428V66.752ZM320.005 62.992H314.613C314.645 63.76 314.853 64.3573 315.237 64.784C315.632 65.2427 316.176 65.472 316.869 65.472C317.829 65.472 318.677 65.264 319.413 64.848V66.464C318.56 66.784 317.696 66.944 316.821 66.944C315.445 66.944 314.421 66.5067 313.749 65.632C313.162 64.8533 312.869 63.7653 312.869 62.368C312.869 61.024 313.194 59.9307 313.845 59.088C314.496 58.2453 315.37 57.824 316.469 57.824C317.696 57.824 318.613 58.2613 319.221 59.136C319.744 59.8827 320.005 60.8693 320.005 62.096V62.992ZM318.261 61.472C318.261 60.8747 318.106 60.3733 317.797 59.968C317.477 59.5413 317.056 59.328 316.533 59.328C316 59.328 315.546 59.5467 315.173 59.984C314.8 60.4213 314.613 60.9173 314.613 61.472H318.261ZM326.244 59.6C326.105 59.5787 325.977 59.5627 325.86 59.552C325.743 59.5307 325.625 59.52 325.508 59.52C324.889 59.52 324.431 59.824 324.132 60.432C323.855 60.9653 323.716 61.6267 323.716 62.416V66.752H322.004V60.16C322.004 59.7547 321.993 59.376 321.972 59.024C321.961 58.6613 321.945 58.3253 321.924 58.016H323.652V59.088C324.143 58.2453 324.767 57.824 325.524 57.824C325.759 57.824 325.999 57.856 326.244 57.92V59.6ZM334.536 62.992H329.144C329.176 63.76 329.384 64.3573 329.768 64.784C330.163 65.2427 330.707 65.472 331.4 65.472C332.36 65.472 333.208 65.264 333.944 64.848V66.464C333.091 66.784 332.227 66.944 331.352 66.944C329.976 66.944 328.952 66.5067 328.28 65.632C327.694 64.8533 327.4 63.7653 327.4 62.368C327.4 61.024 327.726 59.9307 328.376 59.088C329.027 58.2453 329.902 57.824 331 57.824C332.227 57.824 333.144 58.2613 333.752 59.136C334.275 59.8827 334.536 60.8693 334.536 62.096V62.992ZM332.792 61.472C332.792 60.8747 332.638 60.3733 332.328 59.968C332.008 59.5413 331.587 59.328 331.064 59.328C330.531 59.328 330.078 59.5467 329.704 59.984C329.331 60.4213 329.144 60.9173 329.144 61.472H332.792ZM342.971 65.04H343.771C345.606 65.04 346.523 64.432 346.523 63.216C346.523 62.4373 346.209 61.9093 345.579 61.632C345.163 61.4507 344.502 61.36 343.595 61.36H342.971V65.04ZM343.003 59.712H343.883C345.419 59.712 346.187 59.136 346.187 57.984C346.187 56.9813 345.51 56.48 344.155 56.48H343.003V59.712ZM341.259 54.848H344.155C346.641 54.848 347.883 55.8507 347.883 57.856C347.883 59.1893 347.233 60.0587 345.931 60.464C346.635 60.6667 347.19 61.008 347.595 61.488C348.022 61.9787 348.235 62.56 348.235 63.232C348.235 65.536 346.737 66.688 343.739 66.688H341.259V54.848ZM356.227 66.768V65.888C355.651 66.592 354.893 66.944 353.955 66.944C352.909 66.944 352.115 66.6293 351.571 66C351.091 65.4133 350.851 64.624 350.851 63.632V58.032H352.563V63.312C352.563 64.7307 353.08 65.44 354.115 65.44C354.808 65.44 355.336 65.1787 355.699 64.656C355.987 64.2293 356.131 63.648 356.131 62.912V58.032H357.827V64.56C357.827 65.3493 357.859 66.0853 357.923 66.768H356.227ZM363.898 59.2C363.172 59.2 362.634 59.5253 362.282 60.176C361.983 60.7093 361.834 61.4347 361.834 62.352C361.834 64.3893 362.522 65.408 363.898 65.408C364.559 65.408 365.082 65.0773 365.466 64.416C365.775 63.8507 365.93 63.1467 365.93 62.304C365.93 61.4613 365.775 60.7573 365.466 60.192C365.092 59.5307 364.57 59.2 363.898 59.2ZM367.546 66.768H365.93V65.968C365.396 66.6293 364.666 66.96 363.738 66.96C362.575 66.96 361.674 66.528 361.034 65.664C360.436 64.8213 360.138 63.7173 360.138 62.352C360.138 60.944 360.415 59.8347 360.97 59.024C361.578 58.1173 362.5 57.664 363.738 57.664C364.591 57.664 365.322 58.016 365.93 58.72V53.92H367.546V66.768ZM373.601 59.2C372.876 59.2 372.337 59.5253 371.985 60.176C371.686 60.7093 371.537 61.4347 371.537 62.352C371.537 64.3893 372.225 65.408 373.601 65.408C374.262 65.408 374.785 65.0773 375.169 64.416C375.478 63.8507 375.633 63.1467 375.633 62.304C375.633 61.4613 375.478 60.7573 375.169 60.192C374.796 59.5307 374.273 59.2 373.601 59.2ZM377.249 66.768H375.633V65.968C375.1 66.6293 374.369 66.96 373.441 66.96C372.278 66.96 371.377 66.528 370.737 65.664C370.14 64.8213 369.841 63.7173 369.841 62.352C369.841 60.944 370.118 59.8347 370.673 59.024C371.281 58.1173 372.204 57.664 373.441 57.664C374.294 57.664 375.025 58.016 375.633 58.72V53.92H377.249V66.768ZM386.296 58.032L383.128 66.88C382.861 67.6267 382.584 68.144 382.296 68.432C381.944 68.8267 381.475 69.0293 380.888 69.04H380.728C380.323 69.04 379.907 68.9867 379.48 68.88L379.656 67.28C380.029 67.4187 380.333 67.488 380.568 67.488C380.589 67.488 380.632 67.4827 380.696 67.472C380.771 67.472 380.867 67.4667 380.984 67.456C381.229 67.4347 381.453 67.0773 381.656 66.384L381.784 65.968L378.888 58.032H380.648L382.584 63.872L384.6 58.032H386.296ZM390.843 66.736H389.019V64.976H390.843V66.736ZM390.827 54.656L390.635 63.952H389.227L389.003 54.656H390.827Z" fill="#FED385"/>
<path d="M269.222 66.4L269.706 67.2749L270.268 66.9638L270.219 66.3233L269.222 66.4ZM262.054 65.232L261.33 65.9218L261.335 65.9271L261.34 65.9322L262.054 65.232ZM262.086 56.336L261.368 55.6391L261.368 55.6391L262.086 56.336ZM269.222 55.072L270.219 55.1502L270.271 54.4842L269.676 54.181L269.222 55.072ZM269.094 56.704L268.725 57.6334L269.985 58.1337L270.091 56.7822L269.094 56.704ZM263.334 57.52L264.068 58.1983L264.068 58.1983L263.334 57.52ZM263.302 64.032L264.037 63.3541L264.028 63.3448L263.302 64.032ZM269.094 64.736L270.091 64.6593L269.973 63.1349L268.624 63.8533L269.094 64.736ZM268.737 65.5251C268.367 65.7298 267.644 65.896 266.422 65.896V67.896C267.738 67.896 268.881 67.7315 269.706 67.2749L268.737 65.5251ZM266.422 65.896C264.816 65.896 263.635 65.4161 262.768 64.5318L261.34 65.9322C262.648 67.2666 264.379 67.896 266.422 67.896V65.896ZM262.778 64.5422C261.909 63.6306 261.438 62.4063 261.438 60.768H259.438C259.438 62.8204 260.043 64.572 261.33 65.9218L262.778 64.5422ZM261.438 60.768C261.438 59.1602 261.914 57.9476 262.803 57.0329L261.368 55.6391C260.06 56.9858 259.438 58.7278 259.438 60.768H261.438ZM262.803 57.0329C263.687 56.1232 264.859 55.64 266.422 55.64V53.64C264.4 53.64 262.682 54.2875 261.368 55.6391L262.803 57.0329ZM266.422 55.64C267.698 55.64 268.426 55.7891 268.768 55.963L269.676 54.181C268.886 53.7789 267.748 53.64 266.422 53.64V55.64ZM268.225 54.9938L268.097 56.6258L270.091 56.7822L270.219 55.1502L268.225 54.9938ZM269.463 55.7746C268.586 55.4267 267.562 55.272 266.422 55.272V57.272C267.393 57.272 268.15 57.4053 268.725 57.6334L269.463 55.7746ZM266.422 55.272C264.895 55.272 263.583 55.775 262.599 56.8417L264.068 58.1983C264.62 57.601 265.367 57.272 266.422 57.272V55.272ZM262.599 56.8417C261.631 57.8906 261.182 59.2308 261.182 60.768H263.182C263.182 59.6386 263.501 58.8134 264.068 58.1983L262.599 56.8417ZM261.182 60.768C261.182 62.3368 261.608 63.6969 262.575 64.7192L264.028 63.3448C263.502 62.7884 263.182 61.9725 263.182 60.768H261.182ZM262.566 64.7099C263.548 65.7743 264.876 66.264 266.422 66.264V64.264C265.322 64.264 264.57 63.9323 264.037 63.3541L262.566 64.7099ZM266.422 66.264C267.631 66.264 268.703 66.0765 269.563 65.6187L268.624 63.8533C268.161 64.0995 267.452 64.264 266.422 64.264V66.264ZM268.097 64.8127L268.225 66.4767L270.219 66.3233L270.091 64.6593L268.097 64.8127ZM273.919 66.688V67.688H274.919V66.688H273.919ZM272.175 66.688H271.175V67.688H272.175V66.688ZM272.175 53.952V52.952H271.175V53.952H272.175ZM273.919 53.952H274.919V52.952H273.919V53.952ZM273.919 65.688H272.175V67.688H273.919V65.688ZM273.175 66.688V53.952H271.175V66.688H273.175ZM272.175 54.952H273.919V52.952H272.175V54.952ZM272.919 53.952V66.688H274.919V53.952H272.919ZM277.983 66.752V67.752H278.983V66.752H277.983ZM276.271 66.752H275.271V67.752H276.271V66.752ZM276.271 57.792V56.792H275.271V57.792H276.271ZM277.983 57.792H278.983V56.792H277.983V57.792ZM277.983 56.256V57.256H278.983V56.256H277.983ZM276.271 56.256H275.271V57.256H276.271V56.256ZM276.271 54.256V53.256H275.271V54.256H276.271ZM277.983 54.256H278.983V53.256H277.983V54.256ZM277.983 65.752H276.271V67.752H277.983V65.752ZM277.271 66.752V57.792H275.271V66.752H277.271ZM276.271 58.792H277.983V56.792H276.271V58.792ZM276.983 57.792V66.752H278.983V57.792H276.983ZM277.983 55.256H276.271V57.256H277.983V55.256ZM277.271 56.256V54.256H275.271V56.256H277.271ZM276.271 55.256H277.983V53.256H276.271V55.256ZM276.983 54.256V56.256H278.983V54.256H276.983ZM286.379 66.608L286.685 67.56L287.439 67.3177L287.376 66.5283L286.379 66.608ZM280.987 65.52L281.758 64.8833L281.756 64.8808L280.987 65.52ZM281.147 59.12L280.422 58.4314L280.413 58.441L281.147 59.12ZM286.379 58.192L287.375 58.2742L287.44 57.4955L286.7 57.2449L286.379 58.192ZM286.251 59.744L285.874 60.6703L287.136 61.1834L287.247 59.8262L286.251 59.744ZM282.331 60.192L281.567 59.5461L281.566 59.5474L282.331 60.192ZM282.347 64.528L283.129 63.9051L283.128 63.9033L282.347 64.528ZM286.251 65.008L287.248 64.9283L287.142 63.6128L285.904 64.0699L286.251 65.008ZM286.073 65.656C285.61 65.8049 284.96 65.896 284.091 65.896V67.896C285.078 67.896 285.953 67.7951 286.685 67.56L286.073 65.656ZM284.091 65.896C283.042 65.896 282.304 65.545 281.758 64.8834L280.216 66.1566C281.184 67.3296 282.515 67.896 284.091 67.896V65.896ZM281.756 64.8808C281.251 64.273 280.963 63.4628 280.963 62.368H278.963C278.963 63.8332 279.358 65.1244 280.218 66.1592L281.756 64.8808ZM280.963 62.368C280.963 61.2728 281.285 60.4434 281.881 59.799L280.413 58.441C279.43 59.5032 278.963 60.8392 278.963 62.368H280.963ZM281.872 59.8085C282.474 59.1749 283.215 58.856 284.171 58.856V56.856C282.695 56.856 281.42 57.3798 280.422 58.4315L281.872 59.8085ZM284.171 58.856C284.89 58.856 285.515 58.9553 286.058 59.1391L286.7 57.2449C285.92 56.9807 285.073 56.856 284.171 56.856V58.856ZM285.382 58.1098L285.254 59.6618L287.247 59.8262L287.375 58.2742L285.382 58.1098ZM286.628 58.8177C285.878 58.5128 285.094 58.36 284.283 58.36V60.36C284.837 60.36 285.365 60.4632 285.874 60.6703L286.628 58.8177ZM284.283 58.36C283.204 58.36 282.256 58.7329 281.567 59.5461L283.094 60.8379C283.345 60.5418 283.697 60.36 284.283 60.36V58.36ZM281.566 59.5474C280.918 60.3166 280.643 61.2916 280.643 62.368H282.643C282.643 61.631 282.827 61.1554 283.095 60.8366L281.566 59.5474ZM280.643 62.368C280.643 63.4159 280.936 64.3649 281.566 65.1527L283.128 63.9033C282.819 63.5178 282.643 63.0268 282.643 62.368H280.643ZM281.565 65.1509C282.219 65.973 283.119 66.392 284.171 66.392V64.392C283.708 64.392 283.392 64.235 283.129 63.9051L281.565 65.1509ZM284.171 66.392C284.99 66.392 285.8 66.2403 286.597 65.9461L285.904 64.0699C285.315 64.2877 284.738 64.392 284.171 64.392V66.392ZM285.254 65.0877L285.382 66.6877L287.376 66.5283L287.248 64.9283L285.254 65.0877ZM295.649 66.688V67.688H297.974L296.375 66.0002L295.649 66.688ZM293.409 66.688L292.678 67.371L292.975 67.688H293.409V66.688ZM289.953 62.992L290.683 62.309L288.953 60.4584V62.992H289.953ZM289.953 66.688V67.688H290.953V66.688H289.953ZM288.241 66.688H287.241V67.688H288.241V66.688ZM288.241 53.952V52.952H287.241V53.952H288.241ZM289.953 53.952H290.953V52.952H289.953V53.952ZM289.953 60.736H288.953V63.0535L290.639 61.4635L289.953 60.736ZM293.041 57.824V56.824H292.644L292.355 57.0965L293.041 57.824ZM295.249 57.824L295.935 58.5515L297.767 56.824H295.249V57.824ZM291.025 61.808L290.339 61.0805L289.61 61.7682L290.299 62.4958L291.025 61.808ZM295.649 65.688H293.409V67.688H295.649V65.688ZM294.139 66.005L290.683 62.309L289.222 63.675L292.678 67.371L294.139 66.005ZM288.953 62.992V66.688H290.953V62.992H288.953ZM289.953 65.688H288.241V67.688H289.953V65.688ZM289.241 66.688V53.952H287.241V66.688H289.241ZM288.241 54.952H289.953V52.952H288.241V54.952ZM288.953 53.952V60.736H290.953V53.952H288.953ZM290.639 61.4635L293.727 58.5515L292.355 57.0965L289.267 60.0085L290.639 61.4635ZM293.041 58.824H295.249V56.824H293.041V58.824ZM294.563 57.0965L290.339 61.0805L291.711 62.5355L295.935 58.5515L294.563 57.0965ZM290.299 62.4958L294.923 67.3758L296.375 66.0002L291.751 61.1202L290.299 62.4958ZM310.428 66.752V67.752H311.428V66.752H310.428ZM308.7 66.752H307.7V67.752H308.7V66.752ZM308.7 61.424H309.7V60.424H308.7V61.424ZM303.788 61.424V60.424H302.788V61.424H303.788ZM303.788 66.752V67.752H304.788V66.752H303.788ZM302.044 66.752H301.044V67.752H302.044V66.752ZM302.044 54.816V53.816H301.044V54.816H302.044ZM303.788 54.816H304.788V53.816H303.788V54.816ZM303.788 59.792H302.788V60.792H303.788V59.792ZM308.7 59.792V60.792H309.7V59.792H308.7ZM308.7 54.816V53.816H307.7V54.816H308.7ZM310.428 54.816H311.428V53.816H310.428V54.816ZM310.428 65.752H308.7V67.752H310.428V65.752ZM309.7 66.752V61.424H307.7V66.752H309.7ZM308.7 60.424H303.788V62.424H308.7V60.424ZM302.788 61.424V66.752H304.788V61.424H302.788ZM303.788 65.752H302.044V67.752H303.788V65.752ZM303.044 66.752V54.816H301.044V66.752H303.044ZM302.044 55.816H303.788V53.816H302.044V55.816ZM302.788 54.816V59.792H304.788V54.816H302.788ZM303.788 60.792H308.7V58.792H303.788V60.792ZM309.7 59.792V54.816H307.7V59.792H309.7ZM308.7 55.816H310.428V53.816H308.7V55.816ZM309.428 54.816V66.752H311.428V54.816H309.428ZM320.005 62.992V63.992H321.005V62.992H320.005ZM314.613 62.992V61.992H313.571L313.614 63.0336L314.613 62.992ZM315.237 64.784L315.995 64.1318L315.988 64.1233L315.98 64.115L315.237 64.784ZM319.413 64.848H320.413V63.1341L318.921 63.9774L319.413 64.848ZM319.413 66.464L319.764 67.4003L320.413 67.157V66.464H319.413ZM313.749 65.632L312.95 66.2338L312.956 66.2412L313.749 65.632ZM313.845 59.088L314.637 59.6992L314.637 59.6992L313.845 59.088ZM319.221 59.136L318.4 59.7068L318.402 59.7095L319.221 59.136ZM318.261 61.472V62.472H319.261V61.472H318.261ZM317.797 59.968L316.997 60.568L317.002 60.5747L317.797 59.968ZM315.173 59.984L315.934 60.6333L315.934 60.6333L315.173 59.984ZM314.613 61.472H313.613V62.472H314.613V61.472ZM320.005 61.992H314.613V63.992H320.005V61.992ZM313.614 63.0336C313.652 63.955 313.908 64.8024 314.494 65.453L315.98 64.115C315.798 63.9123 315.638 63.565 315.612 62.9504L313.614 63.0336ZM314.479 65.4362C315.093 66.1492 315.932 66.472 316.869 66.472V64.472C316.42 64.472 316.171 64.3362 315.995 64.1318L314.479 65.4362ZM316.869 66.472C317.978 66.472 319 66.2304 319.905 65.7186L318.921 63.9774C318.355 64.2976 317.68 64.472 316.869 64.472V66.472ZM318.413 64.848V66.464H320.413V64.848H318.413ZM319.062 65.5277C318.316 65.8074 317.571 65.944 316.821 65.944V67.944C317.821 67.944 318.803 67.7606 319.764 67.4003L319.062 65.5277ZM316.821 65.944C315.671 65.944 314.978 65.5907 314.542 65.0228L312.956 66.2412C313.864 67.4226 315.219 67.944 316.821 67.944V65.944ZM314.548 65.0303C314.138 64.4858 313.869 63.6393 313.869 62.368H311.869C311.869 63.8914 312.187 65.2208 312.95 66.2337L314.548 65.0303ZM313.869 62.368C313.869 61.1862 314.153 60.3252 314.637 59.6992L313.054 58.4768C312.236 59.5361 311.869 60.8618 311.869 62.368H313.869ZM314.637 59.6992C315.091 59.1107 315.669 58.824 316.469 58.824V56.824C315.072 56.824 313.901 57.3799 313.054 58.4768L314.637 59.6992ZM316.469 58.824C317.426 58.824 318.009 59.1449 318.4 59.7068L320.042 58.5652C319.217 57.3778 317.966 56.824 316.469 56.824V58.824ZM318.402 59.7095C318.772 60.2388 319.005 61.0048 319.005 62.096H321.005C321.005 60.7338 320.715 59.5265 320.04 58.5625L318.402 59.7095ZM319.005 62.096V62.992H321.005V62.096H319.005ZM319.261 61.472C319.261 60.6945 319.056 59.9696 318.592 59.3613L317.002 60.5747C317.157 60.777 317.261 61.0549 317.261 61.472H319.261ZM318.597 59.368C318.093 58.6956 317.378 58.328 316.533 58.328V60.328C316.734 60.328 316.861 60.3871 316.997 60.568L318.597 59.368ZM316.533 58.328C315.682 58.328 314.959 58.6946 314.413 59.3347L315.934 60.6333C316.134 60.3988 316.317 60.328 316.533 60.328V58.328ZM314.413 59.3347C313.891 59.9459 313.613 60.67 313.613 61.472H315.613C315.613 61.1647 315.709 60.8968 315.934 60.6333L314.413 59.3347ZM314.613 62.472H318.261V60.472H314.613V62.472ZM326.244 59.6L326.092 60.5884L327.244 60.7656V59.6H326.244ZM325.86 59.552L325.681 60.5359L325.725 60.5439L325.769 60.5479L325.86 59.552ZM324.132 60.432L325.019 60.8934L325.024 60.8832L325.029 60.8729L324.132 60.432ZM323.716 66.752V67.752H324.716V66.752H323.716ZM322.004 66.752H321.004V67.752H322.004V66.752ZM321.972 59.024L320.972 59.0534L320.973 59.069L320.974 59.0845L321.972 59.024ZM321.924 58.016V57.016H320.853L320.926 58.0848L321.924 58.016ZM323.652 58.016H324.652V57.016H323.652V58.016ZM323.652 59.088H322.652V62.7927L324.516 59.5912L323.652 59.088ZM326.244 57.92H327.244V57.1474L326.496 56.9524L326.244 57.92ZM326.396 58.6116C326.241 58.5877 326.092 58.569 325.95 58.5561L325.769 60.5479C325.863 60.5564 325.97 60.5696 326.092 60.5884L326.396 58.6116ZM326.039 58.5681C325.863 58.5362 325.686 58.52 325.508 58.52V60.52C325.564 60.52 325.622 60.5251 325.681 60.5359L326.039 58.5681ZM325.508 58.52C325.027 58.52 324.56 58.6407 324.147 58.9145C323.74 59.1847 323.444 59.5645 323.234 59.9911L325.029 60.8729C325.119 60.6915 325.201 60.6153 325.252 60.5815C325.298 60.5513 325.37 60.52 325.508 60.52V58.52ZM323.245 59.9706C322.874 60.684 322.716 61.5145 322.716 62.416H324.716C324.716 61.7388 324.835 61.2466 325.019 60.8934L323.245 59.9706ZM322.716 62.416V66.752H324.716V62.416H322.716ZM323.716 65.752H322.004V67.752H323.716V65.752ZM323.004 66.752V60.16H321.004V66.752H323.004ZM323.004 60.16C323.004 59.7374 322.993 59.3384 322.97 58.9635L320.974 59.0845C320.994 59.4136 321.004 59.7719 321.004 60.16H323.004ZM322.971 58.9946C322.96 58.6209 322.944 58.2716 322.921 57.9472L320.926 58.0848C320.947 58.379 320.962 58.7017 320.972 59.0534L322.971 58.9946ZM321.924 59.016H323.652V57.016H321.924V59.016ZM322.652 58.016V59.088H324.652V58.016H322.652ZM324.516 59.5912C324.887 58.9543 325.226 58.824 325.524 58.824V56.824C324.307 56.824 323.398 57.5364 322.788 58.5848L324.516 59.5912ZM325.524 58.824C325.667 58.824 325.822 58.8434 325.991 58.8876L326.496 56.9524C326.175 56.8686 325.85 56.824 325.524 56.824V58.824ZM325.244 57.92V59.6H327.244V57.92H325.244ZM334.536 62.992V63.992H335.536V62.992H334.536ZM329.144 62.992V61.992H328.102L328.145 63.0336L329.144 62.992ZM329.768 64.784L330.526 64.1318L330.519 64.1233L330.512 64.115L329.768 64.784ZM333.944 64.848H334.944V63.1341L333.452 63.9774L333.944 64.848ZM333.944 66.464L334.295 67.4003L334.944 67.157V66.464H333.944ZM328.28 65.632L327.482 66.2338L327.487 66.2412L328.28 65.632ZM328.376 59.088L329.168 59.6992L329.168 59.6992L328.376 59.088ZM333.752 59.136L332.931 59.7068L332.933 59.7095L333.752 59.136ZM332.792 61.472V62.472H333.792V61.472H332.792ZM332.328 59.968L331.528 60.568L331.533 60.5747L332.328 59.968ZM329.704 59.984L330.465 60.6333L330.465 60.6333L329.704 59.984ZM329.144 61.472H328.144V62.472H329.144V61.472ZM334.536 61.992H329.144V63.992H334.536V61.992ZM328.145 63.0336C328.184 63.955 328.44 64.8024 329.025 65.453L330.512 64.115C330.329 63.9123 330.169 63.565 330.143 62.9504L328.145 63.0336ZM329.01 65.4362C329.624 66.1492 330.463 66.472 331.4 66.472V64.472C330.951 64.472 330.702 64.3362 330.526 64.1318L329.01 65.4362ZM331.4 66.472C332.509 66.472 333.531 66.2304 334.436 65.7186L333.452 63.9774C332.886 64.2976 332.212 64.472 331.4 64.472V66.472ZM332.944 64.848V66.464H334.944V64.848H332.944ZM333.593 65.5277C332.847 65.8074 332.102 65.944 331.352 65.944V67.944C332.352 67.944 333.335 67.7606 334.295 67.4003L333.593 65.5277ZM331.352 65.944C330.202 65.944 329.51 65.5907 329.073 65.0228L327.487 66.2412C328.395 67.4226 329.751 67.944 331.352 67.944V65.944ZM329.079 65.0303C328.669 64.4858 328.4 63.6393 328.4 62.368H326.4C326.4 63.8914 326.719 65.2208 327.482 66.2337L329.079 65.0303ZM328.4 62.368C328.4 61.1862 328.684 60.3252 329.168 59.6992L327.585 58.4768C326.767 59.5361 326.4 60.8618 326.4 62.368H328.4ZM329.168 59.6992C329.622 59.1107 330.2 58.824 331 58.824V56.824C329.603 56.824 328.432 57.3799 327.585 58.4768L329.168 59.6992ZM331 58.824C331.957 58.824 332.541 59.1449 332.931 59.7068L334.573 58.5652C333.748 57.3778 332.497 56.824 331 56.824V58.824ZM332.933 59.7095C333.304 60.2388 333.536 61.0048 333.536 62.096H335.536C335.536 60.7338 335.246 59.5265 334.572 58.5625L332.933 59.7095ZM333.536 62.096V62.992H335.536V62.096H333.536ZM333.792 61.472C333.792 60.6945 333.588 59.9696 333.123 59.3613L331.533 60.5747C331.688 60.777 331.792 61.0549 331.792 61.472H333.792ZM333.128 59.368C332.624 58.6956 331.909 58.328 331.064 58.328V60.328C331.265 60.328 331.393 60.3871 331.528 60.568L333.128 59.368ZM331.064 58.328C330.213 58.328 329.49 58.6946 328.944 59.3347L330.465 60.6333C330.665 60.3988 330.849 60.328 331.064 60.328V58.328ZM328.944 59.3347C328.422 59.9459 328.144 60.67 328.144 61.472H330.144C330.144 61.1647 330.24 60.8968 330.465 60.6333L328.944 59.3347ZM329.144 62.472H332.792V60.472H329.144V62.472ZM342.971 65.04H341.971V66.04H342.971V65.04ZM345.579 61.632L345.983 60.7169L345.979 60.7153L345.579 61.632ZM342.971 61.36V60.36H341.971V61.36H342.971ZM343.003 59.712H342.003V60.712H343.003V59.712ZM343.003 56.48V55.48H342.003V56.48H343.003ZM341.259 54.848V53.848H340.259V54.848H341.259ZM345.931 60.464L345.634 59.5092L342.448 60.5017L345.655 61.425L345.931 60.464ZM347.595 61.488L346.831 62.1332L346.836 62.1387L346.841 62.1442L347.595 61.488ZM341.259 66.688H340.259V67.688H341.259V66.688ZM342.971 66.04H343.771V64.04H342.971V66.04ZM343.771 66.04C344.768 66.04 345.689 65.8807 346.388 65.4175C347.159 64.9065 347.523 64.1178 347.523 63.216H345.523C345.523 63.5302 345.429 63.6535 345.283 63.7505C345.064 63.8953 344.61 64.04 343.771 64.04V66.04ZM347.523 63.216C347.523 62.6939 347.418 62.1791 347.146 61.7241C346.87 61.2607 346.464 60.929 345.983 60.7169L345.176 62.5471C345.324 62.6124 345.39 62.6833 345.428 62.7479C345.472 62.8209 345.523 62.9595 345.523 63.216H347.523ZM345.979 60.7153C345.365 60.4476 344.53 60.36 343.595 60.36V62.36C344.475 62.36 344.962 62.4537 345.18 62.5487L345.979 60.7153ZM343.595 60.36H342.971V62.36H343.595V60.36ZM341.971 61.36V65.04H343.971V61.36H341.971ZM343.003 60.712H343.883V58.712H343.003V60.712ZM343.883 60.712C344.748 60.712 345.578 60.555 346.211 60.08C346.899 59.5644 347.187 58.804 347.187 57.984H345.187C345.187 58.316 345.092 58.4196 345.011 58.48C344.877 58.581 344.555 58.712 343.883 58.712V60.712ZM347.187 57.984C347.187 57.2337 346.918 56.5286 346.274 56.0522C345.687 55.6176 344.927 55.48 344.155 55.48V57.48C344.739 57.48 344.994 57.5931 345.085 57.6598C345.119 57.6856 345.136 57.7081 345.149 57.7366C345.164 57.7708 345.187 57.845 345.187 57.984H347.187ZM344.155 55.48H343.003V57.48H344.155V55.48ZM342.003 56.48V59.712H344.003V56.48H342.003ZM341.259 55.848H344.155V53.848H341.259V55.848ZM344.155 55.848C345.29 55.848 345.955 56.0811 346.324 56.3783C346.651 56.6423 346.883 57.0711 346.883 57.856H348.883C348.883 56.6356 348.495 55.5603 347.579 54.8217C346.705 54.1163 345.506 53.848 344.155 53.848V55.848ZM346.883 57.856C346.883 58.3569 346.764 58.6834 346.595 58.9088C346.425 59.1362 346.136 59.353 345.634 59.5092L346.229 61.4188C347.029 61.1696 347.716 60.7492 348.196 60.1072C348.678 59.4633 348.883 58.6884 348.883 57.856H346.883ZM345.655 61.425C346.201 61.5822 346.574 61.8282 346.831 62.1332L348.36 60.8428C347.806 60.1878 347.07 59.7511 346.208 59.503L345.655 61.425ZM346.841 62.1442C347.104 62.4463 347.235 62.7923 347.235 63.232H349.235C349.235 62.3277 348.941 61.511 348.35 60.8318L346.841 62.1442ZM347.235 63.232C347.235 64.1491 346.951 64.6862 346.502 65.0312C346.003 65.4144 345.138 65.688 343.739 65.688V67.688C345.338 67.688 346.721 67.3856 347.721 66.6168C348.771 65.8098 349.235 64.6189 349.235 63.232H347.235ZM343.739 65.688H341.259V67.688H343.739V65.688ZM342.259 66.688V54.848H340.259V66.688H342.259ZM356.227 66.768H355.227V67.768H356.227V66.768ZM356.227 65.888H357.227V63.0866L355.453 65.2548L356.227 65.888ZM351.571 66L350.797 66.6332L350.805 66.6437L350.814 66.654L351.571 66ZM350.851 58.032V57.032H349.851V58.032H350.851ZM352.563 58.032H353.563V57.032H352.563V58.032ZM355.699 64.656L356.52 65.2261L356.527 65.2155L355.699 64.656ZM356.131 58.032V57.032H355.131V58.032H356.131ZM357.827 58.032H358.827V57.032H357.827V58.032ZM357.923 66.768V67.768H359.021L358.918 66.6747L357.923 66.768ZM357.227 66.768V65.888H355.227V66.768H357.227ZM355.453 65.2548C355.073 65.7182 354.604 65.944 353.955 65.944V67.944C355.182 67.944 356.228 67.4658 357.001 66.5212L355.453 65.2548ZM353.955 65.944C353.119 65.944 352.634 65.7013 352.327 65.346L350.814 66.654C351.595 67.5574 352.699 67.944 353.955 67.944V65.944ZM352.345 65.3668C352.051 65.0075 351.851 64.4652 351.851 63.632H349.851C349.851 64.7828 350.131 65.8192 350.797 66.6332L352.345 65.3668ZM351.851 63.632V58.032H349.851V63.632H351.851ZM350.851 59.032H352.563V57.032H350.851V59.032ZM351.563 58.032V63.312H353.563V58.032H351.563ZM351.563 63.312C351.563 64.1132 351.703 64.895 352.143 65.4973C352.625 66.1583 353.343 66.44 354.115 66.44V64.44C353.852 64.44 353.794 64.3671 353.759 64.3187C353.68 64.2117 353.563 63.9294 353.563 63.312H351.563ZM354.115 66.44C355.101 66.44 355.952 66.0453 356.52 65.2261L354.877 64.0859C354.72 64.3121 354.515 64.44 354.115 64.44V66.44ZM356.527 65.2155C356.965 64.5666 357.131 63.7654 357.131 62.912H355.131C355.131 63.5306 355.008 63.892 354.87 64.0965L356.527 65.2155ZM357.131 62.912V58.032H355.131V62.912H357.131ZM356.131 59.032H357.827V57.032H356.131V59.032ZM356.827 58.032V64.56H358.827V58.032H356.827ZM356.827 64.56C356.827 65.376 356.86 66.1434 356.927 66.8613L358.918 66.6747C358.858 66.0272 358.827 65.3227 358.827 64.56H356.827ZM357.923 65.768H356.227V67.768H357.923V65.768ZM362.282 60.176L363.154 60.6646L363.158 60.6582L363.161 60.6518L362.282 60.176ZM365.466 64.416L366.331 64.9181L366.337 64.9072L366.343 64.896L365.466 64.416ZM365.466 60.192L366.343 59.7119L366.337 59.7004L365.466 60.192ZM367.546 66.768V67.768H368.546V66.768H367.546ZM365.93 66.768H364.93V67.768H365.93V66.768ZM365.93 65.968H366.93V63.135L365.151 65.3402L365.93 65.968ZM361.034 65.664L360.218 66.2423L360.224 66.2508L360.23 66.2592L361.034 65.664ZM360.97 59.024L361.795 59.5887L361.8 59.581L360.97 59.024ZM365.93 58.72L365.173 59.3736L366.93 61.4078V58.72H365.93ZM365.93 53.92V52.92H364.93V53.92H365.93ZM367.546 53.92H368.546V52.92H367.546V53.92ZM363.898 58.2C363.381 58.2 362.881 58.3175 362.433 58.588C361.986 58.8579 361.648 59.2458 361.402 59.7002L363.161 60.6518C363.267 60.4555 363.375 60.3555 363.467 60.3C363.557 60.2452 363.689 60.2 363.898 60.2V58.2ZM361.409 59.6874C360.995 60.4265 360.834 61.3427 360.834 62.352H362.834C362.834 61.5267 362.971 60.9922 363.154 60.6646L361.409 59.6874ZM360.834 62.352C360.834 63.4519 361.014 64.4526 361.521 65.2037C362.076 66.0247 362.924 66.408 363.898 66.408V64.408C363.496 64.408 363.312 64.2819 363.178 64.0843C362.998 63.8167 362.834 63.2895 362.834 62.352H360.834ZM363.898 66.408C364.977 66.408 365.801 65.8302 366.331 64.9181L364.601 63.9139C364.362 64.3245 364.141 64.408 363.898 64.408V66.408ZM366.343 64.896C366.754 64.1451 366.93 63.2644 366.93 62.304H364.93C364.93 63.0289 364.796 63.5562 364.588 63.936L366.343 64.896ZM366.93 62.304C366.93 61.3436 366.754 60.4629 366.343 59.712L364.588 60.672C364.796 61.0518 364.93 61.5791 364.93 62.304H366.93ZM366.337 59.7004C365.814 58.7743 364.984 58.2 363.898 58.2V60.2C364.156 60.2 364.371 60.287 364.595 60.6836L366.337 59.7004ZM367.546 65.768H365.93V67.768H367.546V65.768ZM366.93 66.768V65.968H364.93V66.768H366.93ZM365.151 65.3402C364.827 65.7425 364.395 65.96 363.738 65.96V67.96C364.936 67.96 365.966 67.5162 366.708 66.5958L365.151 65.3402ZM363.738 65.96C362.862 65.96 362.272 65.655 361.837 65.0688L360.23 66.2592C361.076 67.401 362.288 67.96 363.738 67.96V65.96ZM361.85 65.0857C361.405 64.4589 361.138 63.5761 361.138 62.352H359.138C359.138 63.8585 359.468 65.1837 360.218 66.2423L361.85 65.0857ZM361.138 62.352C361.138 61.0619 361.394 60.1753 361.795 59.5887L360.144 58.4593C359.436 59.494 359.138 60.8261 359.138 62.352H361.138ZM361.8 59.581C362.195 58.9917 362.782 58.664 363.738 58.664V56.664C362.219 56.664 360.96 57.2429 360.139 58.467L361.8 59.581ZM363.738 58.664C364.272 58.664 364.736 58.8672 365.173 59.3736L366.687 58.0664C365.908 57.1648 364.91 56.664 363.738 56.664V58.664ZM366.93 58.72V53.92H364.93V58.72H366.93ZM365.93 54.92H367.546V52.92H365.93V54.92ZM366.546 53.92V66.768H368.546V53.92H366.546ZM371.985 60.176L372.857 60.6646L372.861 60.6582L372.864 60.6518L371.985 60.176ZM375.169 64.416L376.034 64.9181L376.04 64.9072L376.046 64.896L375.169 64.416ZM375.169 60.192L376.046 59.7119L376.04 59.7004L375.169 60.192ZM377.249 66.768V67.768H378.249V66.768H377.249ZM375.633 66.768H374.633V67.768H375.633V66.768ZM375.633 65.968H376.633V63.135L374.854 65.3402L375.633 65.968ZM370.737 65.664L369.921 66.2423L369.927 66.2508L369.933 66.2592L370.737 65.664ZM370.673 59.024L371.498 59.5887L371.503 59.581L370.673 59.024ZM375.633 58.72L374.876 59.3736L376.633 61.4078V58.72H375.633ZM375.633 53.92V52.92H374.633V53.92H375.633ZM377.249 53.92H378.249V52.92H377.249V53.92ZM373.601 58.2C373.084 58.2 372.584 58.3175 372.136 58.588C371.689 58.8579 371.351 59.2458 371.105 59.7002L372.864 60.6518C372.971 60.4555 373.078 60.3555 373.17 60.3C373.261 60.2452 373.392 60.2 373.601 60.2V58.2ZM371.112 59.6874C370.698 60.4265 370.537 61.3427 370.537 62.352H372.537C372.537 61.5267 372.674 60.9922 372.857 60.6646L371.112 59.6874ZM370.537 62.352C370.537 63.4519 370.717 64.4526 371.224 65.2037C371.779 66.0247 372.627 66.408 373.601 66.408V64.408C373.199 64.408 373.015 64.2819 372.882 64.0843C372.701 63.8167 372.537 63.2895 372.537 62.352H370.537ZM373.601 66.408C374.68 66.408 375.504 65.8302 376.034 64.9181L374.304 63.9139C374.066 64.3245 373.844 64.408 373.601 64.408V66.408ZM376.046 64.896C376.457 64.1451 376.633 63.2644 376.633 62.304H374.633C374.633 63.0289 374.499 63.5562 374.292 63.936L376.046 64.896ZM376.633 62.304C376.633 61.3436 376.457 60.4629 376.046 59.712L374.292 60.672C374.499 61.0518 374.633 61.5791 374.633 62.304H376.633ZM376.04 59.7004C375.517 58.7743 374.687 58.2 373.601 58.2V60.2C373.859 60.2 374.074 60.287 374.298 60.6836L376.04 59.7004ZM377.249 65.768H375.633V67.768H377.249V65.768ZM376.633 66.768V65.968H374.633V66.768H376.633ZM374.854 65.3402C374.53 65.7425 374.098 65.96 373.441 65.96V67.96C374.639 67.96 375.669 67.5162 376.411 66.5958L374.854 65.3402ZM373.441 65.96C372.565 65.96 371.975 65.655 371.54 65.0688L369.933 66.2592C370.779 67.401 371.991 67.96 373.441 67.96V65.96ZM371.553 65.0857C371.108 64.4589 370.841 63.5761 370.841 62.352H368.841C368.841 63.8585 369.171 65.1837 369.921 66.2423L371.553 65.0857ZM370.841 62.352C370.841 61.0619 371.097 60.1753 371.498 59.5887L369.848 58.4593C369.14 59.494 368.841 60.8261 368.841 62.352H370.841ZM371.503 59.581C371.899 58.9917 372.485 58.664 373.441 58.664V56.664C371.922 56.664 370.663 57.2429 369.842 58.467L371.503 59.581ZM373.441 58.664C373.975 58.664 374.439 58.8672 374.876 59.3736L376.39 58.0664C375.611 57.1648 374.613 56.664 373.441 56.664V58.664ZM376.633 58.72V53.92H374.633V58.72H376.633ZM375.633 54.92H377.249V52.92H375.633V54.92ZM376.249 53.92V66.768H378.249V53.92H376.249ZM386.296 58.032L387.237 58.3691L387.716 57.032H386.296V58.032ZM383.128 66.88L382.186 66.5429L382.186 66.5437L383.128 66.88ZM382.296 68.432L381.589 67.7249L381.569 67.7451L381.55 67.7664L382.296 68.432ZM380.888 69.04V70.04H380.897L380.906 70.0398L380.888 69.04ZM379.48 68.88L378.486 68.7707L378.391 69.6384L379.237 69.8501L379.48 68.88ZM379.656 67.28L380.004 66.3426L378.802 65.8961L378.662 67.1707L379.656 67.28ZM380.696 67.472V66.472H380.613L380.532 66.4856L380.696 67.472ZM380.984 67.456L380.897 66.4598L380.893 66.4601L380.984 67.456ZM381.656 66.384L380.7 66.0899L380.696 66.1034L381.656 66.384ZM381.784 65.968L382.74 66.2621L382.839 65.9409L382.723 65.6252L381.784 65.968ZM378.888 58.032V57.032H377.459L377.949 58.3748L378.888 58.032ZM380.648 58.032L381.597 57.7173L381.37 57.032H380.648V58.032ZM382.584 63.872L381.635 64.1867L382.565 66.9921L383.529 64.1983L382.584 63.872ZM384.6 58.032V57.032H383.887L383.655 57.7057L384.6 58.032ZM385.354 57.6949L382.186 66.5429L384.069 67.2171L387.237 58.3691L385.354 57.6949ZM382.186 66.5437C381.931 67.2585 381.714 67.6 381.589 67.7249L383.003 69.1391C383.454 68.688 383.792 67.9948 384.07 67.2163L382.186 66.5437ZM381.55 67.7664C381.405 67.929 381.212 68.0339 380.87 68.0402L380.906 70.0398C381.738 70.0247 382.483 69.7243 383.042 69.0976L381.55 67.7664ZM380.888 68.04H380.728V70.04H380.888V68.04ZM380.728 68.04C380.411 68.04 380.077 67.9984 379.723 67.9099L379.237 69.8501C379.737 69.975 380.234 70.04 380.728 70.04V68.04ZM380.474 68.9893L380.65 67.3893L378.662 67.1707L378.486 68.7707L380.474 68.9893ZM379.308 68.2174C379.726 68.3728 380.16 68.488 380.568 68.488V66.488C380.507 66.488 380.333 66.4646 380.004 66.3426L379.308 68.2174ZM380.568 68.488C380.686 68.488 380.811 68.4666 380.86 68.4584L380.532 66.4856C380.52 66.4876 380.511 66.489 380.504 66.4901C380.496 66.4911 380.493 66.4916 380.492 66.4917C380.491 66.4919 380.496 66.4912 380.505 66.4905C380.51 66.49 380.517 66.4895 380.527 66.489C380.536 66.4885 380.55 66.488 380.568 66.488V68.488ZM380.696 68.472C380.813 68.472 380.942 68.4639 381.075 68.4519L380.893 66.4601C380.791 66.4694 380.728 66.472 380.696 66.472V68.472ZM381.071 68.4522C381.673 68.3999 382.021 67.9624 382.183 67.7031C382.367 67.4104 382.504 67.0463 382.616 66.6646L380.696 66.1034C380.653 66.2526 380.611 66.3718 380.573 66.4647C380.535 66.5593 380.505 66.6142 380.489 66.6409C380.47 66.6708 380.482 66.6427 380.536 66.5987C380.597 66.5495 380.72 66.4752 380.897 66.4598L381.071 68.4522ZM382.612 66.6781L382.74 66.2621L380.828 65.6739L380.7 66.0899L382.612 66.6781ZM382.723 65.6252L379.827 57.6892L377.949 58.3748L380.845 66.3108L382.723 65.6252ZM378.888 59.032H380.648V57.032H378.888V59.032ZM379.699 58.3467L381.635 64.1867L383.533 63.5573L381.597 57.7173L379.699 58.3467ZM383.529 64.1983L385.545 58.3583L383.655 57.7057L381.639 63.5457L383.529 64.1983ZM384.6 59.032H386.296V57.032H384.6V59.032ZM390.843 66.736V67.736H391.843V66.736H390.843ZM389.019 66.736H388.019V67.736H389.019V66.736ZM389.019 64.976V63.976H388.019V64.976H389.019ZM390.843 64.976H391.843V63.976H390.843V64.976ZM390.827 54.656L391.826 54.6766L391.847 53.656H390.827V54.656ZM390.635 63.952V64.952H391.614L391.634 63.9726L390.635 63.952ZM389.227 63.952L388.227 63.9761L388.25 64.952H389.227V63.952ZM389.003 54.656V53.656H387.978L388.003 54.6801L389.003 54.656ZM390.843 65.736H389.019V67.736H390.843V65.736ZM390.019 66.736V64.976H388.019V66.736H390.019ZM389.019 65.976H390.843V63.976H389.019V65.976ZM389.843 64.976V66.736H391.843V64.976H389.843ZM389.827 54.6353L389.635 63.9314L391.634 63.9726L391.826 54.6766L389.827 54.6353ZM390.635 62.952H389.227V64.952H390.635V62.952ZM390.226 63.9279L390.002 54.6319L388.003 54.6801L388.227 63.9761L390.226 63.9279ZM389.003 55.656H390.827V53.656H389.003V55.656Z" fill="#FD8369" fill-opacity="0.5"/>
</g>
<defs>
<clipPath id="clip0_64_0">
<rect width="400" height="381" fill="white"/>
</clipPath>
</defs>
</svg>
