<svg width="42" height="40" viewBox="0 0 42 40" fill="none" xmlns="http://www.w3.org/2000/svg">
<path fill-rule="evenodd" clip-rule="evenodd" d="M35.9714 0H6.02864C3.19455 0 0.888916 2.29297 0.888916 5.11141V34.8887C0.888916 37.707 3.19455 40 6.02864 40H35.9714C38.8055 40 41.1111 37.707 41.1111 34.8886V5.11141C41.1111 2.29297 38.8055 0 35.9714 0ZM38.7419 34.8887C38.7419 36.408 37.4991 37.6439 35.9714 37.6439H6.02861C4.50087 37.6439 3.25799 36.4079 3.25799 34.8887V30.5913L11.0554 23.9935C11.3399 23.7527 11.755 23.7505 12.0422 23.9877L16.9266 28.0211C17.3975 28.4099 18.0888 28.378 18.5216 27.9472L30.1271 16.3883C30.3368 16.1793 30.5814 16.159 30.709 16.1655C30.8363 16.172 31.0779 16.2171 31.2651 16.4464L38.742 25.6019V34.8887H38.7419ZM33.1041 14.9609L38.7419 21.8644V5.1114C38.7419 3.5921 37.4991 2.35609 35.9714 2.35609H6.02861C4.50087 2.35609 3.25799 3.5921 3.25799 5.1114V27.4978L9.52009 22.1992C10.6835 21.2148 12.3807 21.2047 13.5559 22.1751L17.6088 25.5219L28.4505 14.7234C29.0772 14.0992 29.9452 13.7678 30.8304 13.8123C31.7162 13.8576 32.545 14.2762 33.1041 14.9609Z" fill="#9DAFBD"/>
<path fill-rule="evenodd" clip-rule="evenodd" d="M7.88409 10.6354C7.88409 7.50047 10.4488 4.94983 13.6013 4.94983C16.7539 4.94983 19.3185 7.50039 19.3185 10.6354C19.3185 13.7705 16.7538 16.3211 13.6013 16.3211C10.4488 16.3211 7.88409 13.7705 7.88409 10.6354ZM10.2553 10.6355C10.2553 12.4702 11.7563 13.963 13.6014 13.963C15.4464 13.963 16.9474 12.4702 16.9474 10.6355C16.9474 8.80066 15.4464 7.30789 13.6014 7.30789C11.7563 7.30789 10.2553 8.80058 10.2553 10.6355Z" fill="#9DAFBD"/>
</svg>
