<svg xmlns="http://www.w3.org/2000/svg" width="600" height="348" viewBox="0 0 600 348"><path d="M83.2,93.65c.34-1.39,17-4.77,18.65-5.28A239.26,239.26,0,0,0,129,78c11-5,16.51-18.85,13.31-30.2-2.76-9.76-10.77-17.5-20.07-21.54s-19.76-4.75-29.86-3.79C79,23.78,63.61,28.39,53.92,38.26,40.08,52.35,55.05,69.94,69.37,76.13,81.68,81.46,83.56,80.79,84,84.67A31,31,0,0,1,83.2,93.65Z" style="fill:#c8ebf5"/><path d="M72.75,90.2l-.32-.08h0a30.92,30.92,0,0,0,.8-8.92C72.92,78.48,72,78.11,66.65,76c-2-.8-4.58-1.79-8-3.25C50.09,69.08,39.94,60.49,38,50.42c-1.13-5.79.62-11.1,5.22-15.77,8.35-8.51,22.41-14.26,38.57-15.8,11.56-1.09,21.63.19,29.95,3.8,10,4.37,17.56,12.46,20.15,21.65,3.37,11.91-2.64,25.55-13.4,30.4A238.75,238.75,0,0,1,91.29,85c-.4.13-1.67.42-3.43.82C83.41,86.87,73,89.25,72.75,90.2ZM89.54,18.81q-3.75,0-7.74.37c-16.09,1.53-30.08,7.25-38.38,15.7-4.51,4.59-6.23,9.8-5.12,15.48,1.94,10,12,18.44,20.52,22.13,3.37,1.46,5.91,2.45,7.95,3.24,5.35,2.08,6.46,2.51,6.79,5.43a29.48,29.48,0,0,1-.69,8.5c1.51-.94,6.77-2.27,14.91-4.13,1.69-.38,3-.68,3.41-.81A240.07,240.07,0,0,0,118.33,74.4c10.61-4.79,16.54-18.25,13.21-30-2.57-9.09-10-17.11-20-21.43A54.93,54.93,0,0,0,89.54,18.81Z" style="fill:#0a69af"/><path d="M547.08,167.41c.27-1.07,13.12-3.67,14.36-4.06a183,183,0,0,0,20.9-7.95c8.48-3.83,12.72-14.51,10.25-23.25-2.12-7.52-8.29-13.47-15.45-16.59s-15.21-3.65-23-2.91c-10.3,1-22.16,4.52-29.62,12.12-10.65,10.85.88,24.39,11.9,29.16,9.47,4.09,10.92,3.58,11.26,6.57A23.71,23.71,0,0,1,547.08,167.41Z" style="fill:#dcdce1;opacity:0.5"/><g style="opacity:0.5"><path d="M553.78,161.57l-.33-.08h0a23.79,23.79,0,0,0,.62-6.85c-.24-2.07-1-2.35-5-3.94-1.57-.61-3.53-1.37-6.13-2.5-6.63-2.86-14.45-9.48-16-17.24-.88-4.48.48-8.57,4-12.18,6.44-6.55,17.27-11,29.72-12.17,8.9-.85,16.67.14,23.07,2.93,7.73,3.36,13.54,9.6,15.54,16.69,2.59,9.18-2,19.7-10.34,23.44a184.5,184.5,0,0,1-20.92,8c-.31.1-1.29.32-2.64.63C562.27,159,554,160.85,553.78,161.57Zm12.88-54.92c-1.92,0-3.91.09-6,.29-12.37,1.17-23.13,5.57-29.51,12.07-3.46,3.53-4.79,7.52-3.93,11.88,1.49,7.64,9.22,14.18,15.77,17,2.6,1.12,4.55,1.88,6.12,2.49,4,1.57,5,2,5.25,4.21a23,23,0,0,1-.51,6.48c1.27-.74,5.28-1.75,11.41-3.14,1.3-.3,2.32-.53,2.62-.62a185.43,185.43,0,0,0,20.89-7.95c8.15-3.68,12.7-14,10.15-23.05-2-7-7.71-13.15-15.35-16.48A42.35,42.35,0,0,0,566.66,106.65Z" style="fill:#0a69af"/></g><path d="M233.44,60.3c-.27-1-13.94-3.58-15.27-3.95a208.63,208.63,0,0,1-22.23-7.75c-9-3.72-13.53-14.12-10.9-22.63,2.26-7.31,8.81-13.11,16.43-16.14S217.65,6.27,225.92,7c11,1,23.57,4.4,31.5,11.8,11.33,10.56-.93,23.74-12.65,28.38-10.08,4-11.62,3.49-12,6.4A21.68,21.68,0,0,0,233.44,60.3Z" style="fill:#dcdce1;opacity:0.5"/><g style="opacity:0.5"><path d="M236.55,58.26c-.29-.71-8.73-2.48-12.34-3.23-1.44-.3-2.49-.52-2.82-.61a209,209,0,0,1-22.25-7.75c-8.82-3.65-13.75-13.89-11-22.83,2.13-6.91,8.31-13,16.52-16.25,6.81-2.72,15.07-3.68,24.53-2.85C242.44,5.89,254,10.2,260.8,16.58c3.69,3.43,5.15,7.33,4.35,11.57-1.45,7.68-9.86,14.24-17,17.09-2.77,1.1-4.85,1.84-6.52,2.43-4.33,1.55-5.11,1.83-5.36,3.84a21.29,21.29,0,0,0,.65,6.66h0ZM222.83,4.78a48.58,48.58,0,0,0-18,3.12c-8.13,3.23-14.23,9.23-16.33,16-2.72,8.79,2.13,18.85,10.8,22.43a207.64,207.64,0,0,0,22.22,7.74c.31.09,1.4.32,2.79.61,6.55,1.36,10.82,2.35,12.15,3.07a20,20,0,0,1-.54-6.32c.27-2.21,1.19-2.53,5.58-4.1,1.67-.59,3.75-1.34,6.5-2.43,7.12-2.81,15.42-9.28,16.85-16.84.78-4.13-.65-7.92-4.24-11.26-6.79-6.33-18.24-10.62-31.41-11.76Q225.9,4.79,222.83,4.78Z" style="fill:#0a69af"/></g><path d="M372.29,86.06c-.35-1.56-17.81-5.35-19.5-5.92A238.73,238.73,0,0,1,324.4,68.55C312.89,63,307.12,47.41,310.48,34.67c2.88-11,11.26-19.63,21-24.17s20.67-5.33,31.22-4.25c14,1.42,30.1,6.59,40.24,17.66,14.47,15.81-1.19,35.55-16.16,42.5-12.87,6-14.85,5.22-15.31,9.58A37.76,37.76,0,0,0,372.29,86.06Z" style="fill:#c8ebf5;opacity:0.58"/><g style="opacity:0.58"><path d="M367.85,80.44h0c-.25-1.08-11.15-3.74-15.8-4.88-1.84-.45-3.17-.78-3.59-.92A240.85,240.85,0,0,1,320,63.05C308.81,57.6,302.52,42.31,306,29c2.71-10.31,10.59-19.39,21.07-24.28C335.8.63,346.34-.8,358.42.43c16.9,1.72,31.6,8.18,40.34,17.72,4.89,5.34,6.7,11.42,5.37,18.05-2.22,11.12-12.75,20.6-21.58,24.7-3.53,1.64-6.19,2.75-8.33,3.64-5.56,2.33-6.56,2.75-6.88,5.81a36.42,36.42,0,0,0,.84,10h0ZM350.29.33a54,54,0,0,0-23,4.66c-10.39,4.85-18.2,13.85-20.89,24.06-3.48,13.2,2.73,28.32,13.83,33.7a241.78,241.78,0,0,0,28.37,11.58c.41.13,1.8.48,3.57.91,8.36,2,14,3.57,15.6,4.64a35.87,35.87,0,0,1-.72-9.57c.34-3.25,1.5-3.74,7.08-6.07,2.14-.89,4.79-2,8.32-3.64,8.76-4.06,19.19-13.46,21.4-24.47,1.3-6.52-.48-12.5-5.3-17.76-8.68-9.48-23.3-15.9-40.12-17.61A78.34,78.34,0,0,0,350.29.33Z" style="fill:#0a69af"/></g><path d="M359.21,156.57s23.38-3.69,39.47,1v47.78H359.21Z" style="fill:#4b5f7b"/><path d="M421,171.93h30.38c11.82,0,22.15-7.62,25.19-18.56,1.68-6.08,3.62-13.19,5.68-21l.24-.91c3.87-15.61-8.65-30.55-25.39-30.55H424c-10.19,0-19.11,6.58-21.7,16l-6.51,23.64C391.41,156.43,403.87,171.93,421,171.93Z" style="fill:#4b5f7b"/><path d="M436.67,158.56s28.42-4.79,34,1.06,6.27,18.47-1.22,34.39S448,225.74,416.57,224.37C436.34,201.81,436.67,158.56,436.67,158.56Z" style="fill:#4b5f7b"/><path d="M432.91,257.62a1.28,1.28,0,0,1-1.28-1.16l-3.58-38.1a1.28,1.28,0,0,1,2.55-.24l3.58,38.1a1.28,1.28,0,0,1-1.15,1.4Z" style="fill:#3d3542"/><path d="M461.51,245.09a1.28,1.28,0,0,1-1.27-1.16l-3.59-38.11a1.28,1.28,0,0,1,2.55-.24l3.59,38.11a1.28,1.28,0,0,1-1.16,1.39Z" style="fill:#3d3542"/><path d="M356.2,250.63a1.49,1.49,0,0,1-.36,0A1.28,1.28,0,0,1,355,249l11-38.36a1.27,1.27,0,0,1,1.58-.87,1.28,1.28,0,0,1,.88,1.58l-11,38.36A1.29,1.29,0,0,1,356.2,250.63Z" style="fill:#3d3542"/><path d="M440.33,158.45c-11.16-.91-12.55,8.39-13.25,21.26s.13,18.43-10.51,19-38.58.83-44,.24-5.32-3.46-5.14-13,2.67-29.12-4.89-29.25-14.29,4-14.29,19.63,5.11,41.35,17.67,43.95,47.89,6.24,60,2.86,21.62-17.95,22.08-38.49S443.24,158.69,440.33,158.45Z" style="fill:#4b5f7b"/><polygon points="306.53 249.45 301.5 260.41 304.82 260.31 309.87 261.4 314.76 253.93 312.93 249.45 306.53 249.45 306.53 249.45" style="fill:#efb589"/><polygon points="364.26 248.82 359.77 260.06 362.62 260.44 368.17 260.21 374.69 248.82 364.26 248.82 364.26 248.82" style="fill:#efb589"/><path d="M317.19,252.89l-8.8-5.33a.55.55,0,0,0-.55.95l8.8,5.32a.54.54,0,0,0,.55-.94Z" style="fill:#453743"/><path d="M372.39,249.41a25.12,25.12,0,0,0-6.59-2.17c-.7-.12-1,.94-.3,1.06a24.36,24.36,0,0,1,6.34,2c.64.31,1.19-.63.55-.94Z" style="fill:#453743"/><path d="M303.83,248.75l15.1,8.25s24.3-42.26,27.11-45.43,4.93-7.77,5.12-11.52h31.36l-24.45,48.77,18.17,6.4,26-46.82c1.83-3.29,4.14-4.88,5.24-8.35h14.92a4.58,4.58,0,0,0,4.59-4.59V184.75c0-5.86-4.75-8.9-10.37-9.27s-7.68,1.71-12.55,0-6.71-3.66-12.56-2.56c-4.64.87-36.32,6.7-49.32,9.1a11.14,11.14,0,0,0-8,6.1l-30.85,60.4Z" style="fill:#13354f"/><path d="M421.3,92.23s-.32,3.71-.64,8.51-1.42,10.93.58,14.11c1.88,3,8.2,2.35,8.2,2.35l-4.76,9.42s.73,8.59,14.27.82c2-15.55,2-16.37,4.48-20.76s5.94-14.45,0-14.45Z" style="fill:#efb589"/><path d="M470.81,159.37l-9.68-25.23a8.22,8.22,0,0,0-4.8-4.74l-16.83-6.27S426.38,130,426,124l-15.76,2.51a14.54,14.54,0,0,0-5.18,3.72l-19.81,17.6a58,58,0,0,1,3,12.64c0,.41,6.87-5.29,6.66-4.94-2.1,3.42-3.93,16.71-4.2,17.58-.32,1.18,3.08-.17,2.3.14,6.82.18,22.18,9.28,22.18,9.28l7.83,3h4v-8.39a4.49,4.49,0,0,1,4.49-4.49h30.22A9.74,9.74,0,0,0,470.81,159.37Z" style="fill:#deedee"/><path d="M432.11,168.86l-.91,4.35a2.68,2.68,0,0,0,.47,2.16l1.41,1.9a2.19,2.19,0,0,0,1.75.88h3l1.33-1,1.47-.08a4.55,4.55,0,0,0,3.11-1.5l1.45-1.62L447,172.6h0a8.51,8.51,0,0,0-3.47-7.68h0a3.54,3.54,0,0,0-3.36-.45l-6.41,2.41a2.66,2.66,0,0,0-1.69,2Z" style="fill:#efb589"/><path d="M368.73,155.52,361.42,149a3.25,3.25,0,0,0-4.53.19l-6.29,6.68a2.15,2.15,0,0,0,.14,3.09l3.74,3.29s2.33.33,3.26-2.79a10.4,10.4,0,0,0,5.17,1.87l4.27-1.39a3.06,3.06,0,0,0,2-2.07l.12-.43a1.86,1.86,0,0,0-.55-1.89Z" style="fill:#efb589"/><path d="M436.2,110.37a9.12,9.12,0,0,1-5.7,5.89c-.66.23-.38,1.29.29,1.06a10.28,10.28,0,0,0,6.47-6.65c.21-.68-.84-1-1.06-.3Z" style="fill:#db9e71"/><path d="M465.82,161.08a16.06,16.06,0,0,0-9.94-1.53c-2.29-8-4.66-16.8-.79-24.71.3-.63-.64-1.19-.95-.55-4,8.17-1.72,17.15.65,25.43a50.15,50.15,0,0,0-9.8,3.2c-.65.26-.37,1.32.29,1.05,6.27-2.58,13.47-5.38,20-1.94.63.33,1.18-.62.56-.95Z" style="fill:#96a9aa"/><path d="M404,180.53c-8.38-1.52-14.31,4.09-18,10.84h-.09a6.55,6.55,0,0,1-.84,1.84,44.42,44.42,0,0,0-2,5.08c-.22.67.85,1,1.06.29,2.76-8.5,9.09-18.91,19.62-17C404.38,181.71,404.68,180.66,404,180.53Z" style="fill:#0b0635"/><path d="M351.31,190.58a.54.54,0,0,0-1.05.29,20,20,0,0,1,.49,7.78c-.09.7,1,.69,1.09,0a20.53,20.53,0,0,0-.53-8.07Z" style="fill:#0b0635"/><path d="M441.71,170.8c-2.51-1-5-1.87-7.63-2.63a.55.55,0,0,0-.29,1.06q3.87,1.14,7.63,2.62c.65.26.94-.8.29-1Z" style="fill:#db9e71"/><path d="M359.71,154.87a21.16,21.16,0,0,0-.2-5.15c-.13-.82-1.61-.51-.91.54a4.23,4.23,0,0,1,.11,4.15c-.43.94.94,1.26,1,.46Z" style="fill:#db9e71"/><path d="M434.06,97.62a3,3,0,0,1-.41-.17c-1.18-.56-2-1.77-3.17-2.26-2.11-.84-4.83.8-6.66-.55l-2.92,4.25c-.09.13-1.26-.8-1.37-.9a3.2,3.2,0,0,1-.92-1.32c-.28-1.11.74-2.23,1-3.27a7,7,0,0,0-.45-3.29,4.18,4.18,0,0,1,.09-3.26,5.25,5.25,0,0,1,2.37-1.69,18.07,18.07,0,0,0,4.06-2.76c1.09-1,2.28-2.18,3.74-2,1.65.17,2.68,2,4.29,2.43s3.46-.79,5-.14c1.35.56,1.83,2.19,2.69,3.37,1.27,1.73,3.46,2.55,4.88,4.15a9.14,9.14,0,0,1,2,4.68,16.59,16.59,0,0,1-6.62,15.76c-.5-2.28-1.67-3.94-2.07-6.24s-.26-5.41-2.47-6.15C436.13,97.91,435,97.94,434.06,97.62Z" style="fill:#56261c"/><path d="M443.94,105.8a2.62,2.62,0,1,1-2.62-2.61A2.61,2.61,0,0,1,443.94,105.8Z" style="fill:#efb589"/><path d="M400.78,134l-16.12,12.76-19.54,5.52s1.35,4,0,6.06-.95,2.54-.95,2.54h24.06l21-18Z" style="fill:#deedee"/><path d="M388.23,161a.58.58,0,0,1-.43-.21.54.54,0,0,1,.09-.77l18.25-14.45a.55.55,0,0,1,.68.86l-18.25,14.45A.54.54,0,0,1,388.23,161Z" style="fill:#96a9aa"/><path d="M425.52,101a13.77,13.77,0,0,0-1.91-.29,5.7,5.7,0,0,0-1.82.09h0a.52.52,0,0,1-.65-.36.54.54,0,0,1,.36-.65,6.79,6.79,0,0,1,2.21-.21,15.08,15.08,0,0,1,2.1.27.58.58,0,0,1,.46.69.59.59,0,0,1-.69.46h0Z" style="fill:#1a1a1a"/><path d="M424.3,103.24a.85.85,0,0,1-.89.8.93.93,0,1,1,.89-.8Z" style="fill:#1a1a1a"/><path d="M430.35,101.84a12.55,12.55,0,0,1,1.93.15,5.5,5.5,0,0,1,1.75.5l0,0a.54.54,0,0,0,.72-.21.54.54,0,0,0-.2-.71,6.47,6.47,0,0,0-2.11-.7,14.66,14.66,0,0,0-2.1-.23.59.59,0,0,0-.05,1.18h0Z" style="fill:#1a1a1a"/><path d="M431,104.31a.79.79,0,1,0,.86-.85.87.87,0,0,0-.86.85Z" style="fill:#1a1a1a"/><path d="M427.56,108.56a.17.17,0,0,0,.11-.06.13.13,0,0,0-.05-.16l-.91-.49a.7.7,0,0,1-.41-.71l.46-3.21a.12.12,0,0,0-.23,0l-.46,3.21a.92.92,0,0,0,.53,1l.91.48.05,0Z" style="fill:#1a1a1a"/><path d="M428.37,112.72h-3.69a.18.18,0,1,1,0-.36h3.69a.18.18,0,1,1,0,.36Z" style="fill:#1a1a1a"/><path d="M309.78,268.13l-25-.22a1.13,1.13,0,0,1-1.06-.77c-.48-1.41-1.06-4.45,2.07-6,4-1.94,13-5.06,13.75-5.34l.12,0,1.32-.62a1.12,1.12,0,0,1,1,0c1.59.91,6.53,3.67,9.78,4.55,1,.29.7.79.5,2.19l-1.46,5.47A1.15,1.15,0,0,1,309.78,268.13Z" style="fill:#0b0635"/><path d="M371.89,265.78l-24.14,7.59a1.19,1.19,0,0,1-1.28-.37c-.93-1.14-2.5-3.74,0-6.12,3.18-3,10.79-8.67,11.45-9.17a.22.22,0,0,0,.09-.07l1.07-1a1.19,1.19,0,0,1,1-.29c1.83.35,7.51,1.33,10.93,1.13,1.09-.07.93.5,1.21,1.84l.43,5.47A1.11,1.11,0,0,1,371.89,265.78Z" style="fill:#0b0635"/><path d="M433,237.07s23.38-3.69,39.47,1v47.78H433Z" style="fill:#3c8f9e"/><path d="M494.79,252.43h30.38c11.82,0,22.15-7.62,25.18-18.56,1.69-6.08,3.63-13.19,5.69-21,.08-.3.16-.61.23-.91,3.88-15.61-8.64-30.55-25.39-30.55H497.81a22.31,22.31,0,0,0-21.71,16l-6.51,23.64C465.24,236.93,477.7,252.43,494.79,252.43Z" style="fill:#50bed2"/><path d="M510.5,239.06s28.42-4.79,34,1.06,6.27,18.47-1.22,34.39-21.42,31.73-52.88,30.36C510.17,282.31,510.5,239.06,510.5,239.06Z" style="fill:#50bed2"/><path d="M506.74,338.12a1.28,1.28,0,0,1-1.28-1.16l-3.58-38.1a1.28,1.28,0,1,1,2.54-.24l3.59,38.1a1.28,1.28,0,0,1-1.15,1.4Z" style="fill:#3d3542"/><path d="M535.34,325.59a1.28,1.28,0,0,1-1.27-1.16l-3.59-38.11a1.28,1.28,0,0,1,2.55-.24l3.58,38.11a1.27,1.27,0,0,1-1.15,1.39Z" style="fill:#3d3542"/><path d="M430,331.13a1.49,1.49,0,0,1-.36-.05,1.28,1.28,0,0,1-.87-1.59l11-38.36a1.27,1.27,0,0,1,1.58-.87,1.28,1.28,0,0,1,.88,1.58l-11,38.36A1.3,1.3,0,0,1,430,331.13Z" style="fill:#3d3542"/><path d="M452.87,318.87a1.49,1.49,0,0,1-.36-.05,1.28,1.28,0,0,1-.87-1.59l11-38.35a1.26,1.26,0,0,1,1.58-.88,1.28,1.28,0,0,1,.88,1.58l-11,38.36A1.29,1.29,0,0,1,452.87,318.87Z" style="fill:#3d3542"/><path d="M485.44,189.37s-1.43-9,2.07-13.59,2.39-8.57,2.39-10.71.64-8.9,3.66-11.37,4.3-7.91,14.18-5.93c0,0,2.54-1.48,9.07-.66s9.24,9.39,9.56,11.2,1,5.6,2.55,7.42A11.71,11.71,0,0,1,531,175.78c-1.12,4.12-1.17,4.94.37,8.73s.74,4.86.74,4.86-18.63,7.66-46.66,0Z" style="fill:#1d134c"/><path d="M496.69,162.78a27,27,0,0,0,.88,7.9c1.07,3.22.95,11.85,9.65,12.09-1.56,6.54-3.12,11.9-3.12,11.9h15.31l-1.57-19.2,4.79-14.05-16.09-10.73S496.38,157.32,496.69,162.78Z" style="fill:#f8bd8c"/><path d="M519.41,188.2h7.42A11.31,11.31,0,0,1,538,197.72c1.8,11.3,4.15,29.8,2,39.34-11.32,1.46-35,10.65-35,10.65H478.2s3-31.43,5.46-36.63.65-6.63,2.73-12.87,1.43-10.64,19.31-9.35C507.32,192.75,514.08,192.1,519.41,188.2Z" style="fill:#e0fff6"/><path d="M494.23,198.15c.16-.74,1.29-.43,1.13.31a186.88,186.88,0,0,0-4.17,40.71.59.59,0,0,1-1.17,0A188.49,188.49,0,0,1,494.23,198.15Z" style="fill:#a0b8af"/><path d="M509.11,241.79a41.56,41.56,0,0,0-7.8-7,2.76,2.76,0,0,0-3,0l-2.58,1.68a1.73,1.73,0,0,0-.75,1.81l.36,1.72a2.27,2.27,0,0,0,2.22,1.79h1.66l.61,1a6.13,6.13,0,0,0,5.23,2.93h1.44Z" style="fill:#f8bd8c"/><path d="M473.91,214.92l1.23-4.62,4.31-3.63a3.35,3.35,0,0,1,4-.21l.64.43a3,3,0,0,1,1.32,2.49v3.53a3.16,3.16,0,0,1-1.31,2.57l-1.19.87h0a6.38,6.38,0,0,1-4.68,5.5l-.58.16Z" style="fill:#f8bd8c"/><path d="M505,247.71s-29.07-38.32-39.4-45.92-18.73-6.39-22.24-1.64c-8.38-8.5-29.25-1.23-19.89,16.78S451,268.29,451,268.29h7.16l5.36,13,37.93,8.86,5.27-22.23Z" style="fill:#323237"/><path d="M506.74,267.9l-5.27,22.24-35.73-8.36c9.24.26,19.37.38,24.88.08,10.63-.58,9.59-8.78,10.29-21.65.32-5.92.78-11.08,2.28-14.84l1.8,2.34Z" style="fill:#31185e"/><polygon points="475.6 268.23 467.02 268.23 471.31 278.17 478 277.72 475.6 268.23" style="fill:#f8bd8c"/><polygon points="461.47 268.23 452.89 268.23 457.18 278.17 463.87 277.72 461.47 268.23" style="fill:#f8bd8c"/><path d="M477.41,210.24l2.85,2.22c.59.46-.24,1.29-.83.83l-2.85-2.22C476,210.61,476.82,209.78,477.41,210.24Z" style="fill:#db9e71"/><path d="M509.13,181.36a18.14,18.14,0,0,0,6.5-4.09c.54-.53,1.37.3.83.82a19.44,19.44,0,0,1-7,4.4C508.73,182.75,508.42,181.62,509.13,181.36Z" style="fill:#db9e71"/><path d="M442.34,201.94c.18-.73,1.3-.42,1.13.31-1.31,5.47.37,10.86,2.39,15.93s4.24,10.18,6.37,15.26l12.93,30.9c.29.7-.85,1-1.13.31q-1.14-2.72-2.27-5.43a57.65,57.65,0,0,0,2,7.24c.24.71-.89,1-1.13.31a59.15,59.15,0,0,1-2.8-11.88.5.5,0,0,1,0-.21l-9.36-22.36c-2.16-5.16-4.47-10.28-6.42-15.52C442.3,212,441.12,207,442.34,201.94Z" style="fill:#262629"/><path d="M462.21,211.51a32.58,32.58,0,0,1,4.53,5.64c-.23-1.27-.45-2.55-.68-3.83-.13-.74,1-1,1.13-.31l1.26,7.19c6.65,13.32,4.83,30.22,8.12,44.51.17.74-1,1.05-1.13.32-3.17-13.78-1.47-30.17-7.5-43.23a.45.45,0,0,1-.46-.42l-.15-.84a31.76,31.76,0,0,0-5.95-8.2A.59.59,0,0,1,462.21,211.51Z" style="fill:#262629"/><path d="M497.67,164a.61.61,0,0,1-.56-.39.64.64,0,0,1,.32-.83,6.2,6.2,0,0,1,5.29,0,.64.64,0,0,1,.26.86.6.6,0,0,1-.83.26,5.06,5.06,0,0,0-4.24.09.64.64,0,0,1-.24.05Z" style="fill:#1a1a1a"/><path d="M508.59,164a.63.63,0,0,1-.57-.39.64.64,0,0,1,.33-.83,6.21,6.21,0,0,1,5.29,0,.65.65,0,0,1,.25.86.6.6,0,0,1-.83.26,5.06,5.06,0,0,0-4.24.09.59.59,0,0,1-.23.05Z" style="fill:#1a1a1a"/><path d="M501,167.32a1,1,0,1,1-1-1.31,1.19,1.19,0,0,1,1,1.31Z" style="fill:#1a1a1a"/><path d="M511.64,167.32a1,1,0,1,1-1-1.31,1.19,1.19,0,0,1,1,1.31Z" style="fill:#1a1a1a"/><path d="M504.86,171.93h-.16a1,1,0,0,1-1-1v-3a.17.17,0,0,1,.16-.17.18.18,0,0,1,.17.17v2.84a.84.84,0,0,0,.83.86h0a.18.18,0,0,1,.17.17.18.18,0,0,1-.17.18Z" style="fill:#1a1a1a"/><path d="M506.44,153.15s-7.8,11.15-8.92,16.94-7.48,4-8.12,4.15,3.82-18.45,3.82-18.45L506.44,150v3.13Z" style="fill:#1d134c"/><path d="M506.44,148.81v3.85a45.33,45.33,0,0,0,7.37,10.13,63.2,63.2,0,0,0,10.84,8.53c.65.43,1.6.89,2.19,1.36-.53-2.82-1.51-5.63-2.11-8.44a64.41,64.41,0,0,0-1.76-7.71c-.27-.37-16.53-7.72-16.53-7.72Z" style="fill:#1d134c"/><path d="M523.22,169.82a2.91,2.91,0,1,1-2.91-2.91A2.9,2.9,0,0,1,523.22,169.82Z" style="fill:#f8bd8c"/><path d="M521.82,176a2.17,2.17,0,0,1-1.77.91H520a2,2,0,0,1-.55-.09v-.23a1.51,1.51,0,0,0,.56.11,2,2,0,0,0,1.68-.82,2.93,2.93,0,0,0,.2-2.86,1.59,1.59,0,0,0-1.45-.9.11.11,0,0,1-.1-.11.11.11,0,0,1,.1-.1,1.82,1.82,0,0,1,1,.26,2,2,0,0,1,.68.75A3.17,3.17,0,0,1,521.82,176Z" style="fill:#1a1a1a"/><path d="M505,177.14a.68.68,0,0,1-.38-.11l.22-.29c.22.16,1.09-.2,1.77-.63l.19.3A4.22,4.22,0,0,1,505,177.14Z" style="fill:#1a1a1a"/><path d="M512,230.4a.55.55,0,0,1-.09-1.09l10.84-1.77L526.3,210a.55.55,0,0,1,1.08.22l-3.63,17.91a.54.54,0,0,1-.45.43l-11.21,1.83Z" style="fill:#a0b8af"/><path d="M521.83,265.15c-.47,20.54-10,35.11-22.09,38.49s-47.42-.26-60-2.86-17.66-28.35-17.66-43.95c0-14.11,5.51-18.86,12.15-19.54,2.6,4.84,5.2,9.67,7.56,14,0,5.36-.46,11.12-.53,15.13-.18,9.56,0,13.85,5.4,14.43,2.61.29,10.44.66,19.06.9,9.24.26,19.37.38,24.88.08,10.63-.58,9.59-8.78,10.29-21.65.32-5.92.78-11.08,2.28-14.84,1.76-4.42,4.94-6.91,11-6.42C517.07,239.19,522.29,244.61,521.83,265.15Z" style="fill:#96d8e4"/><path d="M465.61,283.24l-18.09,7.2a.88.88,0,0,1-1-.24c-.77-.88-2.08-2.9-.27-4.92,2.3-2.57,7.86-7.46,8.35-7.89l.06-.07.78-.84a.87.87,0,0,1,.76-.27,41.24,41.24,0,0,0,8.39.4c.84-.1.74.36,1,1.43l.56,4.38A.88.88,0,0,1,465.61,283.24Z" style="fill:#0b0635"/><path d="M480.38,281.67l-17.63,10.77a.92.92,0,0,1-1.08-.07c-1-.78-2.69-2.66-1.16-5.09,1.94-3.1,6.88-9.22,7.31-9.76l.06-.08.65-1a.94.94,0,0,1,.76-.43,44.23,44.23,0,0,0,8.85-1.08c.85-.26.83.24,1.3,1.31l1.38,4.48A1,1,0,0,1,480.38,281.67Z" style="fill:#0b0635"/><polygon points="106.29 320.06 103.58 341.67 95.95 341.67 94.81 313.38 106.29 320.06" style="fill:#ffa580"/><polygon points="145.02 292.68 153.02 307.99 149.02 313.83 135.62 295.81 145.02 292.68" style="fill:#ffa580"/><path d="M62.9,270.67H9.08a3.4,3.4,0,0,1-3.4-3.4h0a3.41,3.41,0,0,1,3.4-3.41H62.9a3.41,3.41,0,0,1,3.41,3.41h0A3.41,3.41,0,0,1,62.9,270.67Z" style="fill:#ac6e53"/><path d="M16.8,234.38s-6.18,29.93,16.33,29.93H91.54L90,322l20.49,1.13,4.12-49.31,19.81,29.93,12.62-8.22-27.41-59.87a16,16,0,0,0-14.29-9.36c-8.17-.15-21.95.76-44.18,5.07l-30.83-6.75Z" style="fill:#1e375a"/><path d="M51.14,131.08s1.62,25.4,4.82,32.36c-11.69,4.87-22.22-10.92-22.22-10.92S36.66,127.6,51.14,131.08Z" style="fill:#56261c"/><path d="M51.21,139.32a11.52,11.52,0,0,1-.77,1.89c-1.58,3-4.6,5.17-9.95,4.14L43,155l5.87,8.35-.1,13.89-14.41-2.82-5.84-17.85,1.36-37.76s10.12-7.44,15.55-7,5.85,7,5.85,7c1.39,7.59-.28,7.8.48,13.09A17.44,17.44,0,0,1,51.21,139.32Z" style="fill:#efb589"/><path d="M74,198.86s-9.74,15-14.33,15.45c-4.32-9.46,1.53-18.37,1.53-18.37l7-2.09,4.17.84Z" style="fill:#d5f5e9"/><path d="M28.52,155.44S31.46,159,35.16,163a5.16,5.16,0,0,0,8.77-4.84c-.53-2-.94-3.11-.94-3.11s4.6,1.37,9.43,3.29a15.9,15.9,0,0,1,9.7,11.75c3,15.42,5.1,20.14,2.8,26.44-2.65,7.24-8.63,21.15-3.9,34.38-23.11,3.34-35.91,1.11-44.4,3.06-4.18-3.48,1.53-12.25-1.39-19.63C8.48,220,2,216.82.65,213.79s-.87-10.89,4.28-29S12.72,162,16.9,160,28.52,155.44,28.52,155.44Z" style="fill:#c8ebf5"/><path d="M23.67,174.51c0-.8-1.24-.8-1.25,0-.11,11.93-3.86,24.48-3.74,24.7a27.75,27.75,0,0,0-11.12-1.13c-.8.1-.46,1.31.33,1.2a23.82,23.82,0,0,1,10.83,1,.54.54,0,0,0,.52-.07.81.81,0,0,0,.54-.95A114.23,114.23,0,0,0,23.67,174.51Z" style="fill:#96b0b8"/><path d="M103.56,246.92h-.15l.11-.06-.19.07Z" style="fill:#59555e"/><path d="M115.39,251.67a7,7,0,0,0-.77-1.42,8,8,0,0,0-4.36-2.9,17.07,17.07,0,0,0-5.29-.52,8.8,8.8,0,0,0-1.77.19c-.61.15-1.19.4-1.79.56a3.34,3.34,0,0,1-1.72,0c1.21.4,2.52-.17,3.62-.65a2.6,2.6,0,0,1-.62.11,5.38,5.38,0,0,1-.69.07l-1.48.11a4.83,4.83,0,0,0-1.26.39l-1.76.62L94,249.46c-2.36.82-4.72,1.62-7.09,2.42s-4.73,1.58-7.1,2.36-4.75,1.54-7.13,2.29l-7.14,2.22-7.17,2.16-5.79,1.69a.63.63,0,0,0,.33,1.21q24.48-7,48.46-15.62a.51.51,0,0,0,.31-.11.5.5,0,0,0,.51.22,23.21,23.21,0,0,1,6.71,0,7.38,7.38,0,0,1,4.76,2.82,9.33,9.33,0,0,1,1.34,4.4A41.13,41.13,0,0,1,114,268a1.83,1.83,0,0,0,0,1.06.64.64,0,0,0,.87.38.88.88,0,0,0,.3-.62c.37-1.87.63-3.76.82-5.65a45.73,45.73,0,0,0,.18-7.49A13.12,13.12,0,0,0,115.39,251.67Z" style="fill:#4b5f7b"/><path d="M147.19,316.83l22.09-.2a1,1,0,0,0,.94-.68c.42-1.26.93-4-1.83-5.32-3.52-1.72-11.46-4.5-12.15-4.74l-.1,0-1.17-.56a1,1,0,0,0-.93,0,46.11,46.11,0,0,1-8.63,4.05c-.92.25-.62.7-.44,1.95l1.28,4.87A1,1,0,0,0,147.19,316.83Z" style="fill:#261a5b"/><path d="M95.53,343.06,119.06,348a1.1,1.1,0,0,0,1.16-.5c.74-1.24,1.91-4-.71-6.09-3.34-2.65-11.13-7.45-11.82-7.87l-.09-.06-1.12-.87a1.09,1.09,0,0,0-1-.17c-1.68.54-6.9,2.14-10.13,2.3-1,.06-.82.6-.92,2l.24,5.48A1.07,1.07,0,0,0,95.53,343.06Z" style="fill:#261a5b"/><path d="M51.4,119.51a24.67,24.67,0,0,0-1.52-4.9C50.46,127,35.39,128.5,35.39,128.5s1.3,30.09,4.84,36.77c-13.69,3.23-22.23-2.2-24.84-5.86s-4-38.52,2.9-48.23,19.42-8.77,26.83-3.45S51.4,119.51,51.4,119.51Z" style="fill:#56261c"/><path d="M37.13,131.15a2.9,2.9,0,1,1-2.9-2.89A2.9,2.9,0,0,1,37.13,131.15Z" style="fill:#efb589"/><path d="M51.54,128.54A5.89,5.89,0,0,0,52.63,132c1.21,1.7,1.29,2.27-.57,3.37s-2.94-4.35-2.94-4.35Z" style="fill:#efb589"/><path d="M47.57,130.66c.09.61.55,1.05,1,1a1,1,0,0,0,.69-1.24c-.1-.62-.56-1.06-1-1a1,1,0,0,0-.68,1.25Z"/><path d="M49.45,127.72a.76.76,0,0,1-.21,0,5.51,5.51,0,0,0-3.08.81.78.78,0,0,1-.95,0,.52.52,0,0,1,.12-.79,7.16,7.16,0,0,1,4-1.13c.38,0,.65.25.61.56a.68.68,0,0,1-.53.54Z"/><path d="M49.75,140.48a6,6,0,0,1-3.94-2.07.18.18,0,0,1,.28-.24s1.94,2.26,4.15,1.91a.18.18,0,0,1,.21.15.19.19,0,0,1-.15.21A3.48,3.48,0,0,1,49.75,140.48Z" style="fill:#080305"/><path d="M78.84,206.51,58.5,205.17a2.71,2.71,0,0,1-2.43-3.46L64.38,173a2.71,2.71,0,0,1,2.78-1.95l20.34,1.34a2.72,2.72,0,0,1,2.43,3.46l-8.3,28.68a2.7,2.7,0,0,1-2.79,1.95Z" style="fill:#0b2c30"/><path d="M49.29,197.09,20.89,212.8a13.45,13.45,0,0,1-8.5,1.53h0a5.87,5.87,0,0,1-5-6.07h0a10.17,10.17,0,0,1,5.17-8.4l.37-.21a17.58,17.58,0,0,1,4.27-1.71L48,190a4,4,0,0,0,2.1-1.33l5.77-6.92a3.11,3.11,0,0,1,3.08-1l4.82,1.09A3.1,3.1,0,0,1,66,183.69l1.07,2.77a2.5,2.5,0,0,1-.52,2.63L64.7,191a2.51,2.51,0,0,1-2.62.65l-2-.67h0a7.42,7.42,0,0,1-6.31,5.55Z" style="fill:#efb589"/><path d="M60.51,189.23l-2-6.28c-.25-.76-1.46-.43-1.21.34l2,6.28C59.55,190.33,60.76,190,60.51,189.23Z" style="fill:#ed9070"/><path d="M10.55,216.11s15.2-1.05,24.83-8.85,12.23-7,12.6-7.61a14.08,14.08,0,0,0,1.22-4.39c-.12-.73-2.81-6.58-3.66-6.46s-28.34,9.14-28.34,9.14l-8.73,2.93-4,9.51Z" style="fill:#c8ebf5"/><path d="M33.74,206.24a.55.55,0,0,1-.24-1l8.14-4a.55.55,0,0,1,.73.25.54.54,0,0,1-.24.73l-8.15,4A.69.69,0,0,1,33.74,206.24Z" style="fill:#96b0b8"/><path d="M67.55,340.76a.76.76,0,0,1-.75-.62L55.08,270.92H14.34L2.86,340.13a.74.74,0,0,1-.86.62.74.74,0,0,1-.62-.86L13,270a.76.76,0,0,1,.75-.63h42a.75.75,0,0,1,.74.63l11.83,69.84a.75.75,0,0,1-.61.87Z" style="fill:#171219"/><path d="M43.14,340.76a.76.76,0,0,1-.76-.71l-4-69.84a.75.75,0,0,1,.71-.8.78.78,0,0,1,.8.71l4,69.85a.74.74,0,0,1-.71.79Z" style="fill:#171219"/><path d="M261.75,170.05H291a24.93,24.93,0,0,0,24.22-18c1.62-5.9,2.09-13.28,4.07-20.81.08-.3,0-1,.09-1.3,3.73-15.13-12-28.7-28.08-28.7H264.66a21.48,21.48,0,0,0-20.87,15.52l-6.26,22.91C233.34,155,245.32,170.05,261.75,170.05Z" style="fill:#0a69af"/><path d="M202.38,155.54s22.48-3.95,38,.59v46.3h-38Z" style="fill:#0a69af"/><path d="M276.86,157.1s27.33-4.64,32.69,1,6,17.89-1.17,33.33-20.6,30.74-50.84,29.41C276.54,199,276.86,157.1,276.86,157.1Z" style="fill:#0a69af"/><path d="M273.24,253.08A1.23,1.23,0,0,1,272,252L268.57,215a1.24,1.24,0,0,1,1.11-1.35,1.22,1.22,0,0,1,1.34,1.12l3.45,36.92a1.24,1.24,0,0,1-1.11,1.35Z" style="fill:#3d3542"/><path d="M300.75,240.94a1.25,1.25,0,0,1-1.23-1.13l-3.45-36.92a1.24,1.24,0,0,1,1.11-1.35,1.23,1.23,0,0,1,1.34,1.12L302,239.58a1.23,1.23,0,0,1-1.11,1.35Z" style="fill:#3d3542"/><path d="M196.32,246.3a1,1,0,0,1-.34-.05,1.24,1.24,0,0,1-.85-1.53l10.61-37.17a1.23,1.23,0,0,1,1.52-.85,1.25,1.25,0,0,1,.85,1.54L197.5,245.41A1.24,1.24,0,0,1,196.32,246.3Z" style="fill:#3d3542"/><path d="M280.38,157c-10.73-.88-12.07,8.13-12.74,20.6s.13,17.86-10.1,18.43-37.1.8-42.3.23-5.11-3.35-4.94-12.61,2.57-28.22-4.7-28.35-13.74,3.91-13.74,19,4.91,40.06,17,42.58,46.05,6.05,57.67,2.78,20.79-17.39,21.24-37.29S283.18,157.22,280.38,157Z" style="fill:#3b87bf"/><polygon points="201.97 262.15 203.7 241.41 214.7 246.2 209.2 263.65 201.97 262.15" style="fill:#efb589"/><polygon points="156.98 260.11 162.34 243.54 172.98 245.93 163.22 263.65 156.98 260.11" style="fill:#efb589"/><path d="M232.6,119.13s-.75,1,.4-13.72c-11.08,10.1-13.46-6.39-14.16-9.13a36.94,36.94,0,0,1-.53-5.34c0-.38-.06-.81-.08-1.28,0-1.43,0-3.31.12-6,0,0,20.93-7.09,23.92-.44s-.9,14.4-.9,14.4l5.74,21.48Z" style="fill:#efb589"/><path d="M245.28,81.91c0,.1,0,.21,0,.31,0,.69-.07,1.47-.12,2.35,0,.29,0,.58-.07.89-.34,4.8-2,7.34-1.12,9.56s-3.63,5.67-4.11,4.74c0,0-2.23-6.15-2.81-7a6,6,0,0,1-.79-2.52,1,1,0,0,0-.76-.86,4.61,4.61,0,0,1-3.07-2.47,1,1,0,0,0-1.13-.57,33.21,33.21,0,0,1-12.72.13,1,1,0,0,1-.59-.38,15.42,15.42,0,0,1-2.45-4.9,16.49,16.49,0,0,1-.51-2.43c0-.21-.05-.42-.07-.63a.59.59,0,0,1,0-.13,15.33,15.33,0,0,1,6.95-5,10.08,10.08,0,0,1,4.33-.7,9.46,9.46,0,0,1,1.95.33c3.65,1,6.32,3.77,8.49,4.36,3.06.83,5.15-1.5,7.34,1.72a7,7,0,0,1,.42.69l.69,1.26A8.49,8.49,0,0,1,245.28,81.91Z" style="fill:#1a1a1a"/><path d="M261.27,204.91H226s-11.42,47.27-12.24,53.77l-13.63-.63,5.76-54.91h-12s.06,3.91-2,6.15-18.66,39.93-20.3,47.84L157,255.07l18.57-60.92A18.09,18.09,0,0,1,192.91,181H226.8c6-.35,16.41-1.71,21.69,0s17.58,8.22,23.92,9C272.41,190,273.22,204.91,261.27,204.91Z"/><path d="M268.48,141.46c-1.94-14.35-1.76-16.3-10.73-22.33s-12-8.29-12-8.29-13.47,10.43-12.59.62L225,115.19c-3.09.7-9,6.32-11.68,8l-9.05,31c4.35,2.93,13.87,4.72,16.16-.06a29.94,29.94,0,0,0-.34-19.75s0,10.82,3,17.9a73.33,73.33,0,0,1,4.22,14.54l-17.58,8.89,3.6,6.82L226.8,181c6-.35,16.41-1.71,21.69,0s17.58,8.22,23.92,9C273.58,165,270.41,155.82,268.48,141.46Z" style="fill:#50bed2"/><path d="M206.86,191.21a51.8,51.8,0,0,0-1.28,10.6.53.53,0,0,0,1,0,49.78,49.78,0,0,1,1.25-10.32C208,190.83,207,190.54,206.86,191.21Z" style="fill:#322f3a"/><path d="M192.41,191.65c-.24-.64-1.26-.36-1,.28a26.67,26.67,0,0,1,1.79,9.43.53.53,0,0,0,1.06,0A27.52,27.52,0,0,0,192.41,191.65Z" style="fill:#322f3a"/><path d="M222.07,122.72a37,37,0,0,0-1.25,8.11c0,.68,1,.68,1.05,0a36.38,36.38,0,0,1,1.22-7.83A.53.53,0,0,0,222.07,122.72Z" style="fill:#3c8f9e"/><path d="M249,130.33l-6.54,28.35a.45.45,0,0,0,0,.11q-6.57,3.61-13.45,6.56c-.63.27-.09,1.18.53.92a149.8,149.8,0,0,0,14-6.86.52.52,0,0,0,.05-.87L250,130.61C250.12,130,249.1,129.66,249,130.33Z" style="fill:#3c8f9e"/><path d="M267.86,184.6a47.38,47.38,0,0,0-4.68-2.58,32.05,32.05,0,0,0,.2-9.53c-.5-3.66-2.1-7.27-1.92-11,2.06-5.12,3-10.84,3.81-16.2.1-.67-.92-1-1-.28A78,78,0,0,1,261,159.88a.41.41,0,0,0-.43.39c0,.33-.07.65-.09,1a24,24,0,0,1-7.32,10.14c-3.91,3.06-8.82,3.91-13.53,5l-16,3.62c-.67.15-.39,1.18.28,1l17-3.85c4.66-1.06,9.32-2.06,13.14-5.14a24.18,24.18,0,0,0,6.49-8.39c.25,2.21.91,4.36,1.39,6.59a30.62,30.62,0,0,1,.28,11.33,47.75,47.75,0,0,0-13.28-3.83c-.67-.09-.95.94-.28,1a46.9,46.9,0,0,1,18.7,6.77C267.91,185.88,268.44,185,267.86,184.6Z" style="fill:#3c8f9e"/><path d="M246,111.15a28.35,28.35,0,0,1-6,3.24,14.46,14.46,0,0,1-3.15.94c-1.71.26-5-.56-3.61-3.2.33-.6-.58-1.13-.91-.53-1.47,2.68,1.08,4.92,3.68,4.89,3.63,0,7.61-2.41,10.51-4.42C247.07,111.69,246.54,110.76,246,111.15Z" style="fill:#3c8f9e"/><path d="M210.07,149s-5.18,3.5-5.78,5.21c-.11.3.37,6.11.89,12,.56,6.25,1.4,13.8,1.4,13.8s10.26,1.54,10.08-1.49c0-.26,3.79-24.38,3.79-24.38Z" style="fill:#50bed2"/><path d="M209.74,175.7l-1.21.56a6.2,6.2,0,0,0-1.81,1.28L204,180.37a3.86,3.86,0,0,0-.89,3.9l1.15,3.53a3.21,3.21,0,0,0,3.05,2.22h.37s1.24-5.58,5.66-7.5Z" style="fill:#efb589"/><path d="M208.25,271.66l-24.05-.22a1.08,1.08,0,0,1-1-.74c-.46-1.37-1-4.31,2-5.79,3.82-1.88,12.46-4.9,13.22-5.17l.1,0,1.28-.6a1.07,1.07,0,0,1,1,0c1.52.88,6.28,3.56,9.4,4.41,1,.27.67.76.48,2.12l-1.4,5.3A1.11,1.11,0,0,1,208.25,271.66Z" style="fill:#0b0635"/><path d="M163.93,269.19,139.88,269a1.08,1.08,0,0,1-1-.73c-.46-1.37-1-4.32,2-5.8,3.82-1.87,12.46-4.9,13.22-5.16l.11,0,1.27-.6a1.09,1.09,0,0,1,1,0c1.53.89,6.28,3.56,9.4,4.41,1,.28.67.76.48,2.12l-1.4,5.31A1.09,1.09,0,0,1,163.93,269.19Z" style="fill:#0b0635"/><path d="M237.64,96.49a11,11,0,0,1-3.06,6,.53.53,0,0,0,.74.75,11.81,11.81,0,0,0,3.33-6.5C238.76,96.1,237.75,95.81,237.64,96.49Z" style="fill:#db9e71"/><path d="M206.67,185.41a7.63,7.63,0,0,1-1.78-3c-.21-.64-1.23-.37-1,.29a8.94,8.94,0,0,0,2,3.44C206.39,186.65,207.14,185.9,206.67,185.41Z" style="fill:#db9e71"/><path d="M213.2,181a20.2,20.2,0,0,1-2.76-5.13c-.28-.73-1.14-.09-.87.64a21.44,21.44,0,0,0,2.92,5.38C212.94,182.45,213.64,181.56,213.2,181Z" style="fill:#352587"/><path d="M225.46,103.24a7.46,7.46,0,0,1-1.76-.23c-.08,0-.13-.14-.12-.27s.09-.21.17-.18,2.4.66,3.79-.33c.07,0,.16,0,.19.11a.32.32,0,0,1-.07.31A3.81,3.81,0,0,1,225.46,103.24Z" style="fill:#080305"/><path d="M227.84,91.24c.3.05.61.08.92.11s.62.07.92.12.6.09.9.15l.87.22h0c.21.06.4-.12.45-.4a.62.62,0,0,0-.19-.56,3.41,3.41,0,0,0-1-.49,5,5,0,0,0-1-.21,6.55,6.55,0,0,0-1,0,4.4,4.4,0,0,0-1,.18.47.47,0,0,0-.24.54.39.39,0,0,0,.28.35Z" style="fill:#080305"/><path d="M228.05,94.91a.73.73,0,1,0,.72-.83.78.78,0,0,0-.72.83Z" style="fill:#080305"/><path d="M225.53,99.31h.24a.13.13,0,0,0,0-.25c-.5,0-1.37,0-1.57-.27a6.23,6.23,0,0,1,0-2.45.13.13,0,0,0-.25,0c-.05.37-.31,2.23,0,2.64s1.1.37,1.53.37Z" style="fill:#080305"/><path d="M223.18,91.55c-.27,0-.57.08-.85.11l-.84.12c-.28,0-.56.09-.83.15l-.81.22h0c-.19.06-.37-.12-.41-.4a.64.64,0,0,1,.17-.56,3.15,3.15,0,0,1,.89-.49,4.36,4.36,0,0,1,.92-.21,5.53,5.53,0,0,1,.91,0,4.19,4.19,0,0,1,.91.18.49.49,0,0,1,.23.54.39.39,0,0,1-.26.35Z" style="fill:#080305"/><path d="M220.5,94.91a.74.74,0,1,0,.73-.83.79.79,0,0,0-.73.83Z" style="fill:#080305"/><path d="M240.9,94.08a2.9,2.9,0,1,1-2.9-2.92A2.91,2.91,0,0,1,240.9,94.08Z" style="fill:#efb589"/></svg>