<svg width="1448" height="545" viewBox="0 0 1448 545" fill="none" xmlns="http://www.w3.org/2000/svg">
<rect width="51.9582" height="52" transform="translate(698 246)" fill="rgba(0, 255, 255, 0)"/>
<rect width="1448" height="545" fill="rgba(0, 255, 255, 0)"/>
<rect width="1448" height="545" fill="rgba(0, 255, 255, 0)"/>
<path fill-rule="evenodd" clip-rule="evenodd" d="M743.319 246H704.639C700.978 246 698 248.981 698 252.645V291.355C698 295.019 700.978 298 704.639 298H743.319C746.98 298 749.958 295.019 749.958 291.355V252.645C749.958 248.981 746.98 246 743.319 246ZM746.898 291.355C746.898 293.33 745.292 294.937 743.319 294.937H704.639C702.666 294.937 701.06 293.33 701.06 291.355V285.768L711.133 277.191C711.5 276.878 712.037 276.875 712.408 277.184L718.717 282.427C719.325 282.933 720.218 282.891 720.778 282.331L735.769 267.305C736.04 267.033 736.356 267.007 736.521 267.015C736.685 267.023 736.997 267.082 737.239 267.38L746.898 279.282V291.355H746.898ZM739.615 265.449L746.898 274.424V252.645C746.898 250.67 745.292 249.063 743.319 249.063H704.639C702.666 249.063 701.06 250.67 701.06 252.645V281.747L709.15 274.859C710.652 273.579 712.845 273.566 714.363 274.828L719.598 279.178L733.603 265.14C734.413 264.329 735.534 263.898 736.678 263.956C737.822 264.015 738.893 264.559 739.615 265.449Z" fill="#9DAFBD"/>
<path fill-rule="evenodd" clip-rule="evenodd" d="M707.036 259.826C707.036 255.75 710.349 252.435 714.422 252.435C718.494 252.435 721.807 255.75 721.807 259.826C721.807 263.901 718.494 267.217 714.422 267.217C710.349 267.217 707.036 263.901 707.036 259.826ZM710.099 259.826C710.099 262.211 712.038 264.152 714.422 264.152C716.805 264.152 718.744 262.211 718.744 259.826C718.744 257.441 716.805 255.5 714.422 255.5C712.038 255.5 710.099 257.441 710.099 259.826Z" fill="#9DAFBD"/>
<defs>
<linearGradient id="paint0_linear_36_1090" x1="724" y1="0" x2="724" y2="545" gradientUnits="userSpaceOnUse">
<stop stop-color="white"/>
<stop offset="1" stop-color="white" stop-opacity="0"/>
</linearGradient>
</defs>
</svg>
