<svg width="31" height="30" viewBox="0 0 31 30" fill="none" xmlns="http://www.w3.org/2000/svg">
<path fill-rule="evenodd" clip-rule="evenodd" d="M29.7031 6.38662C29.2555 5.29191 28.6288 4.36563 27.7336 3.60776C26.8384 2.84989 25.9432 2.17622 24.7794 1.75519C23.6156 1.33415 22.4518 1.08152 20.9299 1.08152C19.408 0.997314 18.9604 0.997314 15.29 0.997314C11.6196 0.997314 11.172 0.997314 9.65007 1.08152C8.12819 1.16573 6.9644 1.33415 5.80061 1.75519C4.63681 2.17622 3.65207 2.76568 2.84636 3.60776C2.04066 4.44984 1.32448 5.29191 0.876869 6.38662C0.429257 7.48132 0.160689 8.57602 0.160689 10.0076C0.071167 11.4391 0.071167 11.8601 0.071167 15.3126C0.071167 18.7652 0.071167 19.1862 0.160689 20.6177C0.250212 22.0493 0.429257 23.144 0.876869 24.2387C1.32448 25.3334 1.95114 26.2597 2.84636 27.0175C3.74159 27.7754 4.63681 28.4491 5.80061 28.8701C6.9644 29.2912 8.12819 29.5438 9.65007 29.5438C11.172 29.628 11.6196 29.628 15.29 29.628C18.9604 29.628 19.408 29.628 20.9299 29.5438C22.4518 29.4596 23.6156 29.2912 24.7794 28.8701C25.9432 28.4491 26.9279 27.8596 27.7336 27.0175C28.5393 26.1755 29.2555 25.3334 29.7031 24.2387C30.1507 23.144 30.4193 22.0493 30.4193 20.6177C30.5088 19.1862 30.5088 18.7652 30.5088 15.3129V15.3126V15.3124C30.5088 11.8601 30.5088 11.4391 30.4193 10.0076C30.3298 8.57602 30.1507 7.48132 29.7031 6.38662ZM26.838 20.4489C26.7485 21.7963 26.5694 22.4699 26.3008 22.9752C26.0323 23.6488 25.6742 24.1541 25.1371 24.6593C24.5999 25.1646 24.0628 25.5014 23.3466 25.754L23.2395 25.7878C22.7134 25.9546 22.0002 26.1805 20.6609 26.2593H15.2896C11.7087 26.2593 11.2611 26.2593 9.82871 26.1751C8.39635 26.0909 7.68017 25.9224 7.14304 25.6698C6.42686 25.4172 5.88972 25.0804 5.35259 24.5751C4.81545 24.0699 4.45736 23.5646 4.18879 22.891L4.15283 22.7902C3.9756 22.2953 3.73536 21.6245 3.65166 20.3647V15.3122C3.65166 11.9439 3.65166 11.5229 3.74118 10.1756C3.8307 8.82824 4.00975 8.15458 4.27832 7.64933C4.54688 6.97567 4.90497 6.47042 5.44211 5.96518C5.97924 5.45993 6.51638 5.1231 7.23256 4.87047L7.33968 4.83665C7.86579 4.66994 8.57895 4.44396 9.91823 4.36523H15.2896C18.8705 4.36523 19.3181 4.36523 20.7505 4.44943C22.1828 4.53364 22.899 4.70206 23.4361 4.95468C24.1523 5.2073 24.6894 5.54414 25.2266 6.04938C25.7637 6.55463 26.1218 7.05988 26.3904 7.73354L26.4263 7.8343C26.6036 8.32918 26.8438 8.99999 26.9275 10.2598V15.3122C26.9275 18.6806 26.9275 19.1016 26.838 20.4489ZM22.899 9.75453C23.8384 9.75453 24.5999 9.03821 24.5999 8.15458C24.5999 7.27095 23.8384 6.55463 22.899 6.55463C21.9596 6.55463 21.1981 7.27095 21.1981 8.15458C21.1981 9.03821 21.9596 9.75453 22.899 9.75453ZM7.41161 15.3122C7.41161 11.1861 10.903 7.90195 15.2896 7.90195C19.6762 7.90195 23.1676 11.1861 23.1676 15.3122C23.1676 19.4384 19.6762 22.7225 15.2896 22.7225C10.903 22.7225 7.41161 19.4384 7.41161 15.3122ZM10.9925 15.3122C10.9925 17.5016 12.962 19.3542 15.2896 19.3542C17.6172 19.3542 19.5867 17.5016 19.5867 15.3122C19.5867 13.1228 17.6172 11.2703 15.2896 11.2703C12.962 11.2703 10.9925 13.1228 10.9925 15.3122Z" fill="#4699C2"/>
</svg>
