<svg width="509" height="462" viewBox="0 0 509 462" fill="none" xmlns="http://www.w3.org/2000/svg">
<path fill-rule="evenodd" clip-rule="evenodd" d="M330.486 18.5783L326.767 19.2218C331.886 25.1163 328.924 35.6719 326.373 42.0687C325.362 50.4198 320.827 57.3735 314.668 60.6157L312.938 71.154C313.638 70.8259 314.083 70.5939 314.083 70.5939L312.767 79.4112C312.767 79.4112 333.165 97.8474 337.771 106.665C338.007 107.116 338.162 107.733 338.243 108.497C339.312 110.221 340.278 112.806 340.732 116.684C342.049 127.906 344.352 197.242 344.352 197.242C344.352 197.242 352.906 219.687 349.616 222.893C346.326 226.099 348.3 230.909 348.3 230.909L347.08 231.321C347.958 232.845 348.945 234.663 349.878 236.61L359.909 202.585L360.434 202.815L369.109 173.393L391.988 166.558C393.255 158.344 393.871 149.629 393.873 140.006L422.245 153.181C423.993 151.157 429.18 151.354 434.994 153.71L435.047 153.695L435.076 153.743C435.568 153.945 436.065 154.161 436.565 154.393C442.996 157.38 447.697 161.912 447.913 165.1L473.011 176.755C468.735 184.154 465.037 191.127 461.834 197.957L475.008 219.726L456.101 283.849L453.794 291.676H509V293.212H403.623V291.676H452.578L400.035 268.688L399.847 269.327L353.519 249.058C353.494 251.68 352.592 253.826 350.274 254.956C342.418 258.784 337.48 242.809 336.455 234.916L316.952 197.756C317.932 209.692 319.146 227.719 317.373 226.099C317.358 226.086 317.343 226.072 317.327 226.059L317.315 226.049L317.295 226.032C319.983 244.427 321.979 309.463 321.979 309.463C321.979 309.463 320.005 392.826 318.689 396.033C317.846 398.086 318.083 398.496 318.707 399.577C319.058 400.185 319.531 401.004 320.005 402.445C321.321 406.453 318.031 414.469 318.031 414.469C318.031 414.469 317.502 414.745 316.598 415.189C318 419.105 321.829 429.637 324.535 435.541H366.93V437.144H325.301C325.8 438.139 326.238 438.895 326.585 439.318C329.217 442.524 329.875 453.746 328.559 459.357C327.243 464.968 302.896 460.96 303.554 453.746C304.212 446.532 300.264 447.333 300.264 447.333C300.264 447.333 298.948 445.73 294.342 441.722C293.314 440.828 292.908 439.174 292.899 437.144H115.109V440.971H89.708V437.144H56.8715V435.541H85.0289V404.329H96.9232C94.8188 400.033 93.6767 395.126 93.6258 390.102C93.6465 381.899 96.9 374.436 100.046 367.219L100.047 367.218L100.057 367.195L100.057 367.194L100.057 367.193L100.058 367.192L100.058 367.191L100.059 367.19C100.628 365.885 101.194 364.585 101.74 363.286C104.025 357.995 105.847 352.426 107.175 346.67C111.763 325.902 107.518 301.494 95.8223 280.922C93.4173 283.012 87.0312 287.85 79.6337 287.657C70.2091 287.411 62.7119 279.091 62.7119 279.091C62.7119 279.091 70.4951 271.171 79.9197 271.417C85.4538 271.561 90.3233 274.49 93.4006 276.883C83.5615 261.271 69.2928 247.485 49.8758 234.822C47.5323 237.339 41.7659 242.711 34.6166 243.507C25.2289 244.552 17.0119 237.311 17.0119 237.311C17.0119 237.311 21.4923 231.595 28.0895 228.771C22.6086 223.335 19.9813 215.969 19.9813 215.969C19.9813 215.969 29.745 212.627 38.2597 217.555C45.5443 221.771 49.5548 230.673 50.5616 233.157C50.8529 233.39 51.0077 233.526 51.0077 233.526C51.0077 233.526 50.9378 233.616 50.8027 233.777L50.8159 233.813L50.7986 233.819L50.7555 233.833C50.6979 233.902 50.6307 233.98 50.5542 234.069C70.794 247.311 85.4589 261.793 95.3595 278.309C95.4567 278.472 95.5535 278.634 95.6499 278.797C96.4195 279.515 96.8415 279.983 96.8415 279.983C96.8415 279.983 96.7305 280.096 96.5189 280.294C102.553 290.901 106.629 302.523 108.562 314.158C108.747 309.877 109.549 304.344 112.027 299.416C116.951 289.623 126.628 285.927 126.628 285.927C126.628 285.927 128.322 298.108 123.398 307.9C119.249 316.151 111.726 320.074 109.46 321.104C110.279 329.976 109.824 338.738 108.011 346.944C106.668 352.771 104.824 358.41 102.511 363.766C101.959 365.08 101.386 366.394 100.812 367.713C97.7143 374.817 94.5118 382.163 94.4918 390.106C94.545 395.15 95.7409 400.071 97.9386 404.329H111.767V410.029H115.109V435.541H123.149L123.777 380.837L123.576 380.71V379.209H206.955V380.71L206.676 380.883L206.034 435.541H223.01C216.26 430.634 230.514 414.469 230.514 414.469L239.711 402.565C239.593 391.649 238.695 323.978 234.462 315.875C231.433 310.077 233.526 284.52 235.314 262.683L235.314 262.683C236.245 251.314 237.094 240.954 237.094 234.916C237.094 226.585 237.975 222.011 238.905 219.503C237.554 216.643 244.332 183.616 244.332 183.616C244.332 183.616 244.314 183.299 244.28 182.701C243.594 184.571 242.946 185.976 242.358 186.822C238.519 192.349 237.086 193.366 236.784 193.581L236.783 193.582C236.763 193.596 236.748 193.606 236.738 193.615C236.73 193.62 236.725 193.625 236.722 193.629C236.72 193.632 236.719 193.634 236.72 193.636L236.72 193.638L236.721 193.638L236.722 193.64C236.723 193.64 236.724 193.641 236.725 193.641C236.727 193.643 236.729 193.644 236.733 193.645C236.737 193.646 236.741 193.647 236.746 193.649L236.759 193.652C236.89 193.683 237.321 193.787 237.752 194.838C239.068 198.044 237.094 206.06 235.12 208.465C233.146 210.869 236.436 216.48 236.436 216.48L234.075 216.812C235.691 223.91 237.957 239.626 227.882 244.535C217.397 249.644 219.442 227.79 220.707 218.691L219.327 218.885C219.327 218.885 219.985 211.671 218.011 206.06C216.409 201.507 228.24 139.42 233.812 110.176C235.107 103.381 236.064 98.3599 236.436 96.2443C237.581 89.7334 242.049 84.5716 245.599 81.3852C252.531 62.0334 285.788 65.7845 285.788 65.7845L290.738 60.0256L291.425 53.5476C288.721 49.4327 287.104 44.2119 287.104 38.531C287.104 36.8176 287.251 35.146 287.53 33.534C287.289 32.4479 287.214 31.3061 287.321 30.1673C287.544 27.8582 288.05 25.6027 288.82 23.4753L283.235 22.5855L289.348 20.1021L288.649 15.5904L292.277 16.6704C295.823 11.329 300.644 7.08528 304.796 3.49016C312.695 -3.3489 318.807 1.97177 318.807 1.97177L315.289 4.86354C325.309 6.97117 330.486 18.5783 330.486 18.5783ZM89.708 410.029H110.43V405.958H86.3658L86.3658 435.271H89.708V410.029ZM291.71 331.105C291.71 331.105 289.828 417.44 296.475 421.533C295.217 425.042 293.337 430.911 292.965 435.541H237.934C248.037 432.152 253.545 423.724 253.545 422.485C253.545 420.881 254.203 415.27 258.809 415.27C263.415 415.27 274.601 401.644 271.969 396.033C270.041 391.922 265.287 389.532 262.883 388.548L264.073 378.398L266.705 323.891L277.233 255.757L291.71 331.105ZM126.824 147.237L139.938 141.059L139.149 138.572L123.92 145.746L129.605 163.655L131.721 162.659L126.824 147.237ZM139.679 137.178L140.784 140.661L142.899 139.664L148.901 158.568L132.826 166.141L132.037 163.654L129.075 165.049L122.758 145.15L139.679 137.178ZM432.676 350.261L437.247 366.458L439.318 365.591L434.009 346.782L419.103 353.024L419.84 355.637L432.676 350.261ZM416.941 356.851L419.012 355.984L417.98 352.326L434.542 345.39L440.441 366.289L437.542 367.503L438.28 370.116L422.545 376.706L416.941 356.851ZM67.8154 229.31C66.9156 240.741 72.8231 250.783 72.8231 250.783C72.8231 250.783 80.1896 242.292 81.0894 230.861C81.9892 219.43 76.0816 209.388 76.0816 209.388C76.0816 209.388 68.7152 217.88 67.8154 229.31ZM16.4542 224.652C16.4542 230.187 12.7708 234.674 8.22715 234.674C3.68349 234.674 0.000125506 230.187 0.000125506 224.652C0.000125506 219.117 3.68349 214.63 8.22715 214.63C12.7708 214.63 16.4542 219.117 16.4542 224.652ZM450.958 68.5957C453.729 68.2869 456.523 68.6459 459.18 69.6523C464.545 71.6847 469.028 76.2304 471.643 82.2894C474.257 88.3484 474.789 95.4243 473.12 101.961C469.646 115.572 438.651 150.073 438.651 150.073C438.651 150.073 429.183 100.245 432.657 86.6341C433.483 83.3976 434.825 80.3911 436.605 77.7861C438.385 75.1812 440.568 73.0288 443.031 71.4519C445.494 69.875 448.188 68.9044 450.958 68.5957ZM445.087 101.987C446.335 103.867 448.013 105.253 449.909 105.971C451.167 106.448 452.491 106.618 453.803 106.472C455.115 106.326 456.391 105.866 457.558 105.119C458.725 104.372 459.759 103.352 460.602 102.118C461.445 100.884 462.081 99.4603 462.472 97.9273C463.061 95.6184 463.075 93.1484 462.512 90.8298C461.949 88.5112 460.835 86.448 459.309 84.9011C457.784 83.3542 455.916 82.3932 453.942 82.1395C451.968 81.8858 449.976 82.3508 448.219 83.4758C446.462 84.6008 445.019 86.3352 444.071 88.4596C443.123 90.5841 442.714 93.0032 442.894 95.4111C443.075 97.819 443.838 100.107 445.087 101.987Z" fill="#4699C2"/>
</svg>
