<svg width="313" height="258" viewBox="0 0 313 258" fill="none" xmlns="http://www.w3.org/2000/svg">
<g clip-path="url(#clip0_53_535)">
<path d="M225.637 243.224H34.9722V244.12H225.637V243.224Z" fill="#70CDD6"/>
<path d="M136.085 119.996C136.085 119.996 132.039 140.14 140.131 136.559C148.224 132.978 143.369 119.101 143.369 119.101L136.085 119.996Z" fill="#FFB9B9"/>
<path d="M211.752 126.711C211.752 126.711 221.464 139.692 215.394 142.378C209.325 145.064 206.088 130.292 206.897 128.949C207.706 127.606 211.752 126.711 211.752 126.711Z" fill="#FFB9B9"/>
<path d="M188.688 34.9463C195.393 34.9463 200.827 28.9339 200.827 21.5173C200.827 14.1007 195.393 8.08838 188.688 8.08838C181.984 8.08838 176.549 14.1007 176.549 21.5173C176.549 28.9339 181.984 34.9463 188.688 34.9463Z" fill="#FFB9B9"/>
<path d="M179.584 26.6652L177.965 40.5417L191.318 45.9132L194.151 30.246L179.584 26.6652Z" fill="#FFB9B9"/>
<path d="M187.069 40.3178C187.069 40.3178 180.21 36.5716 178.784 33.5208L175.74 36.7368C175.74 36.7368 153.889 34.4986 150.652 46.5847C147.415 58.6707 150.247 102.539 150.247 102.539C150.247 102.539 145.796 122.234 147.01 122.682C148.224 123.13 163.196 131.187 184.237 126.711C184.237 126.711 193.544 124.92 195.162 126.263C196.781 127.606 194.353 104.777 194.353 104.777C194.353 104.777 210.538 64.4899 207.706 59.566C204.874 54.642 192.33 44.3465 192.33 44.3465L193.139 39.4225C193.139 39.4225 187.474 42.1083 187.069 40.3178Z" fill="#CFCCE0"/>
<path d="M153.889 43.4513C153.889 43.4513 146.606 47.48 145.392 53.7468C144.178 60.0137 132.848 111.939 134.062 115.072C135.276 118.206 134.871 122.235 134.871 122.235L145.392 120.892C145.392 120.892 143.369 117.758 144.583 116.415C145.797 115.072 147.01 110.596 146.201 108.806C145.392 107.015 144.583 110.148 149.034 104.329C153.485 98.51 163.601 45.2418 153.889 43.4513Z" fill="#CFCCE0"/>
<path d="M205.278 58.6707C205.278 58.6707 208.718 58.8945 209.527 65.1614C210.336 71.4282 211.753 110.148 211.753 110.148C211.753 110.148 217.013 122.682 214.99 124.473C212.966 126.263 214.18 128.949 214.18 128.949L206.897 131.187L191.116 103.882L205.278 58.6707Z" fill="#CFCCE0"/>
<path d="M148.224 120.892C148.224 120.892 145.796 121.339 145.796 131.187C145.796 141.035 141.345 171.474 144.178 176.398C147.01 181.322 147.415 225.637 147.415 225.637C147.415 225.637 155.103 229.219 161.577 217.58L162.387 211.313L164.005 180.874L170.479 142.826L179.381 184.903C179.381 184.903 178.167 235.485 182.619 235.485C187.07 235.485 195.567 231.457 195.567 231.457C195.567 231.457 197.59 226.98 196.781 224.742C195.972 222.504 195.162 222.952 195.972 221.161C196.781 219.371 197.995 172.817 197.995 172.817C197.995 172.817 196.376 124.92 194.353 123.577C192.33 122.234 148.224 120.892 148.224 120.892Z" fill="#2F2E41"/>
<path d="M148.224 223.847L141.75 231.457C141.75 231.457 130.016 243.543 140.132 243.99C150.248 244.438 155.913 236.828 155.913 235.933C155.913 235.038 156.317 231.904 159.15 231.904C161.982 231.904 168.861 224.295 167.242 221.161C165.624 218.028 160.768 216.685 160.768 216.685L148.224 223.847Z" fill="#2F2E41"/>
<path d="M183.023 233.695C183.023 233.695 178.167 244.438 181 246.676C183.832 248.914 184.642 249.81 184.642 249.81C184.642 249.81 187.07 249.362 186.665 253.391C186.26 257.419 201.232 259.657 202.041 256.524C202.85 253.391 202.446 247.124 200.827 245.333C199.209 243.543 194.353 231.009 194.353 231.009C194.353 231.009 189.093 224.295 183.023 233.695Z" fill="#2F2E41"/>
<path d="M200.94 10.7342L203.226 10.3749C203.226 10.3749 200.043 3.89299 193.881 2.716L196.044 1.10112C196.044 1.10112 192.286 -1.87016 187.429 1.94905C184.875 3.95672 181.911 6.32656 179.73 9.30944L177.499 8.70635L177.929 11.2259L174.17 12.6127L177.605 13.1096C177.131 14.2976 176.82 15.5572 176.683 16.8467C176.55 18.1377 176.875 19.4355 177.59 20.4661C177.59 20.4661 181.48 15.2493 181.684 14.3268L181.175 16.633C181.175 16.633 183.716 15.1206 184.022 13.7368L184.801 15.6584L185.93 13.2751L192.376 17.7062L191.698 15.3234L195.901 17.1927L194.757 14.1951C194.757 14.1951 199.018 18.5243 198.647 21.1124C198.276 23.7004 199.186 26.4939 199.186 26.4939C199.186 26.4939 205.667 15.6783 200.94 10.7342Z" fill="#2F2E41"/>
<path d="M313 162.884H248.2V163.742H313V162.884Z" fill="#70CDD6"/>
<path d="M70.7841 228.977H55.1643V246.257H70.7841V228.977Z" fill="#CFCCE0"/>
<path d="M68.7288 243.983H52.2869V225.794H68.7288V243.983ZM53.109 243.074H67.9067V226.704H53.109L53.109 243.074Z" fill="#70CDD6"/>
<path d="M87.8733 77.9942L77.9883 82.2234L81.679 92.7801L91.564 88.5508L87.8733 77.9942Z" fill="#F2F2F2"/>
<path d="M89.7778 87.7183L79.3725 92.1702L75.4875 81.0579L85.8928 76.606L89.7778 87.7183ZM79.6985 91.392L89.0633 87.3853L85.5668 77.3842L76.2021 81.3909L79.6985 91.392Z" fill="#70CDD6"/>
<path d="M269.512 206.688L266.066 195.6L256.39 199.28L259.836 210.368L269.512 206.688Z" fill="#F2F2F2"/>
<path d="M260.656 208.425L257.029 196.754L267.214 192.88L270.841 204.551L260.656 208.425ZM257.719 197.144L260.984 207.648L270.15 204.161L266.886 193.657L257.719 197.144Z" fill="#70CDD6"/>
<path d="M49.1451 151.57C54.9406 151.708 59.5508 156.354 59.5508 156.354C59.5508 156.354 54.7647 160.777 48.9692 160.64C43.1737 160.502 38.5635 155.856 38.5635 155.856C38.5635 155.856 43.3496 151.433 49.1451 151.57Z" fill="#4699C2"/>
<path d="M20.0083 129.685C25.2443 132.437 31.2483 130.571 31.2483 130.571C31.2483 130.571 28.7631 124.244 23.5271 121.492C18.2911 118.74 12.2871 120.606 12.2871 120.606C12.2871 120.606 14.7723 126.934 20.0083 129.685Z" fill="#4699C2"/>
<path d="M20.5406 126.951C26.3133 126.367 31.3662 130.411 31.3662 130.411C31.3662 130.411 27.0596 135.401 21.2868 135.984C15.5141 136.568 10.4612 132.524 10.4612 132.524C10.4612 132.524 14.7678 127.534 20.5406 126.951Z" fill="#70CDD6"/>
<path d="M41.7016 128.056C41.1483 134.44 44.7811 140.048 44.7811 140.048C44.7811 140.048 49.3109 135.306 49.8643 128.922C50.4176 122.539 46.7848 116.931 46.7848 116.931C46.7848 116.931 42.255 121.673 41.7016 128.056Z" fill="#70CDD6"/>
<path d="M68.8887 167.206C65.8608 172.675 66.9026 179.477 66.9026 179.477C66.9026 179.477 72.8534 177.413 75.8813 171.944C78.9092 166.476 77.8674 159.674 77.8674 159.674C77.8674 159.674 71.9166 161.738 68.8887 167.206Z" fill="#70CDD6"/>
<path d="M60.1046 226.662L60.5458 226.332C58.9905 223.835 58.1412 220.883 58.106 217.851C58.1183 213.416 60.0877 209.313 61.9922 205.346C62.3457 204.61 62.698 203.876 63.037 203.142C64.4597 200.151 65.5935 197.002 66.4197 193.748C69.3738 181.603 66.4653 167.275 58.6396 155.419C52.4315 146.015 43.177 137.791 30.3477 130.277L30.0986 130.798C42.8548 138.268 52.05 146.436 58.2095 155.767C65.9411 167.48 68.818 181.621 65.9053 193.595C65.0888 196.809 63.9686 199.919 62.563 202.874C62.2251 203.605 61.874 204.336 61.5218 205.07C59.587 209.1 57.5862 213.268 57.5735 217.849C57.6087 221 58.4897 224.067 60.1046 226.662Z" fill="#70CDD6"/>
<path d="M5.05906 131.051C7.8531 131.051 10.1181 128.546 10.1181 125.455C10.1181 122.364 7.8531 119.858 5.05906 119.858C2.26502 119.858 0 122.364 0 125.455C0 128.546 2.26502 131.051 5.05906 131.051Z" fill="#70CDD6"/>
<path d="M280.471 158.513L215.351 132.639L226.976 96.8299L267.524 85.8295L292.097 122.704L280.471 158.513Z" fill="#2F2E41"/>
<path d="M272.582 151.412L223.917 130.89C236.551 112.17 242.2 98.9649 242.205 78.1854L290.869 98.7071C279.563 116.473 274.835 129.829 272.582 151.412Z" fill="#F2F2F2"/>
<path d="M276.413 101.515L251.201 90.8835L250.754 92.1808L275.965 102.813L276.413 101.515Z" fill="#70CDD6"/>
<path d="M274.624 106.704L249.413 96.0725L248.966 97.3698L274.177 108.002L274.624 106.704Z" fill="#70CDD6"/>
<path d="M272.837 111.893L247.625 101.261L247.178 102.559L272.39 113.19L272.837 111.893Z" fill="#70CDD6"/>
<path d="M271.048 117.082L245.837 106.45L245.39 107.748L270.601 118.379L271.048 117.082Z" fill="#70CDD6"/>
<path d="M269.26 122.271L244.049 111.639L243.602 112.937L268.813 123.568L269.26 122.271Z" fill="#70CDD6"/>
<path d="M267.473 127.46L242.261 116.828L241.814 118.126L267.026 128.757L267.473 127.46Z" fill="#70CDD6"/>
<path d="M265.684 132.649L240.473 122.017L240.026 123.314L265.237 133.946L265.684 132.649Z" fill="#70CDD6"/>
<path d="M263.896 137.838L238.685 127.206L238.238 128.503L263.449 139.135L263.896 137.838Z" fill="#70CDD6"/>
<path d="M278.966 163.147L213.846 137.273L226.977 96.8298L254.476 125.354L292.097 122.704L278.966 163.147Z" fill="#70CDD6"/>
<path d="M245.878 150.403L213.408 137.502L221.319 113.132L221.965 113.388L214.285 137.044L246.11 149.689L245.878 150.403Z" fill="#4699C2"/>
<path d="M234.336 124.486L224.816 120.704L223.448 124.916L232.968 128.699L234.336 124.486Z" fill="#4699C2"/>
<path d="M126.692 243.543L75.7249 243.513L76.125 211.859L101.454 224.453L127.093 212.648L126.692 243.543Z" fill="#70CDD6"/>
<path d="M87.2341 229.18L79.7827 229.065L79.741 232.362L87.1924 232.478L87.2341 229.18Z" fill="#4699C2"/>
<path d="M127.263 212.605L101.501 227.134L75.9907 212.605V211.766H127.263V212.605Z" fill="#4699C2"/>
<path d="M275.364 92.7971C275.973 91.0297 272.881 88.0848 268.457 86.2195C264.034 84.3541 259.954 84.2748 259.345 86.0422C258.736 87.8096 261.829 90.7545 266.252 92.6198C270.675 94.4851 274.755 94.5645 275.364 92.7971Z" fill="#4699C2"/>
<path d="M282.364 38.8967C280.73 38.3347 279.012 38.1342 277.308 38.3066C275.605 38.4791 273.948 39.0211 272.434 39.9017C270.919 40.7823 269.576 41.9843 268.482 43.439C267.387 44.8937 266.562 46.5727 266.054 48.38C263.918 55.981 269.74 83.807 269.74 83.807C269.74 83.807 288.8 64.54 290.936 56.939C291.962 53.2889 291.635 49.3374 290.028 45.9538C288.42 42.5702 285.663 40.0317 282.364 38.8967ZM276.663 59.1788C275.497 58.7778 274.465 58.0036 273.698 56.9539C272.93 55.9042 272.461 54.6262 272.35 53.2815C272.238 51.9368 272.49 50.5859 273.073 49.3995C273.656 48.2131 274.544 47.2446 275.624 46.6163C276.704 45.9881 277.929 45.7284 279.143 45.8701C280.357 46.0118 281.505 46.5484 282.443 47.4123C283.382 48.2761 284.067 49.4283 284.413 50.7231C284.76 52.0179 284.751 53.3973 284.388 54.6866C284.148 55.5428 283.757 56.3381 283.239 57.0271C282.72 57.7162 282.084 58.2856 281.367 58.7027C280.649 59.1198 279.865 59.3766 279.058 59.4583C278.251 59.5399 277.437 59.445 276.663 59.1788Z" fill="#4699C2"/>
</g>
<defs>
<clipPath id="clip0_53_535">
<rect width="313" height="258" fill="white"/>
</clipPath>
</defs>
</svg>
