<svg width="31" height="29" viewBox="0 0 31 29" fill="none" xmlns="http://www.w3.org/2000/svg">
<path fill-rule="evenodd" clip-rule="evenodd" d="M30.4339 5.15888C29.2926 5.60618 28.1514 5.96402 26.8199 6.05348C28.1514 5.3378 29.1024 4.17482 29.578 2.83292C28.3416 3.5486 27.0101 3.9959 25.5835 4.26428C24.4422 3.1013 22.8254 2.38562 21.1135 2.38562C17.6897 2.38562 14.8365 4.97996 14.8365 8.28997C14.8365 8.73727 14.9316 9.18457 15.0267 9.63187C9.79592 9.36349 5.23083 7.03753 2.18744 3.45914C1.6168 4.35374 1.33148 5.3378 1.33148 6.41131C1.33148 8.46889 2.47276 10.2581 4.08956 11.3316C3.04339 11.3316 2.09233 11.0632 1.23638 10.6159V10.7054C1.23638 13.5681 3.42382 15.8941 6.277 16.4308C5.70636 16.5203 5.23083 16.6097 4.66019 16.6097C4.27977 16.6097 3.89935 16.6097 3.51892 16.5203C4.27977 18.8462 6.65742 20.546 9.32039 20.6354C7.22806 22.2457 4.46998 23.1403 1.5217 23.1403C1.04617 23.1403 0.47553 23.1403 0 23.0509C2.75807 24.7506 6.08678 25.6452 9.60571 25.6452C21.1135 25.6452 27.3905 16.6992 27.3905 8.91619C27.3905 8.64781 27.3905 8.37943 27.3905 8.20051C28.5318 7.39537 29.578 6.32185 30.4339 5.15888Z" fill="#4699C2"/>
</svg>
