<svg width="22" height="23" viewBox="0 0 22 23" fill="none" xmlns="http://www.w3.org/2000/svg">
<path fill-rule="evenodd" clip-rule="evenodd" d="M10.5887 22.1115C16.3969 22.1115 21.1054 17.3516 21.1054 11.4799C21.1054 5.60825 16.3969 0.848328 10.5887 0.848328C4.78049 0.848328 0.0720215 5.60825 0.0720215 11.4799C0.0720215 17.3516 4.78049 22.1115 10.5887 22.1115Z" fill="#637381"/>
<path d="M13.831 16.045C14.0252 15.8995 14.0678 15.6599 13.9494 15.3218L12.9597 12.396L15.4884 10.5974C15.7821 10.3907 15.9004 10.17 15.8247 9.93991C15.7489 9.70979 15.5263 9.59708 15.1617 9.60178L12.0599 9.62526L11.1176 6.68541C11.0039 6.34258 10.8334 6.16412 10.5872 6.16412C10.3457 6.16412 10.1752 6.34258 10.0616 6.68541L9.11919 9.62526L6.01743 9.60178C5.65279 9.59708 5.43022 9.70979 5.35445 9.93991C5.27395 10.17 5.39707 10.3907 5.69068 10.5974L8.21944 12.396L7.22972 15.3218C7.11133 15.6599 7.15395 15.8995 7.34811 16.045C7.54226 16.1953 7.78851 16.1437 8.08211 15.9323L10.5872 14.1055L13.097 15.9323C13.3906 16.1437 13.6321 16.1953 13.831 16.045Z" fill="#C4CDD5"/>
</svg>
