<svg width="24" height="24" viewBox="0 0 24 24" fill="none" xmlns="http://www.w3.org/2000/svg">
<path fill-rule="evenodd" clip-rule="evenodd" d="M22.5918 13.0851H4.879L10.1989 18.1371C10.467 18.3917 10.6176 18.737 10.6176 19.097C10.6176 19.4571 10.467 19.8024 10.1989 20.057C9.93089 20.3115 9.56741 20.4545 9.18841 20.4545C8.8094 20.4545 8.44593 20.3115 8.17795 20.057L0.418247 12.6869C-0.139416 12.1564 -0.139416 11.2972 0.418247 10.7668L8.17795 3.3976C8.45712 3.13243 8.82237 3 9.18856 3C9.55476 3 9.92064 3.13213 10.1992 3.3973C10.4673 3.65184 10.6179 3.99715 10.6179 4.35721C10.6179 4.71727 10.4673 5.06257 10.1992 5.31712L4.879 10.3698H22.5918C23.3729 10.3808 24 10.9854 24 11.7274C24 12.4694 23.3729 13.074 22.5918 13.0851Z" fill="#4699C2"/>
</svg>
