<svg width="565" height="469" viewBox="0 0 565 469" fill="none" xmlns="http://www.w3.org/2000/svg">
<g clip-path="url(#clip0_55_209)">
<path d="M227.478 459.154C227.478 464.569 194.137 469 152.911 469C111.686 469 78.3445 464.569 78.3445 459.154C78.3445 453.739 111.686 449.308 152.911 449.308C194.137 449.308 227.478 453.575 227.478 459.154Z" fill="#AEE4ED"/>
<path d="M489.612 454.231C531.248 454.231 565 450.925 565 446.846C565 442.768 531.248 439.462 489.612 439.462C447.976 439.462 414.224 442.768 414.224 446.846C414.224 450.925 447.976 454.231 489.612 454.231Z" fill="#AEE4ED"/>
<path d="M23.3227 363.483H14.4535V354.622H8.86919V363.483H0V369.063H8.86919V377.924H14.4535V369.063H23.3227V363.483Z" fill="#30C5CC"/>
<path d="M31.3706 347.237C31.3706 350.191 28.907 352.653 25.9506 352.653C22.9942 352.653 20.5305 350.191 20.5305 347.237C20.5305 344.283 22.9942 341.822 25.9506 341.822C28.907 341.658 31.3706 344.119 31.3706 347.237Z" fill="#3D9CFF"/>
<path d="M489.448 418.129H71.9389C55.186 418.129 41.5538 404.508 41.5538 387.77V65.3121C41.5538 48.5738 55.186 34.9534 71.9389 34.9534H489.448C506.201 34.9534 519.833 48.5738 519.833 65.3121V387.77C519.833 404.508 506.201 418.129 489.448 418.129Z" fill="#30C5CC"/>
<path d="M75.7166 404.508C64.8764 404.508 56.0073 395.647 56.0073 384.816V68.43C56.0073 57.5994 64.8764 48.7379 75.7166 48.7379H485.67C496.51 48.7379 505.379 57.5994 505.379 68.43V384.816C505.379 395.647 496.51 404.508 485.67 404.508H75.7166V404.508Z" fill="#0B9B9B"/>
<path d="M480.907 394.17H80.4796C73.4171 394.17 67.6686 388.427 67.6686 381.37V71.712C67.6686 64.6557 73.4171 58.9122 80.4796 58.9122H480.907C487.969 58.9122 493.718 64.6557 493.718 71.712V381.534C493.554 388.591 487.969 394.17 480.907 394.17Z" fill="#C6F4FF"/>
<path d="M12.811 393.514C22.3372 409.267 39.7471 419.934 59.6206 419.934H501.93C521.64 419.934 539.049 409.267 548.74 393.514H12.811Z" fill="#0B9B9B"/>
<path d="M18.5596 401.226H542.827C544.962 398.765 546.933 396.303 548.576 393.514H12.811C14.4535 396.303 16.4244 398.765 18.5596 401.226Z" fill="#30C5CC"/>
<path d="M220.251 258.295H101.174V324.92H220.251V258.295Z" fill="#DB5A28"/>
<path d="M262.626 87.7939H217.788V94.0297H262.626V87.7939Z" fill="#30C5CC"/>
<path d="M187.074 87.7939H159.81V94.0297H187.074V87.7939Z" fill="#30C5CC"/>
<path d="M151.597 87.7939H97.3968V94.0297H151.597V87.7939Z" fill="#30C5CC"/>
<path d="M207.605 87.7939H195.779V94.0297H207.605V87.7939Z" fill="#30C5CC"/>
<path d="M301.224 87.7939H273.959V94.0297H301.224V87.7939Z" fill="#30C5CC"/>
<path d="M234.541 105.845H217.788V112.081H234.541V105.845Z" fill="#30C5CC"/>
<path d="M258.028 105.845H241.275V112.081H258.028V105.845Z" fill="#30C5CC"/>
<path d="M159.153 105.845H131.888V112.081H159.153V105.845Z" fill="#30C5CC"/>
<path d="M124.169 105.845H97.3968V112.081H124.169V105.845Z" fill="#30C5CC"/>
<path d="M211.875 105.845H166.872V112.081H211.875V105.845Z" fill="#30C5CC"/>
<path d="M176.398 447.831C173.606 438.806 168.022 400.406 166.872 385.309C166.544 382.191 131.56 368.406 131.56 368.406C111.029 367.914 100.517 375.955 100.517 375.955L149.791 392.529C149.791 414.683 168.679 448.159 168.679 448.159C168.679 448.159 176.398 447.831 176.398 447.831Z" fill="#2F2F8E"/>
<path d="M134.188 396.96L119.57 447.831L127.946 449.636C131.56 437.657 152.583 396.467 153.24 391.544C153.404 389.411 153.404 387.77 152.583 387.278C151.762 386.621 128.275 372.509 121.377 371.032C112.179 368.899 98.5466 365.616 98.5466 365.616C98.5466 365.616 90.8271 373.657 92.3053 386.786C93.6192 399.749 134.188 396.96 134.188 396.96Z" fill="#4C49A2"/>
<path d="M114.314 307.361C114.314 307.361 98.2181 308.838 97.5611 313.104C96.9041 317.535 105.281 345.104 105.281 345.104L97.0684 366.765C97.0684 366.765 120.227 372.509 131.395 368.242C132.545 368.734 134.352 345.432 134.352 345.432L138.294 333.945L143.385 351.176L155.047 367.586L162.766 361.35L154.225 346.417C154.225 346.417 141.086 316.386 137.637 312.94C131.067 306.704 114.314 307.361 114.314 307.361Z" fill="white"/>
<path d="M127.125 308.509L125.811 292.099H113.821V307.525C112.343 307.689 115.464 319.997 125.154 319.997C125.154 319.997 129.589 318.356 127.125 308.509Z" fill="#E67750"/>
<path d="M102.653 336.407C104.131 341.33 105.116 345.104 105.116 345.104L96.9041 366.765C96.9041 366.765 114.478 371.032 126.468 369.391C125.318 368.57 111.193 359.052 110.536 354.95C109.222 346.253 102.653 336.407 102.653 336.407Z" fill="#EFEFEF"/>
<path d="M137.801 275.525C136.815 271.259 130.246 270.11 119.734 271.259C112.672 272.079 111.029 278.643 110.865 283.402C110.701 283.402 110.701 283.402 110.536 283.402C108.073 284.223 106.43 286.52 106.43 289.146C106.43 290.458 106.923 291.607 107.908 292.592C108.894 294.069 110.372 295.053 112.179 295.381C112.672 295.381 113.164 295.381 113.657 295.381C116.613 301.453 122.033 309.166 129.589 308.181C140.757 300.469 137.801 275.525 137.801 275.525Z" fill="#FD9E71"/>
<path d="M113.985 286.52C113.985 286.52 111.686 280.941 116.942 277.166C122.198 273.228 122.526 278.971 127.946 279.792C133.366 280.612 138.786 280.12 138.294 283.73C141.578 275.525 136.815 270.93 131.395 268.305C125.975 265.679 117.599 264.695 111.85 269.453C106.102 274.377 106.759 286.028 106.759 286.028C110.536 284.058 111.522 285.535 113.985 286.52Z" fill="#201251"/>
<path d="M111.686 269.453C111.686 269.453 106.923 256.49 97.7253 259.772C88.5276 263.054 92.6337 281.433 91.6483 289.474C90.6628 297.515 84.9143 297.843 82.7791 294.233C79.0015 301.453 93.9477 308.838 98.875 301.945C103.802 294.889 101.01 277.33 104.131 275.525C107.251 273.72 110.372 276.018 110.372 276.018L111.686 269.453Z" fill="#201251"/>
<path d="M98.0538 311.791C94.2762 314.089 87.0494 340.509 87.0494 344.94C87.0494 349.371 121.212 371.032 121.212 371.032C121.212 371.032 122.855 365.617 126.468 364.632C125.811 364.304 101.01 340.673 101.01 340.673L107.58 322.13C107.416 321.966 107.416 306.376 98.0538 311.791Z" fill="white"/>
<path d="M118.584 374.314L153.404 373.165L175.906 381.534L137.637 383.668L118.584 374.314Z" fill="#30C5CC"/>
<path d="M137.637 383.668L118.584 376.283V374.314L139.279 381.698L137.637 383.668Z" fill="#0B9B9B"/>
<path d="M137.637 383.668L149.134 352.324L187.238 354.294L175.906 382.355L137.637 383.668Z" fill="#0B9B9B"/>
<path d="M160.959 366.109C159.81 368.406 160.138 370.868 161.781 371.524C163.259 372.345 165.558 371.032 166.708 368.898C167.858 366.601 167.529 364.14 165.887 363.483C164.408 362.663 162.109 363.811 160.959 366.109Z" fill="#30C5CC"/>
<path d="M126.304 364.468C126.304 364.468 140.1 375.463 138.622 376.119C137.144 376.775 130.903 376.775 127.618 374.97C124.333 373.165 120.884 370.868 120.884 370.868C120.884 370.868 122.362 364.796 126.304 364.468Z" fill="#FD9E71"/>
<path d="M128.275 447.011C130.738 449.472 139.115 453.246 143.221 454.231C147.656 455.38 146.834 458.99 143.714 458.99C137.308 458.99 123.347 458.169 116.285 458.169C115.135 454.887 117.106 450.457 119.241 447.503C119.898 446.846 127.782 446.682 128.275 447.011Z" fill="#201251"/>
<path d="M178.041 447.011C180.504 449.472 188.881 453.246 192.987 454.231C197.422 455.38 196.6 458.99 193.48 458.99C187.074 458.99 173.113 458.169 166.051 458.169C164.901 454.887 166.872 450.457 169.007 447.503C169.664 446.846 177.712 446.682 178.041 447.011Z" fill="#201251"/>
<path d="M135.173 232.367H101.831V241.556H135.173V232.367Z" fill="#31D0A8"/>
<path d="M220.251 232.367H186.91V241.556H220.251V232.367Z" fill="#31D0A8"/>
<path d="M177.712 232.367H144.371V241.556H177.712V232.367Z" fill="#31D0A8"/>
<path d="M319.777 55.102L214.019 81.007L223.678 120.373L329.436 94.4675L319.777 55.102Z" fill="#FEBA40"/>
<path d="M298.891 65.8683L220.888 84.9747L222.218 90.3934L300.22 71.287L298.891 65.8683Z" fill="#FEDB9B"/>
<path d="M288.424 78.7691L223.343 94.7106L224.672 100.129L289.754 84.1878L288.424 78.7691Z" fill="#FEDB9B"/>
<path d="M256.896 97.7059L225.95 105.286L227.279 110.705L258.225 103.125L256.896 97.7059Z" fill="#FEDB9B"/>
<path d="M308.352 74.0191L291.763 78.0826L293.092 83.5014L309.682 79.4378L308.352 74.0191Z" fill="white"/>
<path d="M219.43 125.373H100.682V222.192H219.43V125.373Z" fill="white"/>
<path d="M462.019 181.167H228.299V224.818H462.019V181.167Z" fill="#4CB0DD"/>
<path d="M455.121 187.567H391.887V218.582H455.121V187.567Z" fill="white"/>
<path d="M383.017 189.372H236.84V195.28H383.017V189.372Z" fill="#75D5EF"/>
<path d="M383.017 200.039H236.84V205.946H383.017V200.039Z" fill="#75D5EF"/>
<path d="M335.222 210.705H236.84V216.613H335.222V210.705Z" fill="#75D5EF"/>
<path d="M452.985 256.161H228.464V361.514H452.985V256.161Z" fill="white"/>
<path d="M452.985 256.161H228.464V273.556H452.985V256.161Z" fill="#FDBE44"/>
<path d="M363.637 298.335H233.884V307.197H363.637V298.335Z" fill="#98DBE5"/>
<path d="M350.169 314.253H233.884V323.114H350.169V314.253Z" fill="#98DBE5"/>
<path d="M312.392 330.007H233.884V338.868H312.392V330.007Z" fill="#98DBE5"/>
<path d="M280.693 283.894H233.884V292.756H280.693V283.894Z" fill="#98DBE5"/>
<path d="M443.952 283.402H376.119V351.176H443.952V283.402Z" fill="#86D2E8"/>
<path d="M417.016 316.879C418.001 315.402 418.658 313.597 418.658 311.791V306.54C418.658 301.781 414.717 297.843 409.954 297.843C405.19 297.843 401.249 301.781 401.249 306.54V311.791C401.249 313.761 401.906 315.73 403.055 317.207C395.172 319.996 389.423 327.545 389.423 336.407H432.126C432.455 336.242 430.813 320.817 417.016 316.879Z" fill="#F6FFFA"/>
<path d="M239.961 269.782C242.41 269.782 244.395 267.798 244.395 265.351C244.395 262.904 242.41 260.92 239.961 260.92C237.512 260.92 235.526 262.904 235.526 265.351C235.526 267.798 237.512 269.782 239.961 269.782Z" fill="#DB5A28"/>
<path d="M254.086 269.782C256.535 269.782 258.52 267.798 258.52 265.351C258.52 262.904 256.535 260.92 254.086 260.92C251.637 260.92 249.651 262.904 249.651 265.351C249.651 267.798 251.637 269.782 254.086 269.782Z" fill="#FFE780"/>
<path d="M270.51 269.782C272.959 269.782 274.945 267.798 274.945 265.351C274.945 262.904 272.959 260.92 270.51 260.92C268.061 260.92 266.076 262.904 266.076 265.351C266.076 267.798 268.061 269.782 270.51 269.782Z" fill="#1FB288"/>
<path d="M455.285 83.6914H376.612V162.296H455.285V83.6914Z" fill="#DB5A28"/>
<path d="M486.656 432.734C486.656 432.734 487.312 434.867 480.907 437.657C474.501 440.611 467.932 439.462 466.289 441.923C464.647 444.385 464.318 446.682 464.318 446.682H500.452C500.452 446.682 500.124 436.672 496.017 432.241C496.51 433.226 486.656 432.734 486.656 432.734Z" fill="#9E472D"/>
<path d="M525.91 432.734C525.91 432.734 526.567 434.703 520.49 437.493C514.413 440.282 508.007 439.298 506.365 441.595C504.722 443.893 504.394 446.19 504.394 446.19H539.049C539.049 446.19 538.721 436.672 534.779 432.406C535.436 433.226 525.91 432.734 525.91 432.734Z" fill="#9E472D"/>
<path d="M479.593 243.033L453.314 247.628L434.919 208.244L463.169 205.946L479.593 243.033Z" fill="white"/>
<path d="M497.66 169.024C497.66 169.024 494.211 175.916 494.211 182.316C494.211 186.747 494.703 193.147 495.032 196.593C495.196 197.906 496.346 198.726 497.66 198.234L502.751 196.593L502.423 204.141L516.876 203.813L519.997 173.619C520.161 173.783 508.007 160.491 497.66 169.024Z" fill="#FD9E71"/>
<path d="M498.81 184.942C498.81 184.942 499.631 178.87 504.065 180.183C508.664 181.495 503.408 187.403 503.408 187.403L507.679 195.116C510.799 196.265 514.413 196.265 517.698 194.788C517.698 194.788 522.461 180.183 522.461 175.588C522.461 170.993 518.19 167.875 518.19 167.875C518.19 167.875 506.858 162.296 500.945 162.624C494.868 162.952 494.375 169.024 494.375 169.024C494.375 169.024 492.076 173.619 494.375 175.588C496.839 177.721 498.81 184.942 498.81 184.942Z" fill="#201251"/>
<path d="M517.698 199.875L517.041 203.977H502.094C502.094 203.977 505.051 199.382 517.698 199.875Z" fill="#6AA5CC"/>
<path d="M453.971 236.962C453.971 236.962 454.956 233.68 450.85 231.71C451.015 230.89 450.029 227.115 449.044 226.295C448.222 225.474 447.565 230.397 447.565 230.397C447.565 230.397 443.459 223.013 442.31 224.982C441.324 226.787 451.672 241.228 451.836 241.885C452.329 242.377 453.971 236.962 453.971 236.962Z" fill="#FD9E71"/>
<path d="M492.733 284.387L482.714 368.734L484.685 434.211L497.331 433.39C497.331 433.39 500.945 398.929 501.109 390.396C501.438 381.698 498.81 368.57 498.81 368.57L511.456 316.386L513.592 316.715L514.249 368.078L525.746 433.39L536.257 433.882C536.257 433.882 536.586 400.242 535.6 391.873C534.779 383.504 530.18 366.765 530.18 366.765L534.779 313.597C534.779 313.597 539.378 299.648 531.166 283.894C530.18 283.894 492.733 284.387 492.733 284.387Z" fill="#201251"/>
<path d="M502.094 203.977C502.094 203.977 484.192 209.721 480.907 213.003C477.622 216.285 468.26 249.925 468.26 249.925L454.135 235.813L449.701 245.987C449.701 245.987 466.289 270.602 471.381 271.259C476.637 272.079 488.298 240.244 488.298 240.244C488.298 240.244 489.283 257.638 491.419 266.336C493.718 276.346 492.568 284.387 492.568 284.387C508.5 287.34 522.132 286.684 531.166 283.73L535.6 250.254C535.6 250.254 541.677 250.91 543.648 248.777C545.619 246.643 536.75 212.018 534.779 209.228C532.808 206.603 516.876 203.813 516.876 203.813L502.094 203.977Z" fill="#96C4EA"/>
<path d="M519.504 227.115C519.34 226.459 518.355 226.623 518.355 227.28C518.847 241.72 518.355 255.833 516.055 270.11C515.891 271.094 517.369 271.587 517.533 270.438C520.654 256.325 521.475 241.392 519.504 227.115Z" fill="#6AA5CC"/>
<path d="M535.929 237.782C535.765 237.29 535.108 237.454 535.108 237.946C534.943 246.315 533.958 254.356 532.315 262.725C530.837 270.11 529.523 277.494 530.016 284.879C530.016 285.864 531.658 286.028 531.658 284.879C531.33 276.182 533.137 267.813 534.615 259.279C535.929 252.223 537.243 244.838 535.929 237.782Z" fill="#6AA5CC"/>
<path d="M490.105 237.454C485.342 240.572 483.535 246.479 481.728 251.566C479.265 258.459 476.801 265.187 471.381 270.274C470.56 271.094 471.709 272.243 472.531 271.423C482.549 262.397 482.057 247.792 490.597 237.946C490.762 237.782 490.433 237.29 490.105 237.454Z" fill="#6AA5CC"/>
<path d="M531.494 281.269C531.494 281.269 507.35 284.387 492.733 279.792C493.061 279.792 492.733 284.387 492.733 284.387C492.733 284.387 511.292 291.443 532.644 285.864C532.48 285.864 531.494 281.269 531.494 281.269Z" fill="#9E472D"/>
<path d="M281.186 379.565C281.186 379.565 279.215 383.996 275.766 384.652C272.317 385.309 263.283 387.442 261.805 388.591C260.327 389.903 260.327 393.185 260.327 393.185H289.07C289.07 393.185 289.07 384.488 287.263 379.893C288.084 379.893 281.186 379.565 281.186 379.565Z" fill="#1A133A"/>
<path d="M336.865 379.565C336.865 379.565 334.894 383.996 331.445 384.652C327.996 385.309 318.962 387.442 317.484 388.591C316.006 389.903 316.006 393.185 316.006 393.185H344.913C344.913 393.185 344.913 384.488 343.106 379.893C343.763 379.893 336.865 379.565 336.865 379.565Z" fill="#1A133A"/>
<path d="M333.251 95.8348C333.251 95.8348 325.204 93.7015 324.711 95.0143C324.218 96.3271 337.193 100.101 337.193 100.101L348.855 132.429L344.42 142.768L352.468 151.465C352.468 151.465 361.173 139.65 361.994 136.204C362.651 132.758 341.299 97.9682 341.299 97.9682C341.299 97.9682 337.029 84.5119 336.372 83.8555C335.715 83.1991 327.996 83.6914 326.353 83.6914C324.547 83.6914 331.445 90.5836 331.445 90.5836L333.251 95.8348Z" fill="#E79673"/>
<path d="M302.045 119.794C302.045 119.794 298.267 125.209 297.446 130.952C296.625 136.696 297.775 142.111 297.775 142.111L304.837 141.947V148.511H318.798C318.798 148.511 319.126 143.588 319.619 140.798C320.112 138.009 324.054 132.922 324.054 132.922L317.813 115.199L308.779 114.378L302.045 119.794Z" fill="#E79673"/>
<path d="M305.494 128.163C305.494 128.163 307.958 122.419 310.914 124.552C313.871 126.686 310.093 131.445 310.093 131.445C310.093 131.445 312.064 139.322 315.349 140.47C318.634 141.619 318.634 141.619 318.634 141.619C318.634 141.619 327.174 133.742 328.488 131.445C329.802 129.311 326.353 116.676 323.89 114.05C321.426 111.26 310.75 111.589 309.929 110.276C309.108 108.963 306.315 106.501 303.687 107.486C301.06 108.471 301.552 117.66 301.552 117.66C301.552 117.66 305.001 120.614 305.166 122.583C305.33 124.717 303.852 127.506 303.852 127.506L305.494 128.163Z" fill="#201251"/>
<path d="M292.355 148.839C292.355 148.839 306.315 146.87 314.363 146.542C322.411 146.378 335.058 150.48 335.058 150.48L344.256 140.634L356.081 151.793C356.081 151.793 346.062 166.562 342.778 170.008C339.493 173.454 337.193 189.7 336.372 194.623C335.715 199.546 333.744 228.264 333.744 228.264C333.744 228.264 325.203 238.438 290.055 227.28C289.727 226.951 291.533 206.111 291.369 201.023C291.205 195.936 286.606 178.706 285.785 174.439C284.799 170.337 270.346 161.803 270.346 161.803C270.346 161.803 268.539 151.629 275.273 146.706C276.259 147.527 292.355 148.839 292.355 148.839Z" fill="#201251"/>
<path d="M259.834 107.158C259.834 107.158 254.579 112.081 254.25 114.05C253.922 116.019 261.477 138.829 261.477 138.829L275.438 147.034L270.51 162.132C270.51 162.132 255.4 151.629 253.1 148.511C250.965 145.393 247.023 114.542 247.023 114.542C247.023 114.542 242.096 108.307 241.767 106.666C241.439 105.025 240.289 99.6092 241.11 98.6246C241.932 97.64 247.516 91.7323 248.337 93.5375C249.158 95.3426 252.115 107.814 252.115 107.814C252.115 107.814 258.52 104.86 259.834 107.158Z" fill="#E79673"/>
<path d="M290.219 227.28L282.336 301.781L278.23 380.878L291.862 381.37C291.862 381.37 300.403 328.858 300.403 320.817C300.567 312.776 300.238 303.258 300.238 303.258L308.943 263.382H313.871L324.054 315.238L334.401 379.565L345.406 380.057C345.406 380.057 347.048 340.017 345.406 331.812C343.763 323.607 341.299 315.73 341.299 315.73L336.372 261.905C336.372 261.905 340.807 242.869 333.908 227.772C332.594 225.474 290.219 227.28 290.219 227.28Z" fill="#4C49A2"/>
<path d="M206.783 142.439H197.914V133.578H192.33V142.439H183.461V148.019H192.33V156.88H197.914V148.019H206.783V142.439Z" fill="#FDBE44"/>
<path d="M124.169 210.87C116.449 210.87 110.208 204.634 110.208 197.085C110.208 189.372 116.449 183.301 124.169 183.301C131.888 183.301 137.965 189.536 137.965 197.085C138.129 204.634 131.888 210.87 124.169 210.87ZM124.169 190.357C120.555 190.357 117.599 193.311 117.599 196.921C117.599 200.531 120.555 203.485 124.169 203.485C127.782 203.485 130.738 200.531 130.738 196.921C130.903 193.475 127.782 190.357 124.169 190.357Z" fill="#30C5CC"/>
<path d="M550.875 83.5273H542.006V74.6658H536.422V83.5273H527.552V89.1067H536.422V97.9681H542.006V89.1067H550.875V83.5273Z" fill="#30C5CC"/>
<path d="M506.529 22.9741C506.529 25.9279 504.065 28.3894 501.109 28.3894C498.153 28.3894 495.689 25.9279 495.689 22.9741C495.689 20.0203 498.153 17.5588 501.109 17.5588C504.065 17.5588 506.529 20.0203 506.529 22.9741Z" fill="#3D9CFF"/>
<path d="M399.442 119.301C391.722 119.301 385.481 113.065 385.481 105.517C385.481 97.804 391.722 91.7323 399.442 91.7323C407.161 91.7323 413.238 97.9681 413.238 105.517C413.403 113.065 407.161 119.301 399.442 119.301ZM399.442 98.7886C395.828 98.7886 392.872 101.742 392.872 105.353C392.872 108.963 395.828 111.917 399.442 111.917C403.055 111.917 406.012 108.963 406.012 105.353C406.176 101.742 403.055 98.7886 399.442 98.7886Z" fill="#FEBA40"/>
<path d="M473.188 27.5689C465.468 27.5689 459.227 21.3331 459.227 13.7845C459.227 6.07173 465.468 0 473.188 0C480.907 0 486.984 6.23583 486.984 13.7845C487.148 21.3331 480.907 27.5689 473.188 27.5689ZM473.188 7.05633C469.574 7.05633 466.618 10.0101 466.618 13.6204C466.618 17.2306 469.574 20.1844 473.188 20.1844C476.801 20.1844 479.757 17.2306 479.757 13.6204C479.757 10.0101 476.801 7.05633 473.188 7.05633Z" fill="#FEBA40"/>
</g>
<defs>
<clipPath id="clip0_55_209">
<rect width="565" height="469" fill="white"/>
</clipPath>
</defs>
</svg>
