<svg width="25" height="25" viewBox="0 0 25 25" fill="none" xmlns="http://www.w3.org/2000/svg">
<path fill-rule="evenodd" clip-rule="evenodd" d="M17.4028 12.1722C17.4028 10.2515 18.9627 8.69446 20.8834 8.69446C22.8041 8.69446 24.3639 10.2515 24.3639 12.1722C24.3639 14.093 22.8041 15.65 20.8834 15.65C18.9627 15.65 17.4028 14.093 17.4028 12.1722Z" fill="#026FC2"/>
<path fill-rule="evenodd" clip-rule="evenodd" d="M0 12.1722C0 10.2515 1.55983 8.69446 3.48056 8.69446C5.40128 8.69446 6.96111 10.2515 6.96111 12.1722C6.96111 14.093 5.40128 15.65 3.48056 15.65C1.55983 15.65 0 14.093 0 12.1722Z" fill="#026FC2"/>
<path fill-rule="evenodd" clip-rule="evenodd" d="M8.70142 20.8667C8.70142 18.946 10.2612 17.3889 12.182 17.3889C14.1027 17.3889 15.6625 18.946 15.6625 20.8667C15.6625 22.7874 14.1027 24.3445 12.182 24.3445C10.2612 24.3445 8.70142 22.7874 8.70142 20.8667Z" fill="#21567E"/>
<path fill-rule="evenodd" clip-rule="evenodd" d="M8.70142 3.47778C8.70142 1.55705 10.2612 0 12.182 0C14.1027 0 15.6625 1.55705 15.6625 3.47778C15.6625 5.3985 14.1027 6.95556 12.182 6.95556C10.2612 6.95556 8.70142 5.3985 8.70142 3.47778Z" fill="#21567E"/>
</svg>