<svg width="107" height="28" viewBox="0 0 107 28" fill="none" xmlns="http://www.w3.org/2000/svg">
<path fill-rule="evenodd" clip-rule="evenodd" d="M28.4074 5.00282C27.3741 5.43337 26.3408 5.77782 25.1352 5.86393C26.3408 5.17504 27.2019 4.0556 27.6324 2.76393C26.513 3.45282 25.3074 3.88337 24.0158 4.14171C22.9824 3.02226 21.5185 2.33337 19.9685 2.33337C16.8685 2.33337 14.2852 4.8306 14.2852 8.01671C14.2852 8.44726 14.3713 8.87782 14.4574 9.30837C9.72131 9.05004 5.58798 6.81115 2.83242 3.36671C2.31576 4.22782 2.05742 5.17504 2.05742 6.20837C2.05742 8.18893 3.09076 9.91115 4.55465 10.9445C3.60742 10.9445 2.74631 10.6862 1.97131 10.2556V10.3417C1.97131 13.0973 3.95187 15.3362 6.5352 15.8528C6.01853 15.9389 5.58798 16.025 5.07131 16.025C4.72687 16.025 4.38242 16.025 4.03798 15.9389C4.72687 18.1778 6.87965 19.8139 9.29076 19.9C7.39631 21.45 4.89909 22.3111 2.22965 22.3111C1.79909 22.3111 1.28242 22.3112 0.851868 22.225C3.34909 23.8612 6.36298 24.7223 9.54909 24.7223C19.9685 24.7223 25.6519 16.1112 25.6519 8.61948C25.6519 8.36115 25.6519 8.10282 25.6519 7.9306C26.6852 7.1556 27.6324 6.12226 28.4074 5.00282Z" fill="#4699C2"/>
<path fill-rule="evenodd" clip-rule="evenodd" d="M74.7528 5.22211C74.3475 4.16839 73.7801 3.27677 72.9695 2.54727C72.159 1.81777 71.3484 1.16933 70.2947 0.764047C69.241 0.358769 68.1873 0.115602 66.8093 0.115602C65.4314 0.0345459 65.0261 0.0345459 61.7028 0.0345459C58.3795 0.0345459 57.9742 0.0345459 56.5963 0.115602C55.2184 0.196657 54.1646 0.358769 53.1109 0.764047C52.0572 1.16933 51.1656 1.73672 50.4361 2.54727C49.7066 3.35783 49.0581 4.16839 48.6528 5.22211C48.2476 6.27583 48.0044 7.32956 48.0044 8.7075C47.9233 10.0855 47.9233 10.4907 47.9233 13.814C47.9233 17.1373 47.9233 17.5426 48.0044 18.9205C48.0855 20.2985 48.2476 21.3522 48.6528 22.4059C49.0581 23.4596 49.6255 24.3513 50.4361 25.0808C51.2466 25.8103 52.0572 26.4587 53.1109 26.864C54.1646 27.2693 55.2184 27.5124 56.5963 27.5124C57.9742 27.5935 58.3795 27.5935 61.7028 27.5935C65.0261 27.5935 65.4314 27.5935 66.8093 27.5124C68.1873 27.4314 69.241 27.2693 70.2947 26.864C71.3484 26.4587 72.24 25.8913 72.9695 25.0808C73.699 24.2702 74.3475 23.4596 74.7528 22.4059C75.1581 21.3522 75.4012 20.2985 75.4012 18.9205C75.4823 17.5426 75.4823 17.1373 75.4823 13.814C75.4823 10.4907 75.4823 10.0855 75.4012 8.7075C75.3202 7.32956 75.1581 6.27583 74.7528 5.22211ZM72.1586 18.758C72.0775 20.0549 71.9154 20.7034 71.6723 21.1897C71.4291 21.8381 71.1049 22.3245 70.6185 22.8108C70.1322 23.2971 69.6459 23.6214 68.9974 23.8645L68.9004 23.8971C68.4241 24.0576 67.7784 24.2751 66.5658 24.3509H61.7024C58.4602 24.3509 58.0549 24.3509 56.758 24.2698C55.4611 24.1888 54.8127 24.0266 54.3263 23.7835C53.6779 23.5403 53.1916 23.2161 52.7052 22.7297C52.2189 22.2434 51.8947 21.7571 51.6515 21.1086L51.6189 21.0116C51.4585 20.5353 51.241 19.8896 51.1652 18.677V13.8136C51.1652 10.5714 51.1652 10.1661 51.2462 8.86923C51.3273 7.57234 51.4894 6.92389 51.7326 6.43756C51.9757 5.78911 52.3 5.30278 52.7863 4.81644C53.2726 4.33011 53.759 4.00589 54.4074 3.76272L54.5044 3.73016C54.9807 3.56969 55.6265 3.35217 56.8391 3.27639H61.7024C64.9446 3.27639 65.3499 3.27639 66.6468 3.35744C67.9437 3.4385 68.5921 3.60061 69.0785 3.84378C69.7269 4.08694 70.2133 4.41117 70.6996 4.8975C71.1859 5.38383 71.5102 5.87017 71.7533 6.51861L71.7859 6.6156C71.9463 7.09195 72.1639 7.73766 72.2397 8.95028V13.8136C72.2397 17.0559 72.2397 17.4611 72.1586 18.758ZM68.5922 8.46395C69.4427 8.46395 70.1322 7.77444 70.1322 6.92389C70.1322 6.07334 69.4427 5.38383 68.5922 5.38383C67.7416 5.38383 67.0521 6.07334 67.0521 6.92389C67.0521 7.77444 67.7416 8.46395 68.5922 8.46395ZM54.5695 13.8136C54.5695 9.84189 57.7307 6.68072 61.7024 6.68072C65.6741 6.68072 68.8353 9.84189 68.8353 13.8136C68.8353 17.7854 65.6741 20.9465 61.7024 20.9465C57.7307 20.9465 54.5695 17.7854 54.5695 13.8136ZM57.8117 13.8136C57.8117 15.9211 59.595 17.7043 61.7024 17.7043C63.8099 17.7043 65.5931 15.9211 65.5931 13.8136C65.5931 11.7062 63.8099 9.92295 61.7024 9.92295C59.595 9.92295 57.8117 11.7062 57.8117 13.8136Z" fill="#4699C2"/>
<path d="M106.176 14.9387H102.722V27.5926H97.4889V14.9387H95V10.4916H97.4889V7.61379C97.4889 5.55587 98.4664 2.33337 102.769 2.33337L106.645 2.34959V6.66626H103.832C103.371 6.66626 102.722 6.89676 102.722 7.87845V10.4957H106.633L106.176 14.9387Z" fill="#4699C2"/>
</svg>
