<svg width="81" height="81" viewBox="0 0 81 81" fill="none" xmlns="http://www.w3.org/2000/svg">
<path fill-rule="evenodd" clip-rule="evenodd" d="M66.3659 67.2057C72.5833 67.2057 75.6624 64.1266 75.6624 58.0275V21.8775C75.6624 15.7785 72.5833 12.6993 66.3659 12.6993H15.1459C8.95803 12.6993 5.8493 15.7489 5.8493 21.8775V58.0275C5.8493 64.1562 8.95803 67.2057 15.1459 67.2057H66.3659ZM70.8962 54.8003L55.0269 39.8784C53.6946 38.6941 52.155 38.0724 50.5562 38.0724C48.9279 38.0724 47.4771 38.6349 46.1152 39.8488L32.7329 51.81L27.2556 46.8361C26.0121 45.7406 24.6502 45.1485 23.2587 45.1485C21.9263 45.1485 20.6829 45.711 19.4394 46.8064L10.6165 54.7707V22.1143C10.6165 19.0352 12.2449 17.466 15.2056 17.466H66.3071C69.2382 17.466 70.8962 19.0352 70.8962 22.1143V54.8003ZM27.9062 40.2042C31.7255 40.2042 34.8639 37.0658 34.8639 33.2169C34.8639 29.3976 31.7255 26.2297 27.9062 26.2297C24.0573 26.2297 20.919 29.3976 20.919 33.2169C20.919 37.0658 24.0573 40.2042 27.9062 40.2042Z" fill="#212B36" fill-opacity="0.1"/>
</svg>
