<svg fill="none" height="354" viewBox="0 0 392 354" width="392" xmlns="http://www.w3.org/2000/svg"><path d="m258.111.386888c-.505.206395-1.674.389857-3.073.435723-1.697.068798-2.454.183459-3.004.527459-.413.22932-1.606.59625-2.66.82558-2.913.57332-5.757 1.30717-6.445 1.62822-.802.4128-1.467 1.37597-2.155 3.1418-.505 1.21544-.551 1.65116-.436 3.02713.069.8714.367 2.3162.619 3.2106.482 1.6512 2.5 5.7103 3.99 8.0494.459.7109 1.399 2.4309 2.064 3.8068 1.399 2.7978 2.385 3.9904 4.77 5.7332.895.6651 2.615 1.9952 3.807 2.9584 1.193.9402 3.67 2.7978 5.504 4.1049 1.835 1.3072 3.853 2.752 4.472 3.2106.642.4587 3.211 2.3163 5.733 4.1509 5.917 4.2425 12.109 8.9208 16.856 12.7047 7.247 5.7791 29.377 24.24 29.239 24.3776-.046.0459-1.49-.1376-3.256-.3898-12.843-1.9035-22.497-2.5456-37.358-2.5456-15.617 0-25.363.7109-41.027 3.0042-15.158 2.2245-23.987 4.105-40.935 8.6915-27.886 7.5908-49.236 17.1998-70.977 31.9228-14.768 10.021-24.9275 18.506-38.8707 32.495-15.2044 15.228-28.1844 31.235-40.7057 50.132-12.9112 19.515-23.9648 41.324-31.9224 63.065-4.793 13.071-11.535242 36.623-12.223225 42.655-.366925 3.371.160529 10.985 1.146635 16.901.48159 2.821 2.56848 13.324 2.98127 15.09.20639.849 2.20155 4.747 3.57751 7.04.18347.276.80265.826 1.3989 1.239.61919.39 1.42181 1.032 1.83461 1.422.7109.665.7797.688 1.6512.412 1.6741-.481 2.9583-1.949 3.9444-4.426.2523-.642.6651-1.467.9173-1.834.6651-.895 2.5226-6.146 3.8757-10.847.6192-2.179 1.4447-4.816 1.8575-5.871.688-1.881 2.064-5.665 3.4399-9.609.367-1.078 1.3072-4.472 2.064-7.568 2.4309-9.838 6.6505-24.056 9.1273-30.73 2.4996-6.834 6.9715-17.268 9.9987-23.345.8255-1.675 1.4906-3.073 1.4906-3.142 0-.298 6.49-11.857 8.7144-15.48 19.2407-31.555 45.4531-61.139 72.0091-81.32 30.134-22.887 62.217-36.394 102.28-43.067 14.127-2.362 25.318-3.234 41.394-3.211 19.86 0 32.037 1.307 56.071 5.963 2.339.458 4.38.894 4.517.986.39.206-9.058 5.664-18.506 10.686-2.34 1.239-5.527 2.936-7.11 3.784-1.582.849-5.022 2.706-7.682 4.128-14.425 7.774-25.066 14.173-32.427 19.516-10.939 7.981-11.535 8.554-14.31 13.737-1.491 2.82-1.858 4.082-1.651 5.848.275 2.568 1.078 4.609 3.119 8.026.688 1.124 1.582 2.752 1.995 3.6.963 1.996 1.628 2.775 3.233 3.784.711.436 1.743 1.262 2.316 1.789 1.216 1.193 1.927 1.491 3.463 1.491 3.509 0 8.325-1.743 11.444-4.151 10.847-8.325 20.96-14.746 35.89-22.795 2.774-1.491 6.513-3.532 8.324-4.518 1.789-.986 3.325-1.789 3.371-1.789.138 0 7.912-4.219 15.136-8.21 5.687-3.142 16.076-9.265 19.608-11.558 2.637-1.72 9.884-6.146 13.071-7.98 4.816-2.775 6.33-3.83 8.21-5.596 1.904-1.812 2.959-3.44 4.036-6.192.436-1.078 1.193-2.568 1.697-3.348.895-1.33 1.422-3.096 1.101-3.646-.092-.115.207-.688.619-1.239.413-.55.895-1.467 1.032-2.018 1.583-6.146 1.537-5.894 1.537-9.723 0-3.532-.023-3.7155-.619-4.9309-.344-.688-1.101-1.8117-1.674-2.4538-2.615-2.9813-14.517-12.8883-34.629-28.8495-1.261-1.0091-3.784-2.9813-5.619-4.4031-1.834-1.4218-4.105-3.1877-5.045-3.9444-.94-.7339-3.738-2.8437-6.192-4.7242-12.337-9.3107-14.31-10.8243-16.97-12.8653-1.582-1.2154-3.371-2.5914-4.013-3.073-.619-.4816-2.225-1.72-3.555-2.7519-9.861-7.5908-17.91-13.5075-27.748-20.3873-11.627-8.1182-17.062-11.55812-19.149-12.03971-.367-.09173-1.307-.57332-2.064-1.03198-3.348-2.1098125-4.793-2.49967-6.536-1.697022z" fill="#000"/></svg>