<svg width="24" height="24" viewBox="0 0 24 24" fill="none" xmlns="http://www.w3.org/2000/svg">
<path fill-rule="evenodd" clip-rule="evenodd" d="M0.288288 6.72414C0.192192 6.61686 0.12012 6.50575 0.0720721 6.3908C0.0240238 6.27586 0 6.14176 0 5.98851C0 5.85057 0.0240238 5.72031 0.0720721 5.5977C0.12012 5.4751 0.192192 5.36782 0.288288 5.27586C0.384385 5.18391 0.496496 5.11494 0.624625 5.06897C0.752753 5.02299 0.888888 5 1.03303 5H22.967C23.1111 5 23.2472 5.02299 23.3754 5.06897C23.5035 5.11494 23.6156 5.18391 23.7117 5.27586C23.8078 5.36782 23.8799 5.4751 23.9279 5.5977C23.976 5.72031 24 5.85057 24 5.98851C24 6.14176 23.976 6.27586 23.9279 6.3908C23.8799 6.50575 23.8078 6.61686 23.7117 6.72414C23.6156 6.81609 23.5035 6.88506 23.3754 6.93103C23.2472 6.97701 23.1111 7 22.967 7H1.03303C0.888888 7 0.752753 6.97701 0.624625 6.93103C0.496496 6.88506 0.384385 6.81609 0.288288 6.72414ZM0.288288 12.7241C0.192192 12.6169 0.12012 12.5057 0.0720721 12.3908C0.0240238 12.2759 0 12.1418 0 11.9885C0 11.8506 0.0240238 11.7203 0.0720721 11.5977C0.12012 11.4751 0.192192 11.3678 0.288288 11.2759C0.384385 11.1839 0.496496 11.1149 0.624625 11.069C0.752753 11.023 0.888888 11 1.03303 11H22.967C23.1111 11 23.2472 11.023 23.3754 11.069C23.5035 11.1149 23.6156 11.1839 23.7117 11.2759C23.8078 11.3678 23.8799 11.4751 23.9279 11.5977C23.976 11.7203 24 11.8506 24 11.9885C24 12.1418 23.976 12.2759 23.9279 12.3908C23.8799 12.5057 23.8078 12.6169 23.7117 12.7241C23.6156 12.8161 23.5035 12.8851 23.3754 12.931C23.2472 12.977 23.1111 13 22.967 13H1.03303C0.888888 13 0.752753 12.977 0.624625 12.931C0.496496 12.8851 0.384385 12.8161 0.288288 12.7241ZM0.0720721 18.3908C0.12012 18.5057 0.192192 18.6169 0.288288 18.7241C0.384385 18.8161 0.496496 18.8851 0.624625 18.931C0.752753 18.977 0.888888 19 1.03303 19H22.967C23.1111 19 23.2472 18.977 23.3754 18.931C23.5035 18.8851 23.6156 18.8161 23.7117 18.7241C23.8078 18.6169 23.8799 18.5057 23.9279 18.3908C23.976 18.2759 24 18.1418 24 17.9885C24 17.8506 23.976 17.7203 23.9279 17.5977C23.8799 17.4751 23.8078 17.3678 23.7117 17.2759C23.6156 17.1839 23.5035 17.1149 23.3754 17.069C23.2472 17.023 23.1111 17 22.967 17H1.03303C0.888888 17 0.752753 17.023 0.624625 17.069C0.496496 17.1149 0.384385 17.1839 0.288288 17.2759C0.192192 17.3678 0.12012 17.4751 0.0720721 17.5977C0.0240238 17.7203 0 17.8506 0 17.9885C0 18.1418 0.0240238 18.2759 0.0720721 18.3908Z" fill="#4699C2"/>
</svg>
